<svg width="173" height="120" viewBox="0 0 173 120" fill="none" xmlns="http://www.w3.org/2000/svg">
    <g clip-path="url(#clip0_2001_293)">
        <g filter="url(#filter0_f_2001_293)">
            <path fill-rule="evenodd" clip-rule="evenodd" d="M192.738 57.8234C213.066 83.7961 202.463 120.401 176.46 140.753C148.974 162.265 108.612 167.936 87.125 140.482C63.5597 110.373 70.1239 66.9953 100.269 43.4023C129.068 20.8625 170.225 29.0579 192.738 57.8234Z" fill="#D26437"/>
        </g>
        <g clip-path="url(#clip1_2001_293)">
            <path d="M119.678 37.3994C120.18 37.1773 120.614 36.8247 120.935 36.3782C121.947 34.9733 123.861 32.9648 127.182 31.5043C133.556 28.7017 139.706 29.3634 139.706 29.3634L138.126 33.4244C141.513 32.8997 143.454 32.6242 147.551 32.9046C161.96 33.891 173.434 44.8269 173.434 44.8269L167.793 47.3075C179.806 55.4896 186.628 71.0035 186.628 71.0035L181.777 71.4536C181.777 71.4536 187.358 84.1468 185.438 95.0894L179.966 94.1292C179.966 94.1292 178.836 103.041 173.645 110.373L169.584 108.793C169.584 108.793 165.013 117.535 157.171 122.667C148.089 124.977 138.556 122.437 138.556 122.437L136.976 126.498C128.064 125.368 120.732 120.176 120.732 120.176L117.741 124.857C108.379 118.876 102.797 106.183 102.797 106.183L99.1866 109.454C99.1866 109.454 92.3648 93.9398 94.4552 79.5564L88.8138 82.037C88.8138 82.037 88.5108 66.1886 97.5232 54.9034C100.086 51.6945 101.601 50.4502 104.277 48.3086L100.216 46.7282C100.216 46.7282 103.886 41.7487 110.259 38.9461C113.581 37.4855 116.354 37.4328 118.074 37.6366C118.62 37.7023 119.173 37.6207 119.676 37.4003" fill="#D26437"/>
            <path d="M113.814 55.9449C113.814 55.9449 114.23 45.8254 118.814 37.6255C118.572 37.655 118.324 37.6661 118.074 37.6365C116.354 37.4326 113.581 37.4853 110.259 38.9459C103.886 41.7485 100.216 46.7281 100.216 46.7281L104.277 48.3084C101.601 50.45 100.086 51.6943 97.5231 54.9033C88.5107 66.1884 88.8138 82.0368 88.8138 82.0368L94.4551 79.5562C92.3648 93.9398 99.1866 109.454 99.1866 109.454L102.797 106.183C102.797 106.183 108.379 118.876 117.741 124.857L120.732 120.176C120.732 120.176 128.064 125.367 136.976 126.498L138.556 122.437C138.556 122.437 148.089 124.977 157.171 122.666C157.171 122.666 145.086 122.932 113.814 55.9449Z" fill="#B44632"/>
            <path d="M148.824 32.2007C151.878 30.0856 156.129 31.4533 157.295 34.9799C158.743 39.3582 158.914 48.1264 156.601 54.3502L136.998 46.6484C140.387 40.2254 145.569 34.4559 148.824 32.2007Z" fill="#EBAF4B"/>
            <path d="M142.313 48.7367C145.188 43.5224 149.675 36.3528 151.37 35.395C153.317 34.2942 155.824 36.5465 156.361 39.9304C156.828 42.8684 156.314 48.8597 155.384 53.8719L142.313 48.7367Z" fill="#E18C46"/>
            <path d="M96.1439 55.3657C92.5212 56.1863 90.6556 60.2437 92.4663 63.4869C94.7143 67.5133 101.06 73.5661 107.21 76.069L114.785 56.416C107.761 54.5723 100.007 54.4908 96.1439 55.3657Z" fill="#EBAF4B"/>
            <path d="M112.731 61.7446C106.945 60.3387 98.6288 58.7993 96.7773 59.4008C94.6495 60.0921 94.6151 63.4617 96.7458 66.145C98.5956 68.4747 103.358 72.1457 107.681 74.8482L112.731 61.7446Z" fill="#E18C46"/>
            <path d="M143.087 44.7072C135.617 42.8255 127.403 54.9699 127.403 54.9699C127.403 54.9699 112.901 52.8142 109.239 59.5912C100.887 75.0451 110.469 104.492 114.36 109.514C117.192 113.167 129.194 116.455 140.307 114.935L162.872 105.012C171.504 97.8503 177.194 86.7823 176.416 82.2263C175.345 75.9648 160.121 48.9981 143.087 44.7072Z" fill="#FFC850"/>
            <path d="M126.714 114.011C122.657 107.723 112.021 76.5833 113.814 55.9449C111.859 56.6947 110.185 57.8411 109.239 59.5913C100.887 75.0452 110.469 104.493 114.36 109.514C116.065 111.713 121.102 113.772 127.259 114.737C127.065 114.494 126.869 114.25 126.714 114.011Z" fill="#EBAF4B"/>
            <path d="M173.307 75.1564C174.085 79.7123 168.396 90.7804 159.764 97.9423L137.198 107.865C126.085 109.385 114.083 106.097 111.252 102.444C111.075 102.216 110.883 101.921 110.685 101.595C112.019 105.388 113.373 108.239 114.36 109.514C117.191 113.167 129.194 116.455 140.307 114.935L162.872 105.012C171.504 97.8503 177.194 86.7823 176.416 82.2262C176.144 80.6371 174.957 77.7119 173.064 74.1649C173.17 74.5308 173.258 74.8717 173.307 75.1564Z" fill="#FAEBC8"/>
            <path d="M138.877 112.831C141.587 117.006 147 118.724 151.704 116.655L156.436 114.574C161.121 112.514 163.514 107.399 162.303 102.596L149.73 105.742L138.877 112.831Z" fill="#F5DCB4"/>
            <path d="M152.525 91.0487C149.253 92.4872 146.971 95.0684 146.221 97.7652C143.727 96.4951 140.282 96.432 137.011 97.8704C131.948 100.097 129.232 105.059 130.945 108.953C132.657 112.848 138.15 114.2 143.213 111.974C146.484 110.535 148.766 107.954 149.516 105.257C152.01 106.527 155.455 106.59 158.726 105.152C163.789 102.926 166.505 97.9638 164.793 94.0693C163.08 90.1747 157.588 88.8223 152.525 91.0487Z" fill="#FAEBC8"/>
            <path d="M158.745 106.772C156.281 107.856 153.601 108.06 150.995 107.362C150.626 107.263 150.245 107.431 150.066 107.771C148.819 110.162 146.858 112 144.394 113.083C138.441 115.701 131.454 112.952 128.818 106.957C128.475 106.178 128.828 105.269 129.608 104.927C130.387 104.584 131.296 104.938 131.638 105.717C133.591 110.157 138.756 112.196 143.154 110.262C144.969 109.464 146.415 108.11 147.334 106.346C148.185 104.716 150.018 103.91 151.792 104.385C153.715 104.9 155.69 104.75 157.505 103.952C161.903 102.018 163.891 96.8331 161.939 92.3927C161.596 91.614 161.95 90.705 162.729 90.3623C163.509 90.0195 164.417 90.3736 164.76 91.1524C167.396 97.1479 164.698 104.155 158.745 106.772Z" fill="#D4AF91"/>
            <path d="M138.242 100.27L142.336 101.451C145.988 102.503 149.871 100.796 151.563 97.393L153.461 93.5781C154.302 91.888 152.578 90.068 150.85 90.8278L137.98 96.4869C136.252 97.2467 136.428 99.7472 138.242 100.27Z" fill="#5D5360"/>
            <path d="M134.845 71.8942C134.66 71.9757 134.46 72.0199 134.258 72.0242C134.056 72.0286 133.855 71.9931 133.666 71.9197C133.478 71.8464 133.305 71.7366 133.159 71.5966C133.013 71.4566 132.896 71.2892 132.815 71.104L127.752 59.5899C127.409 58.8111 127.762 57.9022 128.542 57.5594C129.321 57.2167 130.23 57.5708 130.572 58.3496L135.635 69.8637C135.717 70.0489 135.761 70.2483 135.765 70.4506C135.77 70.6529 135.734 70.8541 135.661 71.0426C135.588 71.2312 135.478 71.4034 135.338 71.5496C135.198 71.6957 135.03 71.8128 134.845 71.8942Z" fill="#FFDC64"/>
            <path d="M126.943 92.1991C124.607 93.2266 121.879 92.1653 120.852 89.8286L120.232 88.4183C119.204 86.0816 120.265 83.3543 122.602 82.3268C124.939 81.2993 127.666 82.3606 128.694 84.6973L129.314 86.1076C130.342 88.4444 129.28 91.1715 126.943 92.1991Z" fill="#4B3F4E"/>
            <path d="M122.602 82.3268L124.773 87.263C125.286 88.4313 126.65 88.962 127.818 88.4482C128.987 87.9345 129.517 86.5708 129.004 85.4025L128.694 84.6973C127.666 82.3606 124.939 81.2992 122.602 82.3268Z" fill="#5D5360"/>
            <path d="M124.463 86.5577C125.242 86.2152 125.595 85.3061 125.253 84.5272C124.91 83.7483 124.001 83.3945 123.222 83.737C122.444 84.0795 122.09 84.9886 122.432 85.7675C122.775 86.5464 123.684 86.9002 124.463 86.5577Z" fill="white"/>
            <path d="M155.15 79.7957C152.814 80.8232 150.086 79.7618 149.059 77.4252L148.439 76.0148C147.411 73.6782 148.472 70.9508 150.809 69.9233C153.146 68.8958 155.873 69.9572 156.901 72.2938L157.521 73.7042C158.548 76.041 157.487 78.7682 155.15 79.7957Z" fill="#4B3F4E"/>
            <path d="M150.809 69.9233L152.98 74.8595C153.493 76.0278 154.857 76.5585 156.025 76.0448C157.194 75.531 157.724 74.1674 157.211 72.999L156.901 72.2939C155.873 69.9572 153.146 68.8958 150.809 69.9233Z" fill="#5D5360"/>
            <path d="M152.669 74.1545C153.448 73.812 153.802 72.9029 153.46 72.124C153.117 71.3451 152.208 70.9913 151.429 71.3338C150.65 71.6763 150.296 72.5854 150.639 73.3643C150.981 74.1432 151.891 74.497 152.669 74.1545Z" fill="white"/>
            <path d="M147.701 98.8345L143.19 96.7066C142.438 96.3519 141.894 95.6604 141.599 94.8956L137.98 96.4869C136.252 97.2466 136.428 99.7472 138.242 100.27L142.336 101.451C145.123 102.254 148.037 101.442 150.017 99.5028C149.26 99.3991 148.487 99.2051 147.701 98.8345Z" fill="#4B3F4E"/>
            <path d="M111.252 102.444C111.075 102.216 110.883 101.921 110.685 101.595C112.019 105.388 113.373 108.239 114.36 109.514C116.065 111.713 121.102 113.772 127.259 114.737C127.065 114.494 126.869 114.25 126.714 114.011C125.908 112.762 124.841 110.521 123.665 107.589C117.73 106.593 112.911 104.585 111.252 102.444Z" fill="#F5DCB4"/>
        </g>
    </g>
    <defs>
        <filter id="filter0_f_2001_293" x="12.8826" y="-29.5481" width="250.509" height="248.583" filterUnits="userSpaceOnUse" color-interpolation-filters="sRGB">
            <feFlood flood-opacity="0" result="BackgroundImageFix"/>
            <feBlend mode="normal" in="SourceGraphic" in2="BackgroundImageFix" result="shape"/>
            <feGaussianBlur stdDeviation="30" result="effect1_foregroundBlur_2001_293"/>
        </filter>
        <clipPath id="clip0_2001_293">
            <rect width="173" height="120" fill="white"/>
        </clipPath>
        <clipPath id="clip1_2001_293">
            <rect width="95.5219" height="95.5219" fill="white" transform="translate(75 54.4503) rotate(-23.7364)"/>
        </clipPath>
    </defs>
</svg>
