<svg width="173" height="120" viewBox="0 0 173 120" fill="none" xmlns="http://www.w3.org/2000/svg">
    <g clip-path="url(#clip0_265_1915)">
        <g filter="url(#filter0_f_265_1915)">
            <path fill-rule="evenodd" clip-rule="evenodd" d="M192.738 57.8234C213.066 83.7961 202.463 120.401 176.46 140.753C148.974 162.265 108.612 167.936 87.125 140.482C63.5597 110.373 70.1239 66.9953 100.269 43.4023C129.068 20.8625 170.225 29.0579 192.738 57.8234Z" fill="#987F89"/>
        </g>
        <g clip-path="url(#clip1_265_1915)">
            <path d="M181.408 115.691C182.519 118.573 145.709 134.192 128.12 138.119C124.729 138.88 122.622 139.006 122.386 138.391C122.157 137.795 123.632 136.603 126.344 135.017C141.585 126.219 180.291 112.782 181.41 115.692L181.408 115.691Z" fill="#451326"/>
            <path d="M162.332 97.7987C169.195 102.706 174.129 112.595 175.625 120.072C163.213 126.716 139.642 135.547 128.12 138.119C120.742 126.31 118.017 110.887 121.955 96.0121C122.686 93.1733 123.407 88.8763 124.958 86.3809C126.778 83.4501 131.688 82.2504 134.858 82.1233C138.935 81.9589 142.968 83.2146 146.577 85.1162C152.615 88.2976 156.518 92.7717 162.008 96.5199C162.141 96.6095 162.201 97.7052 162.332 97.7987Z" fill="#85646F"/>
            <path d="M175.625 120.072C171.216 122.431 164.643 125.444 157 128.502C157.019 128.133 157.055 127.756 157.093 127.38C155.499 128.214 153.883 129.038 152.291 129.871C154.35 127.687 155.494 124.797 155.488 121.796C154.597 122.884 153.689 123.978 152.783 125.072C153.226 121.517 153.69 117.957 154.136 114.403C152.96 115.538 151.769 116.681 150.596 117.817C150.212 116.267 150.186 114.649 150.52 113.087C150.854 111.524 151.54 110.059 152.524 108.801L146.835 111.231C148.786 107.372 151.823 104.167 155.571 102.011C153.909 101.302 152.229 100.597 150.56 99.8701C153.254 100.385 156.184 99.5205 158.149 97.6164C156.807 96.7438 155.489 95.8811 154.152 95.0258C155.799 95.1164 157.457 95.1853 159.096 95.2598C159.199 95.321 159.291 95.4053 159.397 95.4655C167.969 101.355 173.747 110.687 175.623 120.073L175.625 120.072Z" fill="#B5A0A7"/>
            <path d="M159.405 96.4549L167.017 97.7664L163.819 98.3659C166.786 99.0306 169.378 100.822 171.049 103.363L168.331 102.751C170.462 105.31 172.593 107.871 174.722 110.432L172.92 110.552L176.961 117.396L175.535 116.871L176.233 119.126C172.345 117.888 168.207 117.652 164.203 118.437" fill="#B5A0A7"/>
            <path d="M136.04 130.705C134.348 131.221 133.093 132.598 131.77 133.774C130.447 134.95 128.767 136.02 127.027 135.699C125.568 135.43 124.432 134.205 123.861 132.837C123.291 131.467 123.188 129.954 123.095 128.476L122.644 130.478L119.863 119.574L119.72 121.865C118.223 117.054 118.19 111.907 119.624 107.078L118.221 109.797C118.498 104.657 119.655 99.6018 121.643 94.8528C120.653 95.6221 119.662 96.3906 118.669 97.1582C121.976 92.4804 124.646 87.3837 126.61 82.0021C128.462 80.8992 130.999 80.7962 133.036 81.5064" fill="#85646F"/>
            <path d="M159.746 118.699C163.229 117.141 166.768 115.546 169.653 113.047C172.537 110.548 174.722 106.964 174.633 103.147C174.513 98.0382 170.293 93.7351 165.489 91.9936C160.684 90.2521 159.19 90.2277 154.11 90.7832C157.878 93.8636 160.221 96.3295 163.99 99.4113C158.864 102.521 156.494 109.504 158.668 115.09" fill="#734C59"/>
            <path d="M131.331 97.7419C138.277 97.2589 145.251 99.5726 150.55 103.787C151.31 104.393 152.628 106.191 153.598 106.316C156.105 106.637 157.665 100.453 160.514 98.6527C161.665 97.925 163.048 98.5012 163.989 99.4117C163.204 99.7264 162.359 103.479 162.339 103.83C162.23 105.667 162.491 107.505 162.737 109.32C163.204 112.78 163.781 118.398 160.041 120.329C156.04 122.394 150.988 120.89 146.709 121.385C142.93 121.823 139.099 122.854 135.381 122.051C131.426 121.197 128.02 118.151 126.731 114.315" fill="#85646F"/>
            <path d="M146.732 121.57C142.963 122.008 139.086 123.041 135.342 122.233C131.316 121.363 127.868 118.279 126.555 114.374C126.54 114.329 126.543 114.279 126.564 114.236C126.584 114.192 126.621 114.158 126.665 114.141L126.672 114.138C126.771 114.105 126.875 114.157 126.908 114.256C128.18 118.039 131.519 121.026 135.421 121.868C139.099 122.665 142.992 121.624 146.688 121.2C151.13 120.688 159.703 122.527 161.937 118.317C162.045 118.099 162.383 118.275 162.265 118.492C159.884 122.973 151.219 121.054 146.732 121.57ZM151.28 104.763C150.963 104.431 150.665 104.118 150.434 103.933C144.897 99.5289 137.875 97.4722 131.345 97.9294C131.108 97.9444 131.062 97.5924 131.318 97.5572C138.062 97.0873 145.159 99.2587 150.665 103.643C150.916 103.844 151.225 104.164 151.55 104.506C153.452 106.502 154.275 107.51 157.259 102.382C158.339 100.526 159.562 99.1118 161.708 98.0104C161.91 97.8907 162.106 98.2224 161.877 98.3413C160.32 99.129 159.002 100.317 158.056 101.783C157.924 101.981 157.765 102.255 157.581 102.569C154.45 107.939 153.37 106.956 151.28 104.763ZM146.21 112.875C146.334 113.385 146.562 113.864 146.878 114.284C147.194 114.703 147.592 115.054 148.047 115.315C147.431 113.699 147.078 112.972 147.149 112.341M149.853 114.78C150.286 115.81 151.258 116.597 152.357 116.806C151.816 116.121 151.348 115.38 150.961 114.597M153.696 112.179C154.054 112.553 154.519 112.808 155.027 112.91C155.535 113.012 156.062 112.956 156.537 112.749C155.722 112.296 154.915 111.829 154.115 111.35" fill="#451326"/>
            <path d="M154.109 107.588C153.489 109.183 153.941 111.136 155.198 112.296C154.978 112.706 154.43 112.856 153.981 112.731C152.957 112.448 151.596 110.468 151.933 108.227C151.363 109.121 150.999 110.132 150.869 111.185C150.739 112.237 150.846 113.306 151.182 114.312C151.338 114.768 151.513 115.349 151.151 115.667C150.922 115.869 150.557 115.848 150.293 115.694C150.03 115.539 149.848 115.278 149.692 115.014C149.128 114.043 148.803 112.951 148.745 111.829C148.686 110.707 148.894 109.587 149.354 108.561C148.668 109.385 148.167 110.478 148.083 111.546C148.05 111.995 148.07 112.459 147.908 112.879C147.746 113.299 147.327 113.667 146.884 113.584C146.425 113.499 146.179 113 146.047 112.551C144.327 106.686 150.818 101.595 152.162 103.174C152.459 103.521 152.431 104.107 152.812 104.358C153.23 104.632 153.774 104.294 154.274 104.282C154.509 104.281 154.738 104.353 154.93 104.488C155.122 104.623 155.267 104.814 155.346 105.035C155.647 105.93 154.422 106.785 154.109 107.588Z" fill="#FED8BE"/>
            <path d="M148.889 109.262C149.187 107.699 150.038 106.295 151.286 105.307C151.48 105.154 151.708 105.447 151.515 105.599C150.338 106.531 149.536 107.856 149.254 109.331C149.208 109.571 148.844 109.506 148.889 109.262ZM151.647 108.607C151.62 108.057 151.711 107.507 151.913 106.995C152.115 106.482 152.424 106.019 152.82 105.635C153.009 105.463 153.252 105.74 153.078 105.904C152.72 106.249 152.441 106.667 152.258 107.13C152.075 107.592 151.994 108.088 152.018 108.585C152.033 108.828 151.664 108.855 151.647 108.607Z" fill="#BE9A94"/>
            <path d="M128.814 47.812C138.48 47.6454 146.297 54.0773 148.879 62.6582C151.97 60.6062 153.835 56.8793 154.028 53.1397C154.432 45.2238 147.762 36.1409 140.193 34.7004C136.179 33.9374 131.592 35.5211 129.58 39.0778C128.1 41.6974 128.158 44.8765 128.814 47.8134L128.814 47.812Z" fill="#734C59"/>
            <path d="M134.744 48.5535C140.934 50.3338 145.608 54.854 148 60.2759C153.673 54.7071 152.357 44.0787 142.104 38.2132C140.583 37.3212 138.752 36.5723 137.031 36.926C135.091 37.3132 133.575 39.0162 133.071 40.9462C132.393 43.5621 133.341 46.219 134.744 48.5535Z" fill="#FED8BE"/>
            <path d="M134.744 48.5535C140.934 50.3338 145.608 54.854 148 60.2759C148.434 59.8475 148.834 59.3865 149.196 58.8969C149.051 58.3227 148.852 57.7532 148.628 57.2092C146.178 51.3551 142.507 49.4471 139.989 46.8914C138.665 45.5468 137.525 43.9094 137.24 42.042C137.114 41.1158 137.203 40.1729 137.501 39.2867C137.798 38.4005 138.296 37.595 138.956 36.9328C138.32 36.811 137.667 36.8086 137.031 36.926C135.091 37.3132 133.575 39.0162 133.071 40.9462C132.393 43.5621 133.341 46.219 134.744 48.5535Z" fill="#E5C0AE"/>
            <path d="M162.294 75.6015L164.665 83.7174L160.98 86.4941L156.795 76.9489" fill="#D2D2D2"/>
            <path d="M159.16 79.9275L161.207 88.1668C159.26 89.3647 154.485 90.1577 154.956 89.8369C153.477 86.6869 152.411 85.4639 150.932 82.3145" fill="#EAEAEA"/>
            <path d="M107.688 85.3399C110.629 92.5299 118.706 97.0549 129.664 94.7256C135.812 93.42 141.285 90.0145 144.499 84.5425C144.632 84.3169 147.331 84.364 147.717 84.3225C151.296 83.93 154.833 83.05 158.194 81.7173C160.096 80.9621 162.617 80.1132 164.061 78.6211C165.502 77.1328 166.995 75.55 168.285 73.9106C168.653 73.4409 169.018 72.9374 169.126 72.3513C169.395 70.8997 168.061 69.686 166.81 68.9143C161.669 65.7346 155.451 64.4174 149.441 65.0367C148.322 58.3659 143.553 52.0444 136.962 49.316C126.027 44.7996 113.403 51.1541 111.259 59.0135C108.853 56.2053 105.839 53.9592 102.324 52.8762C97.0763 51.2569 90.6989 52.7535 87.5512 57.2583C85.5185 60.1664 85.0161 63.8977 85.2477 67.4391C86.187 82.2625 98.563 89.5878 107.688 85.3399Z" fill="#A18892"/>
            <path d="M134.806 73.1202C130.711 74.7178 126.049 71.15 124.601 66.3665L137.401 61.3724C139.766 65.8296 138.869 71.5353 134.806 73.1202Z" fill="white"/>
            <path d="M148.809 65.1083C146.603 65.3821 144.439 65.9248 142.365 66.7241C139.838 66.0858 137.701 63.8536 137.094 61.4605L149.877 56.4459C151.439 59.1974 151.133 62.8319 148.809 65.1083Z" fill="white"/>
            <path d="M148.809 65.1083C146.603 65.3821 144.439 65.9248 142.365 66.7241C141.982 66.6265 141.61 66.488 141.257 66.3108C143.364 64.7015 146.619 65.2435 148.399 63.3475C149.28 62.4228 149.604 61.0778 149.53 59.7993C149.484 58.7812 149.213 57.7914 148.905 56.8267L149.877 56.4459C151.439 59.1974 151.133 62.8319 148.809 65.1083Z" fill="#EAEAEA"/>
            <path d="M121.624 67.7364C121.397 67.8227 121.26 67.4796 121.491 67.3884L152.668 55.1483C152.897 55.0615 153.032 55.4051 152.802 55.4957L121.624 67.7364Z" fill="#451326"/>
            <path d="M141.875 63.2096C140.283 63.834 138.513 62.4981 138.519 60.8642L142.636 59.2493C143.79 60.4068 143.502 62.5714 141.875 63.2096ZM128.895 68.3055C127.268 68.9451 125.519 67.5819 125.524 65.9659L129.656 64.3452C130.81 65.5027 130.524 67.6668 128.895 68.3055Z" fill="#451326"/>
            <path d="M111.379 58.5999L114.593 64.2638C114.197 59.2521 115.895 53.989 119.552 50.1031C116.044 51.8736 112.636 54.8763 111.379 58.5999Z" fill="#734C59" fill-opacity="0.32549"/>
            <path d="M107.754 85.5139C107.531 85.5986 107.392 85.2707 107.609 85.1707C110.751 83.7208 113.159 81.054 114.049 78.0338C114.119 77.8018 114.476 77.9 114.408 78.1395C113.472 81.3091 111.052 83.9934 107.766 85.5091L107.754 85.5139Z" fill="#451326"/>
            <path d="M111.259 59.0135C112.456 60.4003 113.498 61.9268 114.38 63.5114L111.259 59.0135Z" fill="#451326" fill-opacity="0.313726"/>
            <path d="M96.7894 78.5152C98.9447 80.2861 101.602 81.675 104.353 81.8299C107.055 81.9844 109.818 80.9892 111.785 79.1146C113.631 77.3578 114.881 74.4239 114.98 71.8181C111.659 68.5196 108.293 65.2367 104.835 62.0543C103.3 60.6416 101.72 59.2097 99.8023 58.3489C89.8019 53.8594 86.028 69.658 96.7894 78.5152ZM174.808 66.6755C176.77 71.0977 173.591 76.2279 168.476 76.2183L168.462 76.2236C167.581 76.1948 166.712 75.9996 165.903 75.6483C160.582 73.3877 160.364 65.6382 165.863 63.1964C167.511 62.4766 169.377 62.4386 171.054 63.0908C172.73 63.743 174.08 65.0323 174.808 66.6769L174.808 66.6755Z" fill="#FED8BE"/>
            <path d="M125.487 48.1342C126.293 47.0968 127.325 46.257 128.504 45.6786C129.684 45.1002 130.98 44.7985 132.294 44.7965C129.339 43.5462 125.663 44.2463 123.378 46.4985L126.119 40.8992C122.717 42.1582 119.963 45.052 118.873 48.5114C117.212 46.9382 115.064 45.9795 112.784 45.7941L115.197 51.5601C112.884 50.6555 110.043 51.3344 108.385 53.1838C112.64 52.477 117.224 54.5986 119.44 58.3" fill="#A18892"/>
            <path d="M96.7894 78.5152C97.8644 79.4061 99.0452 80.1611 100.305 80.7629C98.9356 79.4913 97.4961 78.283 96.2618 76.8851C94.676 75.049 93.4301 72.6948 93.689 70.267C94.0032 67.3019 96.5932 64.8749 99.5115 64.1904C103.269 63.33 107.168 64.8632 110.231 67.1558C108.453 65.433 106.654 63.7324 104.835 62.0543C103.3 60.6416 101.72 59.2097 99.8023 58.3489C89.8019 53.8594 86.028 69.658 96.7894 78.5152Z" fill="#E5C0AE"/>
            <path d="M149.458 65.2198C148.439 65.3877 144.716 65.6674 140.551 67.7171C140.361 67.8433 140.149 67.4986 140.387 67.384C142.848 66.1662 146.015 65.2055 149.419 64.8491C149.468 64.8442 149.517 64.8589 149.556 64.8899C149.594 64.921 149.619 64.9659 149.624 65.0149C149.629 65.064 149.614 65.113 149.583 65.1514C149.552 65.1897 149.507 65.2143 149.458 65.2198ZM155.519 82.9978C151.224 84.1644 147.155 84.3229 142.56 85.0905C138.155 85.8257 133.801 88.3965 131.189 91.802C131.044 91.9975 130.743 91.7725 130.895 91.5743C133.561 88.1006 138.006 85.4699 142.499 84.7235C147.018 83.9671 151.144 83.7996 155.423 82.6375C158.925 81.6831 163.639 79.6911 166.16 75.5858C166.284 75.3761 166.607 75.5685 166.477 75.779C164.138 79.5907 159.832 81.8338 155.52 82.9959L155.519 82.9978ZM145.007 48.9215C141.226 50.4904 140.734 57.4999 138.868 57.4146C138.344 57.3907 137.936 56.8685 138 56.3441C138.098 55.5548 138.92 54.7927 139.329 54.1337C141.363 50.8669 140.484 50.2465 142.904 49.3726C143.584 49.1298 144.285 48.8823 145.007 48.9215ZM117.822 61.4994C122.589 57.7953 131.603 62.3254 132.864 59.8511C133.208 59.1783 132.841 58.2919 132.138 57.9984C131.077 57.5577 129.536 58.048 128.415 58.0905C122.745 58.3176 122.734 56.749 119.891 59.1813C119.1 59.8615 118.289 60.5651 117.822 61.4994Z" fill="#451326"/>
            <path opacity="0.52" d="M125.184 123.337C124.816 123.477 124.408 123.465 124.049 123.305C123.689 123.145 123.408 122.849 123.266 122.483C120.703 115.852 120.488 108.544 122.655 101.775C122.776 101.398 123.041 101.086 123.392 100.905C123.743 100.724 124.152 100.691 124.528 100.811C124.904 100.932 125.217 101.197 125.397 101.548C125.578 101.899 125.612 102.308 125.491 102.684C123.532 108.806 123.727 115.413 126.044 121.408C126.186 121.777 126.176 122.186 126.016 122.547C125.857 122.908 125.56 123.191 125.192 123.334L125.184 123.337Z" fill="white"/>
            <path d="M170.018 70.0969C170.525 72.0267 170.585 74.0469 170.193 76.0034C169.632 76.1493 169.055 76.2217 168.475 76.2189L168.461 76.2242C167.58 76.1951 166.712 75.9997 165.903 75.6484C166.517 74.4988 166.652 73.1532 166.28 71.9044C166.041 71.189 165.65 70.5124 165.442 69.7854C165.23 69.0566 165.225 68.2013 165.693 67.6185C166.347 66.8154 167.657 66.8555 168.485 67.4809C169.322 68.0898 169.742 69.1073 170.018 70.0969Z" fill="#E5C0AE"/>
            <path d="M144.466 79.159L147.634 74.2942C147.759 74.0872 148.083 74.2891 147.943 74.4952L144.776 79.3629C144.648 79.5709 144.327 79.3646 144.466 79.159ZM154.281 80.5736L153.38 74.161C153.346 73.922 153.712 73.8624 153.749 74.1084L154.65 80.521C154.684 80.7694 154.313 80.815 154.281 80.5736ZM162.285 77.9453L157.79 72.8039C157.627 72.6175 157.91 72.3775 158.071 72.5584L162.566 77.6984C162.729 77.8848 162.446 78.1281 162.285 77.9453Z" fill="#734C59"/>
        </g>
    </g>
    <defs>
        <filter id="filter0_f_265_1915" x="12.8826" y="-29.5481" width="250.509" height="248.583" filterUnits="userSpaceOnUse" color-interpolation-filters="sRGB">
            <feFlood flood-opacity="0" result="BackgroundImageFix"/>
            <feBlend mode="normal" in="SourceGraphic" in2="BackgroundImageFix" result="shape"/>
            <feGaussianBlur stdDeviation="30" result="effect1_foregroundBlur_265_1915"/>
        </filter>
        <clipPath id="clip0_265_1915">
            <rect width="173" height="120" fill="white"/>
        </clipPath>
        <clipPath id="clip1_265_1915">
            <rect width="111.689" height="111.689" fill="white" transform="translate(64.3463 53.051) rotate(-20.8235)"/>
        </clipPath>
    </defs>
</svg>
