<svg width="80" height="80" viewBox="0 0 80 80" fill="none" xmlns="http://www.w3.org/2000/svg">
<g clip-path="url(#clip0_2001_69)">
<path d="M69.4218 17.0481C63.4875 12.5973 59.9808 14.2159 53.2373 17.0481C51.349 14.2159 48.3818 13.9461 45.145 15.5638C43.7962 14.6197 42.8522 13.2709 43.2568 10.7084C43.6615 8.14594 47.5726 5.04391 47.5726 5.04391C47.5726 5.04391 47.4378 4.23453 45.4147 2.48141C39.2106 4.63938 33.9506 14.7547 33.9506 14.7547C33.9506 14.7547 33.6809 15.5639 33.1414 15.4291C31.1184 13.9447 27.6117 14.485 24.3748 17.0475C19.1148 13.9455 15.4732 13.8106 9.53887 18.1266C3.6045 22.4425 -0.711596 33.6373 0.097623 44.2922C0.906842 54.947 6.30169 66.4111 13.9893 72.8848C21.677 79.3586 27.0718 77.4705 31.6575 74.7731C35.9734 78.8192 42.8518 77.7403 45.4143 74.6383C45.4143 74.6383 46.3586 75.987 48.3815 76.9311C52.4284 78.2798 58.7667 77.4705 65.78 72.75C72.7933 68.0295 79.2672 54.003 79.9415 42.2691C80.6159 30.5352 75.3559 21.4989 69.4218 17.0481ZM64.0267 29.4563C64.0267 29.4563 60.6548 44.5619 57.4173 44.8313C52.9739 45.2014 48.5158 42.1338 44.0651 40.9198C45.819 40.2461 64.0267 29.4563 64.0267 29.4563ZM33.9503 40.5156C28.9601 42.2689 25.4534 44.8316 22.7561 45.2361C20.0587 45.6406 16.417 37.2788 15.7428 29.4561C18.575 32.4234 31.3878 39.4375 33.9503 40.5156ZM58.6318 62.6347L54.7206 60.3419L46.4934 67.0855L38.9406 62.365L31.9273 66.2762L25.4531 59.3978L21.407 63.3091L12.5054 51.1706C12.9101 51.4403 21.5418 57.0564 21.5418 57.0564L27.8807 54.0892L32.7362 59.9966L39.4798 54.8716L45.2792 59.9966L51.6183 54.0892L56.6093 57.3261L66.9945 51.5753L58.6318 62.6347ZM58.6239 19.663C63.0487 16.7395 70.6508 18.8309 74.0892 31.9008C69.3823 23.5625 65.2134 19.125 58.6239 19.663Z" fill="white"/>
</g>
<defs>
<clipPath id="clip0_2001_69">
<rect width="80" height="80" fill="white"/>
</clipPath>
</defs>
</svg>
