<svg width="80" height="80" viewBox="0 0 80 80" fill="none" xmlns="http://www.w3.org/2000/svg">
<path fill-rule="evenodd" clip-rule="evenodd" d="M39.9613 2.49707C19.2892 2.49707 2.50513 19.2812 2.50513 39.9532C2.50513 60.6253 19.2892 77.4094 39.9613 77.4094C60.6334 77.4094 77.4175 60.6253 77.4175 39.9532C77.4175 19.2812 60.6334 2.49707 39.9613 2.49707ZM39.9613 8.20793C22.4404 8.20793 8.21599 22.4323 8.21599 39.9532C8.21599 57.4741 22.4404 71.6986 39.9613 71.6986C57.4822 71.6986 71.7066 57.4741 71.7066 39.9532C71.7066 22.4323 57.4822 8.20793 39.9613 8.20793ZM39.9613 13.2021C54.7254 13.2021 66.7125 25.1892 66.7125 39.9532C66.7125 54.7173 54.7254 66.7044 39.9613 66.7044C25.1973 66.7044 13.2101 54.7173 13.2101 39.9532C13.2101 25.1892 25.1973 13.2021 39.9613 13.2021ZM41.2098 23.7222H36.2157V21.8496C36.2157 20.4713 35.0969 19.3522 33.7186 19.3522C32.3403 19.3522 31.2215 20.471 31.2215 21.8496V23.7222H29.3489C27.9706 23.7222 26.8515 24.841 26.8515 26.2193C26.8515 27.5976 27.9703 28.7164 29.3486 28.7164H31.2215V51.1901H29.3489C27.9706 51.1901 26.8515 52.3089 26.8515 53.6872C26.8515 55.0655 27.9703 56.1843 29.3486 56.1843H31.2215V58.0569C31.2215 59.4352 32.3403 60.5543 33.7186 60.5543C35.0969 60.5543 36.2157 59.4355 36.2157 58.0572V56.1843H41.2098V58.0569C41.2098 59.4352 42.3286 60.5543 43.7069 60.5543C45.0852 60.5543 46.204 59.4355 46.204 58.0572V56.0917C48.228 55.8097 50.1171 54.892 51.5802 53.461C53.3806 51.7007 54.3883 49.3112 54.3883 46.8213C54.3883 44.3314 53.3806 41.9398 51.5802 40.1792C51.5015 40.1021 51.4216 40.0268 51.3405 39.9532C51.4216 39.8797 51.5015 39.8044 51.5802 39.7273C53.3806 37.9667 54.3883 35.5772 54.3883 33.0876C54.3883 30.598 53.3806 28.2058 51.5802 26.4452C50.1168 25.0145 48.228 24.0968 46.204 23.8145V21.8496C46.204 20.4713 45.0852 19.3525 43.7069 19.3525C42.3286 19.3525 41.2098 20.471 41.2098 21.8496V23.7222ZM44.8692 42.4503C46.0755 42.4503 47.2353 42.9147 48.088 43.7501C48.9222 44.5642 49.3941 45.6692 49.3941 46.8213C49.3941 47.9739 48.9207 49.0762 48.088 49.8903C47.2353 50.7257 46.0755 51.1901 44.8692 51.1901H36.2157V42.4503H44.8692ZM36.2157 37.4562V28.7164H44.8692C46.0755 28.7164 47.2353 29.1808 48.088 30.0162C48.9222 30.8303 49.3941 31.9353 49.3941 33.0873C49.3941 34.24 48.9207 35.3423 48.088 36.1564C47.2353 36.9917 46.0755 37.4562 44.8692 37.4562H36.2157Z" fill="white"/>
</svg>
