<svg width="173" height="120" viewBox="0 0 173 120" fill="none" xmlns="http://www.w3.org/2000/svg">
    <g clip-path="url(#clip0_2001_194)">
        <g filter="url(#filter0_f_2001_194)">
            <path fill-rule="evenodd" clip-rule="evenodd" d="M192.738 57.8234C213.066 83.7961 202.463 120.401 176.46 140.753C148.974 162.265 108.612 167.936 87.125 140.482C63.5597 110.373 70.1239 66.9953 100.269 43.4023C129.068 20.8625 170.225 29.0579 192.738 57.8234Z" fill="#FFCF00"/>
        </g>
        <g clip-path="url(#clip1_2001_194)">
            <path d="M114.19 48.9557C87.4963 61.2097 75.6712 92.6435 87.783 119.027C99.8949 145.411 131.44 156.935 158.134 144.681C184.827 132.427 196.653 100.993 184.541 74.6092C172.405 48.1738 140.832 36.7253 114.19 48.9557Z" fill="#E5A100"/>
            <path d="M113.076 46.529C87.0536 58.4749 75.5509 89.3855 87.5205 115.46C99.4901 141.534 130.377 152.985 156.451 141.015C182.525 129.045 193.976 98.1584 182.006 72.0844C169.985 46.0341 139.098 34.5831 113.076 46.529Z" fill="#FFCF00"/>
            <path d="M116.75 54.5319C95.1161 64.4632 85.5922 90.1521 95.5234 111.786C105.455 133.419 131.144 142.943 152.777 133.012C174.411 123.081 183.935 97.392 174.004 75.7583C164.072 54.1246 138.383 44.6007 116.75 54.5319ZM150.976 129.088C131.511 138.024 108.383 129.449 99.4474 109.984C90.5117 90.5192 99.086 67.3917 118.551 58.456C138.016 49.5202 161.144 58.0945 170.08 77.5597C179.015 97.0248 170.441 120.152 150.976 129.088Z" fill="#E5A100"/>
            <path d="M155.244 141.382C155.037 141.476 154.784 141.468 154.633 141.412C154.459 141.305 154.284 141.197 154.241 140.967L151.778 134.784C151.663 134.399 151.775 134.097 152.136 133.931C152.291 133.86 152.47 133.841 152.644 133.948C152.795 134.004 152.918 134.135 152.965 134.239L155.659 140.378C155.825 140.74 155.657 141.192 155.244 141.382ZM165.04 135.759C164.782 135.878 164.429 135.79 164.235 135.504L160.354 129.909C160.283 129.754 160.236 129.651 160.24 129.524C160.244 129.397 160.375 129.274 160.455 129.175L160.558 129.127C160.816 129.009 161.042 129.093 161.189 129.276L165.356 134.676C165.503 134.859 165.522 135.038 165.49 135.24C165.458 135.443 165.35 135.617 165.219 135.74L165.116 135.787C165.144 135.712 165.092 135.735 165.04 135.759ZM144.329 144.704L144.174 144.775C143.944 144.818 143.742 144.786 143.544 144.627C143.369 144.52 143.275 144.313 143.279 144.186L142.182 137.438C142.138 137.208 142.326 136.935 142.532 136.84L142.635 136.793C142.917 136.726 143.191 136.913 143.281 137.246L144.74 143.828C144.83 144.162 144.639 144.562 144.329 144.704ZM173.508 128.059C173.301 128.154 173.024 128.093 172.826 127.934L167.792 123.369C167.57 123.158 167.555 122.853 167.742 122.579L167.948 122.484C168.155 122.39 168.357 122.422 168.531 122.529L173.752 126.821C173.951 126.98 174.022 127.135 174.065 127.365C174.084 127.544 174.028 127.695 173.949 127.794L173.818 127.917C173.639 127.936 173.611 128.011 173.508 128.059ZM132.864 145.466C132.761 145.514 132.658 145.561 132.531 145.557C132.329 145.525 132.178 145.469 131.98 145.31C131.833 145.127 131.762 144.972 131.794 144.77L132.3 137.974C132.285 137.668 132.543 137.55 132.595 137.526C132.698 137.479 132.801 137.431 132.877 137.459C133.055 137.44 133.154 137.519 133.277 137.65C133.376 137.73 133.372 137.857 133.419 137.96L133.294 144.769C133.31 145.075 133.123 145.348 132.864 145.466ZM180.177 118.621C179.919 118.739 179.665 118.731 179.416 118.595L173.554 115.223C173.304 115.087 173.214 114.754 173.349 114.504C173.405 114.353 173.508 114.306 173.611 114.258C173.766 114.187 173.945 114.168 174.119 114.275L180.144 117.323C180.319 117.431 180.441 117.562 180.536 117.768C180.631 117.975 180.599 118.177 180.491 118.352L180.464 118.427C180.332 118.55 180.229 118.597 180.177 118.621ZM121.559 143.717C121.404 143.788 121.226 143.808 121.075 143.752C120.647 143.636 120.382 143.195 120.498 142.767L122.467 136.299C122.523 136.148 122.654 136.026 122.809 135.955C122.912 135.907 123.091 135.888 123.166 135.916C123.444 135.976 123.69 136.238 123.601 136.591L121.985 143.147C121.925 143.424 121.766 143.623 121.559 143.717ZM184.346 107.955C184.191 108.027 184.012 108.046 183.786 107.962L177.319 105.993C177.017 105.881 176.875 105.571 176.935 105.294C176.991 105.143 177.122 105.02 177.277 104.949C177.38 104.902 177.507 104.906 177.634 104.91L184.19 106.527C184.392 106.559 184.59 106.718 184.661 106.873C184.709 106.976 184.804 107.183 184.72 107.409L184.692 107.484L184.716 107.536C184.632 107.762 184.501 107.884 184.346 107.955ZM111.025 139.426C110.819 139.521 110.565 139.513 110.339 139.429C110.164 139.321 110.018 139.139 109.975 138.908C109.927 138.805 109.96 138.603 110.067 138.428L113.468 132.491C113.496 132.416 113.627 132.293 113.73 132.246C113.885 132.175 114.115 132.132 114.29 132.239C114.615 132.402 114.63 132.708 114.518 133.009L111.47 139.034C111.311 139.232 111.18 139.355 111.025 139.426ZM186.119 96.702C186.015 96.7494 185.888 96.7452 185.785 96.7926L178.989 96.2867C178.608 96.274 178.466 95.9642 178.451 95.6587L178.455 95.5317L178.431 95.4801C178.487 95.3294 178.595 95.155 178.749 95.0839C178.801 95.0602 178.853 95.0365 178.98 95.0407L185.788 95.1657C185.991 95.1979 186.217 95.2817 186.339 95.4129C186.462 95.5441 186.533 95.699 186.501 95.9013L186.497 96.0282L186.521 96.0799C186.484 96.4091 186.325 96.6072 186.119 96.702ZM101.503 132.983C101.245 133.101 100.968 133.041 100.746 132.83C100.572 132.723 100.5 132.568 100.457 132.338C100.438 132.159 100.522 131.933 100.629 131.759L105.195 126.725C105.246 126.701 105.326 126.602 105.377 126.578C105.584 126.484 105.786 126.516 105.984 126.675C106.281 126.914 106.245 127.243 106.062 127.389L101.77 132.61C101.686 132.836 101.607 132.935 101.503 132.983ZM185.356 85.2371L185.201 85.3082L178.482 86.3301C178.2 86.397 177.903 86.1583 177.836 85.8764L177.812 85.8248C177.82 85.5709 177.904 85.3449 178.162 85.2263L178.266 85.1789L184.895 83.8235C185.125 83.7804 185.327 83.8125 185.502 83.92C185.763 84.0812 185.747 84.1824 185.818 84.3373C185.829 84.7698 185.666 85.0949 185.356 85.2371ZM93.8268 124.567C93.517 124.709 93.164 124.621 92.9422 124.41L92.8711 124.255C92.7247 124.073 92.7052 123.894 92.7611 123.743C92.7932 123.541 92.9007 123.367 93.0836 123.22L98.73 119.315L98.8332 119.268C99.0398 119.173 99.2658 119.257 99.3885 119.388L99.4596 119.543C99.6298 119.778 99.5934 120.107 99.3589 120.277L94.0096 124.421C93.9817 124.496 93.8784 124.543 93.8268 124.567ZM175.799 76.8095C175.414 76.9238 175.112 76.8121 174.946 76.4506C174.781 76.0892 174.92 75.7125 175.282 75.5466L181.323 72.7735C181.529 72.6786 181.731 72.7108 181.934 72.743C182.108 72.8504 182.231 72.9816 182.302 73.1365L182.42 73.3947C182.515 73.6012 182.511 73.7282 182.483 73.8035C182.399 74.0295 182.24 74.2276 182.034 74.3224L175.799 76.8095ZM88.0816 114.639C87.7718 114.782 87.3715 114.59 87.2056 114.229C86.9643 113.839 87.1039 113.463 87.4654 113.297L93.855 110.739C94.0615 110.644 94.3629 110.756 94.5051 111.065C94.5999 111.272 94.4603 111.649 94.2537 111.743L88.0816 114.639ZM170.853 68.0778C170.595 68.1964 170.265 68.16 170.072 67.8739C169.949 67.7427 169.929 67.5641 169.934 67.4371C169.938 67.3102 170.017 67.2111 170.149 67.0884L175.549 62.9212L175.704 62.8501C176.014 62.7078 176.367 62.7959 176.537 63.0303L176.585 63.1336C176.878 63.4992 176.71 63.9512 176.396 64.2204L170.853 68.0778ZM91.4161 102.294L91.3128 102.341L84.632 103.72C84.2231 103.783 83.8507 103.516 83.788 103.108L83.7169 102.953C83.7017 102.647 83.8887 102.374 84.1469 102.255C84.1985 102.232 84.2502 102.208 84.3255 102.236L91.1486 101.166C91.2755 101.171 91.4025 101.175 91.5015 101.254C91.5769 101.282 91.6996 101.414 91.6954 101.541L91.7665 101.695C91.7817 102.001 91.6743 102.175 91.4161 102.294ZM163.928 60.7547C163.773 60.8259 163.571 60.7937 163.373 60.6346C163.274 60.555 163.202 60.4001 163.131 60.2452C163.112 60.0666 163.168 59.916 163.247 59.8169L167.516 54.5443C167.595 54.4453 167.675 54.3462 167.778 54.2988C168.036 54.1803 168.314 54.2404 168.512 54.3995C168.635 54.5307 168.781 54.7135 168.773 54.9675C168.792 55.1461 168.708 55.3721 168.577 55.4948L164.059 60.632L164.031 60.7073L163.928 60.7547ZM90.7022 92.4321C90.6505 92.4558 90.5473 92.5032 90.4719 92.4753L83.7148 92.3266C83.5125 92.2944 83.2865 92.2106 83.1638 92.0795C83.0411 91.9483 82.9462 91.7417 82.9784 91.5394L82.9826 91.4125L82.9589 91.3608C83.019 91.0832 83.2018 90.9368 83.4084 90.842C83.5116 90.7945 83.6386 90.7988 83.7656 90.803L90.5853 91.3605C90.7876 91.3927 90.8867 91.4723 90.9857 91.5518C91.1084 91.683 91.1042 91.81 91.1237 91.9886C91.0678 92.1392 90.9087 92.3373 90.7022 92.4321ZM155.853 55.1474C155.698 55.2185 155.495 55.1864 155.345 55.1305C155.02 54.9672 154.953 54.6853 155.065 54.384L158.089 48.3073C158.144 48.1566 158.276 48.0339 158.482 47.9391C158.585 47.8917 158.867 47.8248 159.117 47.9602C159.291 48.0677 159.414 48.1989 159.509 48.4054C159.604 48.6119 159.572 48.8142 159.412 49.0123L156.091 54.8503C156.035 55.001 155.956 55.1 155.853 55.1474ZM92.2736 82.6464C92.1704 82.6938 92.0671 82.7412 91.9164 82.6854L85.337 81.0173C84.9087 80.9013 84.6675 80.512 84.7834 80.0837C84.8156 79.8814 84.9984 79.735 85.2049 79.6401C85.3598 79.569 85.5384 79.5496 85.6891 79.6054L92.2321 81.6028C92.3828 81.6586 92.4818 81.7382 92.5529 81.8931C92.624 82.048 92.6198 82.1749 92.6156 82.3019C92.5597 82.4526 92.4285 82.5753 92.2736 82.6464ZM146.595 51.4582C146.492 51.5056 146.365 51.5014 146.238 51.4971C145.885 51.4091 145.766 51.151 145.803 50.8217L147.419 44.266C147.503 44.04 147.662 43.8419 147.869 43.7471C147.972 43.6997 148.127 43.6286 148.353 43.7124C148.555 43.7445 148.678 43.8757 148.773 44.0822C148.867 44.2888 148.887 44.4674 148.831 44.618L146.885 51.1374C146.881 51.2643 146.75 51.3871 146.595 51.4582ZM95.9112 73.4125C95.7563 73.4836 95.5777 73.5031 95.4271 73.4472L89.402 70.3994C89.2277 70.2919 89.0812 70.1091 89.0101 69.9542C88.9627 69.851 88.9195 69.6207 89.0786 69.4227C89.1861 69.2483 89.3173 69.1256 89.369 69.1018C89.5755 69.007 89.881 68.9918 90.1308 69.1272L95.9688 72.4484C96.2185 72.5838 96.309 72.9173 96.1973 73.2186C96.1457 73.2423 96.0661 73.3414 95.9112 73.4125ZM136.857 49.99C136.805 50.0137 136.702 50.0611 136.626 50.0332C136.499 50.0289 136.349 49.9731 136.226 49.8419C136.103 49.7107 136.056 49.6074 136.088 49.4051L136.237 42.648C136.222 42.3425 136.409 42.0691 136.667 41.9505C136.77 41.9031 136.873 41.8557 137 41.86C137.203 41.8921 137.353 41.948 137.551 42.1071C137.698 42.2899 137.769 42.4448 137.737 42.6471L137.31 49.3441C137.147 49.6692 137.012 49.9189 136.857 49.99ZM101.471 65.234C101.265 65.3288 101.062 65.2967 100.864 65.1375L95.5916 60.8692C95.4173 60.7617 95.3225 60.5551 95.303 60.3766C95.2835 60.198 95.3673 59.972 95.4748 59.7976C95.5264 59.7739 95.606 59.6748 95.7092 59.6274C95.9674 59.5089 96.2967 59.5453 96.5184 59.7561L101.552 64.3215C101.774 64.5323 101.789 64.8379 101.602 65.1113C101.626 65.1629 101.574 65.1866 101.471 65.234ZM126.971 50.6523L126.816 50.7234C126.638 50.7429 126.487 50.687 126.336 50.6312C126.237 50.5516 126.138 50.472 126.119 50.2934L124.688 43.6363C124.597 43.3028 124.789 42.9024 125.099 42.7602L125.253 42.6891C125.662 42.6264 126.035 42.893 126.173 43.3298L127.195 50.0496C127.285 50.3831 127.126 50.5812 126.971 50.6523ZM108.865 58.4639C108.607 58.5824 108.278 58.546 108.183 58.3395L104.04 52.9902C103.893 52.8074 103.85 52.5772 103.882 52.3749C103.914 52.1726 104.045 52.0498 104.177 51.9271L104.332 51.856C104.641 51.7138 105.07 51.8297 105.287 52.1674L109.145 57.7106C109.216 57.8655 109.263 57.9687 109.259 58.0957C109.255 58.2227 109.124 58.3454 109.044 58.4444C108.917 58.4402 108.865 58.4639 108.865 58.4639ZM117.442 53.589C117.081 53.7549 116.807 53.5678 116.689 53.3097L113.868 47.1655C113.679 46.7524 113.921 46.3284 114.231 46.1861L114.283 46.1624C114.644 45.9965 115.096 46.1641 115.286 46.5772L117.797 52.8635C117.892 53.0701 117.752 53.4467 117.442 53.589Z" fill="#FFE500"/>
            <path d="M165.27 124.276C161.612 128.019 157.162 131.124 152.308 133.352C140.33 138.851 125.525 139.146 112.107 130.616C109.043 128.709 107.736 127.496 107.736 127.496L108.093 122.144C108.069 122.092 108.045 122.041 108.097 122.017C119.261 132.583 136.209 135.867 150.976 129.088C170.441 120.152 179.015 97.0248 170.08 77.5597C168.373 73.8422 166.146 70.4887 163.497 67.5787L163.474 67.5271C164.549 67.2833 166.669 66.998 168.431 66.7516C184.434 86.2232 179.759 109.811 165.27 124.276Z" fill="#FFE500"/>
            <path d="M118.551 58.4559C99.086 67.3916 90.5117 90.5191 99.4474 109.984C101.581 114.631 104.548 118.645 108.073 121.965C107.229 107.6 117.44 93.3477 126.733 83.7682C134.471 75.8402 151.007 67.0612 163.398 67.4991C152.309 55.4616 134.247 51.2504 118.551 58.4559Z" fill="#FFC500"/>
            <path d="M149.804 87.1801C148.297 86.6216 146.833 86.2932 145.282 86.3178C148.208 81.6614 147.316 77.1322 145.275 74.3187C142.287 70.1264 135.856 67.8278 128.815 70.8727L126.539 65.916L113.218 72.0312L115.517 77.0395L110.871 79.1727L129.927 120.685L134.574 118.551L137.229 124.334L150.601 118.195L147.97 112.464C153.189 109.943 156.922 104.729 157.235 99.1468C157.511 93.8938 154.711 89.4281 149.804 87.1801ZM134.087 98.8337L134.293 98.7388C136.335 97.7391 139.822 96.0757 141.356 96.559L141.559 96.5911C142.392 96.7714 143.184 97.4079 143.658 98.4405C144.156 99.5248 144.217 100.747 143.783 101.571L143.699 101.797C143.14 103.304 139.606 104.864 137.517 105.761L137.362 105.832L134.087 98.8337ZM134.639 83.0146C135.259 84.23 135.083 84.936 134.915 85.388C134.249 87.069 131.791 88.3853 129.725 89.3334L126.905 83.1893C129.876 81.7629 132.384 81.2363 133.665 81.7111C133.966 81.8228 134.339 82.0894 134.595 82.7844L134.643 82.8876L134.639 83.0146Z" fill="#FFE500"/>
            <path d="M148.881 88.1664C146.447 87.221 143.828 87.2355 140.925 88.1303L140.878 88.027C151.782 78.1453 140.249 65.6862 127.791 72.5928L125.492 67.5845L121.568 69.3859L123.867 74.3941L121.441 75.5081L119.142 70.4999L115.218 72.3012L117.517 77.3095L112.87 79.4427L130.528 117.908L135.175 115.775L137.83 121.558L141.754 119.756L139.099 113.974L141.526 112.86L144.18 118.642L148.104 116.841L145.45 111.058C155.94 107.493 159.545 93.1481 148.881 88.1664ZM124.431 81.8868C128.134 79.8747 134.523 77.3165 135.927 81.7357C138.452 86.8277 132.467 89.4502 128.627 91.0256L124.431 81.8868ZM144.992 101.891C143.987 104.604 138.845 106.339 136.235 107.599L131.589 97.4795C134.246 96.3224 138.914 93.5543 141.631 94.4328C144.713 95.0184 146.454 99.2201 144.992 101.891Z" fill="#C78C00"/>
        </g>
    </g>
    <defs>
        <filter id="filter0_f_2001_194" x="12.8826" y="-29.5481" width="250.509" height="248.583" filterUnits="userSpaceOnUse" color-interpolation-filters="sRGB">
            <feFlood flood-opacity="0" result="BackgroundImageFix"/>
            <feBlend mode="normal" in="SourceGraphic" in2="BackgroundImageFix" result="shape"/>
            <feGaussianBlur stdDeviation="30" result="effect1_foregroundBlur_2001_194"/>
        </filter>
        <clipPath id="clip0_2001_194">
            <rect width="173" height="120" fill="white"/>
        </clipPath>
        <clipPath id="clip1_2001_194">
            <rect width="108" height="108" fill="white" transform="translate(64 69.058) rotate(-24.6582)"/>
        </clipPath>
    </defs>
</svg>
