<svg width="80" height="80" viewBox="0 0 80 80" fill="none" xmlns="http://www.w3.org/2000/svg">
<path fill-rule="evenodd" clip-rule="evenodd" d="M7.5 50V70C7.5 70.663 7.76339 71.2989 8.23223 71.7678C8.70107 72.2366 9.33696 72.5 10 72.5H67.5C68.163 72.5 68.7989 72.2366 69.2678 71.7678C69.7366 71.2989 70 70.663 70 70V50H7.5Z" fill="white"/>
<path fill-rule="evenodd" clip-rule="evenodd" d="M75.0001 35.37V70C75.0001 71.9891 74.2099 73.8968 72.8034 75.3033C71.3968 76.7098 69.4892 77.5 67.5001 77.5H10.0001C8.01094 77.5 6.10328 76.7098 4.69676 75.3033C3.29023 73.8968 2.50006 71.9891 2.50006 70V35.035C2.50006 34.372 2.76345 33.7361 3.23229 33.2672C3.70113 32.7984 4.33702 32.535 5.00006 32.535H55.0151L36.5176 27.175C36.3402 27.1438 36.1667 27.0935 36.0001 27.025L8.63756 19.095C8.32011 19.003 8.02407 18.8489 7.76655 18.6417C7.50904 18.4345 7.29516 18.1783 7.1373 17.8879C6.97944 17.5976 6.88072 17.2788 6.84687 16.95C6.81301 16.6212 6.84468 16.289 6.94006 15.9725L9.45006 7.6575C10.0013 5.82889 11.2519 4.29167 12.93 3.3798C14.6082 2.46793 16.5784 2.25509 18.4126 2.7875L71.7251 18.2375C72.741 18.5314 73.6886 19.0239 74.5128 19.6867C75.337 20.3494 76.0215 21.1692 76.5265 22.0984C77.0316 23.0276 77.3472 24.0479 77.4551 25.1C77.563 26.1521 77.461 27.2151 77.1551 28.2275L75.0001 35.37ZM16.0876 37.535L20.5776 45H7.50006V37.535H16.0876ZM55.5776 45H43.9126L39.4226 37.535H51.0876L55.5776 45ZM70.0001 45H61.4126L56.9226 37.535H70.0001V45ZM38.0776 45H26.4126L21.9226 37.535H33.5876L38.0776 45ZM64.3476 21.3075L57.2551 27.98L70.8201 31.91L72.3676 26.785C72.4817 26.4055 72.5196 26.0072 72.479 25.613C72.4383 25.2187 72.32 24.8365 72.1307 24.4883C71.9415 24.1401 71.6852 23.8328 71.3766 23.5842C71.0679 23.3356 70.7131 23.1507 70.3326 23.04L64.3476 21.3075ZM58.7701 19.69L51.6776 26.3625L41.8701 23.52L48.9626 16.8475L58.7701 19.69ZM43.3851 15.23L36.2926 21.905L25.2001 18.69L32.2926 12.015L43.3851 15.23ZM19.6226 17.0725L26.7151 10.4L17.0201 7.59C16.4502 7.42375 15.8377 7.48943 15.3161 7.77273C14.7944 8.05603 14.4059 8.534 14.2351 9.1025L12.4576 14.9975L19.6226 17.0725Z" fill="white"/>
</svg>
