<svg width="173" height="120" viewBox="0 0 173 120" fill="none" xmlns="http://www.w3.org/2000/svg">
    <g clip-path="url(#clip0_265_1894)">
        <g filter="url(#filter0_f_265_1894)">
            <path fill-rule="evenodd" clip-rule="evenodd" d="M192.738 57.8234C213.066 83.7961 202.463 120.401 176.46 140.753C148.974 162.265 108.612 167.936 87.125 140.482C63.5597 110.373 70.1239 66.9953 100.269 43.4023C129.068 20.8625 170.225 29.0579 192.738 57.8234Z" fill="#55A1FF"/>
        </g>
        <g clip-path="url(#clip1_265_1894)">
            <path d="M87.4594 93.2758L151.5 27.4243C152.492 26.3804 153.145 25.1153 151.44 23.3958L147.573 19.6379C146.713 18.7988 145.696 18.1375 144.581 17.6923C143.465 17.247 142.272 17.0264 141.071 17.0432C139.87 17.0599 138.684 17.3137 137.581 17.79C136.478 18.2662 135.48 18.9555 134.645 19.8184L78.055 78.0072C77.2158 78.8667 76.5545 79.8835 76.1093 80.9992C75.664 82.1149 75.4434 83.3076 75.4602 84.5087C75.4769 85.7099 75.7307 86.8959 76.207 87.9987C76.6832 89.1016 77.3725 90.0995 78.2354 90.9353L81.7849 94.3877C83.2108 95.723 84.8591 95.9584 87.4625 93.2815L87.4594 93.2758Z" fill="#666666"/>
            <path d="M137.038 34.4572L92.9427 80.2659C91.665 79.6672 90.278 79.3369 88.8676 79.2954C87.4571 79.254 86.0532 79.5024 84.7425 80.0251C80.5161 81.736 83.0839 88.0785 87.3073 86.3619C90.2565 85.5849 92.0701 86.7561 93.2438 87.4437L142.94 36.3477C142.254 33.569 138.684 32.8203 137.038 34.4572Z" fill="#4D4D4D"/>
            <path d="M85.8908 99.9417L107.269 139.799C109.665 144.265 115.188 145.927 119.655 143.531L191.175 105.17C195.641 102.774 197.312 97.2532 194.916 92.7868L173.641 53.123C172.391 50.7932 169.326 49.4156 166.678 50.836L87.9751 93.0504C85.6908 94.2756 84.0986 96.6004 85.8908 99.9417Z" fill="#55A1FF"/>
            <path d="M106.743 99.5426C102.726 101.698 105.957 107.721 109.974 105.566L181.403 67.2531L178.172 61.2296L106.743 99.5426Z" fill="#488BFF"/>
            <path d="M178.794 62.3744L173.82 53.1294C172.412 50.5041 169.269 49.5413 166.854 50.8367L88.0261 93.1181C85.0428 94.7183 84.5001 97.3217 85.9448 100.015L91.0106 109.459L178.794 62.3744Z" fill="#666666"/>
            <path d="M96.3197 89.0721C96.8551 90.0702 97.1886 91.164 97.3013 92.291C97.4139 93.418 97.3035 94.5561 96.9763 95.6404C96.6491 96.7247 96.1115 97.734 95.3943 98.6105C94.677 99.4871 93.7942 100.214 92.7961 100.749C91.798 101.284 90.7042 101.618 89.5772 101.731C88.4502 101.843 87.3121 101.733 86.2278 101.406C85.1435 101.078 84.1342 100.541 83.2577 99.8237C82.3811 99.1064 81.6544 98.2235 81.1191 97.2255C80.0379 95.2097 79.8017 92.847 80.4625 90.6572C81.1233 88.4673 82.627 86.6297 84.6427 85.5485C86.6585 84.4673 89.0212 84.2311 91.211 84.8919C93.4009 85.5527 95.2385 87.0564 96.3197 89.0721Z" fill="#FFC861"/>
            <path d="M111.671 80.4355L109.7 99.4347L129.248 88.9497L129.298 70.9807L111.671 80.4355ZM98.3146 57.2399L82.863 73.1378L106.434 73.8782L120.46 59.4549L98.3146 57.2399ZM145.34 62.3763L145.784 80.0801L163.741 70.4485L163.143 52.827L145.34 62.3763ZM128.187 26.5236L112.671 42.4782L134.589 44.9249L149.273 29.8336L128.187 26.5236Z" fill="#D1DCFF"/>
            <path d="M113.632 58.7709L99.3075 73.647L106.44 73.8751L120.465 59.4519L113.632 58.7709ZM137.038 34.4572L127.695 44.159L134.589 44.9249L142.94 36.3478C142.358 33.7622 138.831 32.6979 137.038 34.4572Z" fill="#BFD2FF"/>
            <path d="M108.203 120.748C106.127 121.803 107.791 124.906 109.818 123.76L151.482 101.412C153.558 100.358 151.894 97.255 149.867 98.4008L108.203 120.748ZM129.797 120.654C124.172 123.686 118.472 126.729 112.84 129.749C111.119 130.973 112.709 133.625 114.6 132.676L131.244 123.749C133.41 122.821 131.898 119.593 129.797 120.654Z" fill="#666666"/>
        </g>
    </g>
    <defs>
        <filter id="filter0_f_265_1894" x="12.8826" y="-29.5481" width="250.509" height="248.583" filterUnits="userSpaceOnUse" color-interpolation-filters="sRGB">
            <feFlood flood-opacity="0" result="BackgroundImageFix"/>
            <feBlend mode="normal" in="SourceGraphic" in2="BackgroundImageFix" result="shape"/>
            <feGaussianBlur stdDeviation="30" result="effect1_foregroundBlur_265_1894"/>
        </filter>
        <clipPath id="clip0_265_1894">
            <rect width="173" height="120" fill="white"/>
        </clipPath>
        <clipPath id="clip1_265_1894">
            <rect width="109.189" height="109.189" fill="white" transform="translate(56 57.6113) rotate(-28.2082)"/>
        </clipPath>
    </defs>
</svg>
