<svg width="173" height="120" viewBox="0 0 173 120" fill="none" xmlns="http://www.w3.org/2000/svg">
    <g clip-path="url(#clip0_265_1828)" filter="url(#filter0_b_265_1828)">
        <rect width="173" height="120" fill="white" fill-opacity="0.05"/>
        <g filter="url(#filter1_f_265_1828)">
            <path fill-rule="evenodd" clip-rule="evenodd" d="M192.738 57.8234C213.066 83.7961 202.463 120.401 176.46 140.753C148.974 162.265 108.612 167.936 87.125 140.482C63.5597 110.373 70.1239 66.9953 100.269 43.4023C129.068 20.8625 170.225 29.0579 192.738 57.8234Z" fill="#4271DB"/>
        </g>
        <g clip-path="url(#clip1_265_1828)">
            <path d="M159.818 42.6323L155.377 45.4857L152.24 92.6731L196.465 109.425L200.905 106.572C201.298 106.32 201.574 105.922 201.673 105.466C201.773 105.01 201.687 104.533 201.434 104.141L197.82 98.5163L193.564 96.2323L193.255 91.4119L188.69 84.3076L184.433 82.0235L184.124 77.2032L179.559 70.0988L175.303 67.8147L174.994 62.9944L170.428 55.89L166.172 53.606L165.863 48.7856L162.249 43.1613C161.997 42.7688 161.599 42.4925 161.143 42.3933C160.687 42.2941 160.21 42.3801 159.818 42.6323Z" fill="#DB2116"/>
            <path d="M130.019 61.7812L155.377 45.4856L196.465 109.425L171.106 125.721L130.019 61.7812Z" fill="#FF3A2F"/>
            <path d="M161.976 111.512L187.335 95.2163L191.9 102.321L166.541 118.616L161.976 111.512Z" fill="white"/>
            <path d="M152.845 97.3032L178.204 81.0076L182.769 88.112L157.411 104.408L152.845 97.3032Z" fill="white"/>
            <path d="M174.994 62.9944L169.073 66.7988L167.409 72.8873L173.639 73.9032L179.559 70.0988L174.994 62.9944Z" fill="#EBEBEB"/>
            <path d="M143.715 83.0945L169.073 66.7989L173.639 73.9032L148.28 90.1989L143.715 83.0945Z" fill="white"/>
            <path d="M165.863 48.7856L159.943 52.5901L158.279 58.6785L164.508 59.6944L170.428 55.89L165.863 48.7856Z" fill="#EBEBEB"/>
            <path d="M134.584 68.8857L159.943 52.5901L164.508 59.6945L139.149 75.9901L134.584 68.8857Z" fill="white"/>
            <path d="M136.7 59.1609C134.599 55.8911 130.245 54.9438 126.975 57.045L125.374 63.2322L152.766 105.858L158.932 106.776L168.657 108.892L164.092 101.787C163.047 100.161 160.504 97.6459 157.81 95.786L159.526 94.6828L154.961 87.5785C153.916 85.9525 151.374 83.4371 148.679 81.5772L150.396 80.4741L145.831 73.3697C144.786 71.7438 142.243 69.2284 139.549 67.3685L141.265 66.2653L136.7 59.1609Z" fill="#EBEBEB"/>
            <path d="M109.653 59.8115L90.2761 120.78L94.8414 127.885L101.071 128.901L99.4067 134.989L103.972 142.094L158.932 106.776L126.975 57.0451L109.653 59.8115Z" fill="white"/>
            <path d="M122.41 49.9406L120.809 56.1278L126.975 57.045C130.245 54.9438 134.599 55.8911 136.7 59.1609L132.135 52.0565C130.033 48.7867 125.68 47.8395 122.41 49.9406Z" fill="#DB2116"/>
            <path d="M108.892 58.6275L107.537 69.5363L126.975 57.0451L122.41 49.9407L108.892 58.6275Z" fill="#FF3A2F"/>
            <path d="M131.54 64.1494L129.94 70.3365L136.106 71.2538C139.376 69.1526 143.729 70.0999 145.831 73.3697L141.265 66.2653C139.164 62.9955 134.81 62.0482 131.54 64.1494Z" fill="#DB2116"/>
            <path d="M112.102 76.6406L131.54 64.1494L136.106 71.2538L116.667 83.745L112.102 76.6406Z" fill="#FF3A2F"/>
            <path d="M158.932 106.776L157.331 112.963L167.302 119.8L173.222 115.996L168.657 108.892C166.556 105.622 162.202 104.675 158.932 106.776Z" fill="#DB2116"/>
            <path d="M103.972 142.094L108.537 149.198L157.577 117.685L166.034 117.827L158.932 106.776L103.972 142.094Z" fill="#FF3A2F"/>
            <path d="M163.498 113.88L157.577 117.685L161.382 123.605C163.483 126.875 167.837 127.822 171.106 125.721C174.376 123.62 175.324 119.266 173.222 115.996C171.121 112.726 166.767 111.779 163.498 113.88Z" fill="#A41910"/>
            <path d="M140.671 78.3582L139.07 84.5454L145.236 85.4626C148.506 83.3615 152.86 84.3087 154.961 87.5785L150.396 80.4741C148.295 77.2044 143.941 76.2571 140.671 78.3582Z" fill="#DB2116"/>
            <path d="M121.233 90.8494L131.718 94.1493L145.236 85.4626L140.671 78.3582L121.233 90.8494Z" fill="#FF3A2F"/>
            <path d="M149.802 92.567L148.201 98.7541L154.367 99.6714C157.637 97.5702 161.991 98.5175 164.092 101.787L159.526 94.6829C157.425 91.4131 153.071 90.4658 149.802 92.567Z" fill="#DB2116"/>
            <path d="M94.8414 127.885L149.802 92.567L154.367 99.6714L99.4067 134.989L94.8414 127.885Z" fill="#FF3A2F"/>
            <path d="M67.4495 85.2584L108.892 58.6274L131.718 94.1494L90.2761 120.78L67.4495 85.2584Z" fill="#4271DB"/>
            <path d="M90.706 80.7699C91.5234 80.2446 91.7603 79.1562 91.235 78.3387C90.7097 77.5213 89.6212 77.2845 88.8038 77.8098C87.9864 78.335 87.7496 79.4235 88.2748 80.2409C88.8001 81.0584 89.8886 81.2952 90.706 80.7699Z" fill="white"/>
            <path d="M96.6264 76.9655C97.4438 76.4402 97.6806 75.3517 97.1553 74.5343C96.6301 73.7169 95.5416 73.48 94.7242 74.0053C93.9067 74.5306 93.6699 75.6191 94.1952 76.4365C94.7205 77.2539 95.8089 77.4908 96.6264 76.9655Z" fill="white"/>
            <path d="M102.547 73.1612C103.364 72.6359 103.601 71.5474 103.076 70.73C102.55 69.9125 101.462 69.6757 100.644 70.201C99.827 70.7263 99.5902 71.8148 100.115 72.6322C100.641 73.4496 101.729 73.6864 102.547 73.1612Z" fill="white"/>
            <path d="M108.467 69.3567C109.284 68.8314 109.521 67.743 108.996 66.9255C108.471 66.1081 107.382 65.8713 106.565 66.3965C105.747 66.9218 105.511 68.0103 106.036 68.8277C106.561 69.6452 107.65 69.882 108.467 69.3567Z" fill="white"/>
            <path d="M84.7857 84.5744C85.6032 84.0491 85.84 82.9606 85.3147 82.1432C84.7894 81.3257 83.7009 81.0889 82.8835 81.6142C82.0661 82.1395 81.8293 83.228 82.3545 84.0454C82.8798 84.8628 83.9683 85.0996 84.7857 84.5744Z" fill="white"/>
            <path d="M78.8654 88.3788C79.6828 87.8535 79.9196 86.765 79.3944 85.9476C78.8691 85.1302 77.7806 84.8934 76.9632 85.4186C76.1457 85.9439 75.9089 87.0324 76.4342 87.8498C76.9595 88.6673 78.048 88.9041 78.8654 88.3788Z" fill="white"/>
            <path d="M98.3149 92.6106C99.1323 92.0853 99.3692 90.9969 98.8439 90.1794C98.3186 89.362 97.2301 89.1252 96.4127 89.6505C95.5953 90.1757 95.3584 91.2642 95.8837 92.0816C96.409 92.8991 97.4975 93.1359 98.3149 92.6106Z" fill="white"/>
            <path d="M104.235 88.8062C105.053 88.2809 105.289 87.1924 104.764 86.375C104.239 85.5576 103.15 85.3207 102.333 85.846C101.516 86.3713 101.279 87.4598 101.804 88.2772C102.329 89.0946 103.418 89.3315 104.235 88.8062Z" fill="white"/>
            <path d="M110.156 85.0017C110.973 84.4764 111.21 83.388 110.685 82.5705C110.159 81.7531 109.071 81.5163 108.253 82.0416C107.436 82.5669 107.199 83.6553 107.724 84.4728C108.25 85.2902 109.338 85.527 110.156 85.0017Z" fill="white"/>
            <path d="M116.076 81.1973C116.893 80.672 117.13 79.5835 116.605 78.7661C116.08 77.9487 114.991 77.7118 114.174 78.2371C113.356 78.7624 113.119 79.8509 113.645 80.6683C114.17 81.4857 115.258 81.7226 116.076 81.1973Z" fill="white"/>
            <path d="M92.3946 96.4151C93.212 95.8898 93.4488 94.8013 92.9235 93.9839C92.3983 93.1664 91.3098 92.9296 90.4923 93.4549C89.6749 93.9802 89.4381 95.0687 89.9634 95.8861C90.4887 96.7035 91.5771 96.9403 92.3946 96.4151Z" fill="white"/>
            <path d="M86.4742 100.22C87.2916 99.6942 87.5285 98.6057 87.0032 97.7883C86.4779 96.9709 85.3894 96.7341 84.572 97.2593C83.7546 97.7846 83.5177 98.8731 84.043 99.6905C84.5683 100.508 85.6568 100.745 86.4742 100.22Z" fill="white"/>
            <path d="M105.924 104.451C106.741 103.926 106.978 102.837 106.453 102.02C105.927 101.203 104.839 100.966 104.022 101.491C103.204 102.016 102.967 103.105 103.493 103.922C104.018 104.74 105.106 104.976 105.924 104.451Z" fill="white"/>
            <path d="M111.844 100.647C112.662 100.122 112.898 99.0331 112.373 98.2157C111.848 97.3983 110.759 97.1614 109.942 97.6867C109.124 98.212 108.888 99.3005 109.413 100.118C109.938 100.935 111.027 101.172 111.844 100.647Z" fill="white"/>
            <path d="M117.764 96.8424C118.582 96.3171 118.819 95.2287 118.293 94.4112C117.768 93.5938 116.68 93.357 115.862 93.8823C115.045 94.4075 114.808 95.496 115.333 96.3135C115.858 97.1309 116.947 97.3677 117.764 96.8424Z" fill="white"/>
            <path d="M123.685 93.038C124.502 92.5127 124.739 91.4242 124.214 90.6068C123.688 89.7894 122.6 89.5525 121.783 90.0778C120.965 90.6031 120.728 91.6916 121.254 92.509C121.779 93.3264 122.867 93.5633 123.685 93.038Z" fill="white"/>
            <path d="M100.003 108.256C100.821 107.73 101.058 106.642 100.532 105.824C100.007 105.007 98.9186 104.77 98.1012 105.295C97.2837 105.821 97.0469 106.909 97.5722 107.727C98.0975 108.544 99.186 108.781 100.003 108.256Z" fill="white"/>
            <path d="M94.0831 112.06C94.9005 111.535 95.1374 110.446 94.6121 109.629C94.0868 108.811 92.9983 108.575 92.1809 109.1C91.3635 109.625 91.1266 110.714 91.6519 111.531C92.1772 112.349 93.2657 112.585 94.0831 112.06Z" fill="white"/>
            <path d="M97.4706 84.7881C98.288 84.2628 98.5249 83.1743 97.9996 82.3569C97.4743 81.5395 96.3858 81.3027 95.5684 81.8279C94.751 82.3532 94.5141 83.4417 95.0394 84.2591C95.5647 85.0766 96.6532 85.3134 97.4706 84.7881Z" fill="white"/>
            <path d="M103.391 80.9837C104.208 80.4584 104.445 79.3699 103.92 78.5525C103.395 77.7351 102.306 77.4982 101.489 78.0235C100.671 78.5488 100.434 79.6373 100.96 80.4547C101.485 81.2721 102.574 81.5089 103.391 80.9837Z" fill="white"/>
            <path d="M109.311 77.1792C110.129 76.6539 110.366 75.5655 109.84 74.748C109.315 73.9306 108.226 73.6938 107.409 74.2191C106.592 74.7443 106.355 75.8328 106.88 76.6502C107.405 77.4677 108.494 77.7045 109.311 77.1792Z" fill="white"/>
            <path d="M91.5503 88.5926C92.3677 88.0673 92.6046 86.9788 92.0793 86.1614C91.554 85.3439 90.4655 85.1071 89.6481 85.6324C88.8307 86.1577 88.5939 87.2462 89.1191 88.0636C89.6444 88.881 90.7329 89.1178 91.5503 88.5926Z" fill="white"/>
            <path d="M85.63 92.3969C86.4474 91.8716 86.6842 90.7831 86.1589 89.9657C85.6337 89.1483 84.5452 88.9114 83.7278 89.4367C82.9103 89.962 82.6735 91.0505 83.1988 91.8679C83.7241 92.6853 84.8125 92.9222 85.63 92.3969Z" fill="white"/>
            <path d="M105.079 96.6287C105.897 96.1034 106.134 95.0149 105.608 94.1975C105.083 93.3801 103.995 93.1432 103.177 93.6685C102.36 94.1938 102.123 95.2823 102.648 96.0997C103.174 96.9171 104.262 97.154 105.079 96.6287Z" fill="white"/>
            <path d="M111 92.8242C111.817 92.299 112.054 91.2105 111.529 90.3931C111.003 89.5756 109.915 89.3388 109.098 89.8641C108.28 90.3894 108.043 91.4778 108.569 92.2953C109.094 93.1127 110.182 93.3495 111 92.8242Z" fill="white"/>
            <path d="M116.92 89.0199C117.738 88.4946 117.974 87.4062 117.449 86.5887C116.924 85.7713 115.835 85.5345 115.018 86.0598C114.2 86.585 113.964 87.6735 114.489 88.4909C115.014 89.3084 116.103 89.5452 116.92 89.0199Z" fill="white"/>
            <path d="M99.1591 100.433C99.9766 99.9078 100.213 98.8194 99.6881 98.0019C99.1628 97.1845 98.0744 96.9477 97.2569 97.473C96.4395 97.9982 96.2027 99.0867 96.728 99.9042C97.2532 100.722 98.3417 100.958 99.1591 100.433Z" fill="white"/>
            <path d="M93.2388 104.238C94.0562 103.712 94.2931 102.624 93.7678 101.806C93.2425 100.989 92.154 100.752 91.3366 101.277C90.5192 101.803 90.2823 102.891 90.8076 103.709C91.3329 104.526 92.4214 104.763 93.2388 104.238Z" fill="white"/>
        </g>
    </g>
    <defs>
        <filter id="filter0_b_265_1828" x="-50" y="-50" width="273" height="220" filterUnits="userSpaceOnUse" color-interpolation-filters="sRGB">
            <feFlood flood-opacity="0" result="BackgroundImageFix"/>
            <feGaussianBlur in="BackgroundImageFix" stdDeviation="25"/>
            <feComposite in2="SourceAlpha" operator="in" result="effect1_backgroundBlur_265_1828"/>
            <feBlend mode="normal" in="SourceGraphic" in2="effect1_backgroundBlur_265_1828" result="shape"/>
        </filter>
        <filter id="filter1_f_265_1828" x="12.8826" y="-29.5481" width="250.509" height="248.583" filterUnits="userSpaceOnUse" color-interpolation-filters="sRGB">
            <feFlood flood-opacity="0" result="BackgroundImageFix"/>
            <feBlend mode="normal" in="SourceGraphic" in2="BackgroundImageFix" result="shape"/>
            <feGaussianBlur stdDeviation="30" result="effect1_foregroundBlur_265_1828"/>
        </filter>
        <clipPath id="clip0_265_1828">
            <rect width="173" height="120" fill="white"/>
        </clipPath>
        <clipPath id="clip1_265_1828">
            <rect width="116.585" height="116.585" fill="white" transform="translate(48 81.0266) rotate(-32.725)"/>
        </clipPath>
    </defs>
</svg>
