<svg width="80" height="80" viewBox="0 0 80 80" fill="none" xmlns="http://www.w3.org/2000/svg">
<g clip-path="url(#clip0_2001_62)">
<path d="M21.0938 37.5C12.473 37.5 5.04766 34.7617 1.38891 33.1295L0 32.51V47.733L21.6997 37.4956C21.4978 37.498 21.2959 37.5 21.0938 37.5ZM58.5938 0C54.7044 0 50.7737 0.450312 46.875 1.06609V18.8305L77.6837 4.43125C74.9408 3.14313 67.3503 0 58.5938 0ZM58.1108 18.7534C58.2717 18.752 58.4327 18.75 58.5938 18.75C67.2442 18.75 74.8375 21.4998 78.5936 23.1389L80 23.7527V8.52297L58.1108 18.7534ZM58.5938 32.8125C56.047 32.8125 53.4353 33.0469 50.8475 33.3928L80 52.6453V39.6675L74.3552 36.677C74.2877 36.6417 66.8681 32.8125 58.5938 32.8125ZM21.0938 23.4375C23.6547 23.4375 26.2795 23.2014 28.8786 22.8533L0 3.59797V16.4833L5.74578 19.6278C5.80953 19.6623 12.8956 23.4375 21.0938 23.4375ZM46.875 52.6892C50.8222 52.045 54.7755 51.5625 58.5938 51.5625C67.6548 51.5625 75.5847 55.4786 76.467 55.9295L46.875 36.3869V52.6892Z" fill="white"/>
<path d="M58.5938 23.4375C53.6683 23.4375 48.7022 24.1781 44.9259 24.8233C44.5896 24.8807 44.2448 24.8641 43.9156 24.7744C43.5864 24.6848 43.2807 24.5244 43.0199 24.3044C42.7591 24.0844 42.5495 23.8101 42.4058 23.5007C42.262 23.1912 42.1875 22.8542 42.1875 22.513V1.87172C41.2631 2.04031 38.1436 2.62094 37.5 2.73969V24.2219C37.5 24.7719 37.3066 25.3044 36.9535 25.7262C36.6005 26.148 36.1104 26.4322 35.5689 26.5291C30.9352 27.358 25.9745 28.125 21.0938 28.125C11.6175 28.125 3.57547 23.7837 3.49547 23.7398L0 21.8269V27.3772L3.29859 28.8488C6.61703 30.3291 13.3414 32.8125 21.0938 32.8125C26.0239 32.8125 30.988 32.0728 34.7617 31.4284C35.098 31.371 35.4428 31.3877 35.772 31.4773C36.1012 31.567 36.4069 31.7274 36.6676 31.9474C36.9284 32.1674 37.138 32.4417 37.2817 32.7511C37.4255 33.0605 37.5 33.3976 37.5 33.7387V54.3803C38.432 54.2103 41.5516 53.6297 42.1875 53.5123V32.0303C42.1875 31.4804 42.3809 30.9479 42.7338 30.5262C43.0868 30.1044 43.5768 29.8202 44.1181 29.7233C48.7547 28.8931 53.7173 28.125 58.5938 28.125C68.1156 28.125 76.4664 32.4908 76.5497 32.5348L80 34.3627V28.8669L76.7189 27.4352C73.2975 25.9422 66.3933 23.4375 58.5938 23.4375Z" fill="white"/>
<path d="M0 77.6562C0 78.9506 1.04937 80 2.34375 80C3.63813 80 4.6875 78.9506 4.6875 77.6562V52.8826C8.26828 54.3394 14.2659 56.25 21.0938 56.25C24.9848 56.25 28.915 55.8005 32.8125 55.1855V37.4359L0 52.9159V77.6562ZM32.8125 3.5625C28.8666 4.20593 24.9139 4.6875 21.0938 4.6875C12.0244 4.6875 4.35891 0.759997 3.5525 0.332809L32.8125 19.8423V3.5625Z" fill="white"/>
</g>
<defs>
<clipPath id="clip0_2001_62">
<rect width="80" height="80" fill="white"/>
</clipPath>
</defs>
</svg>
