<svg width="173" height="120" viewBox="0 0 173 120" fill="none" xmlns="http://www.w3.org/2000/svg">
    <g clip-path="url(#clip0_2001_272)">
        <g filter="url(#filter0_f_2001_272)">
            <path fill-rule="evenodd" clip-rule="evenodd" d="M192.738 57.8234C213.066 83.7961 202.463 120.401 176.46 140.753C148.974 162.265 108.612 167.936 87.125 140.482C63.5597 110.373 70.1239 66.9953 100.269 43.4023C129.068 20.8625 170.225 29.0579 192.738 57.8234Z" fill="#A5E23B"/>
        </g>
        <g clip-path="url(#clip1_2001_272)">
            <path d="M137.061 128.687L120.962 146.343L89.4216 87.0875L105.521 69.4315L137.061 128.687ZM176.797 107.536L160.698 125.192L129.158 65.9368L145.257 48.2808L176.797 107.536Z" fill="#E6F2FF"/>
            <path d="M145.257 48.2807L168.894 44.7861L200.434 104.041L176.797 107.536L145.257 48.2807ZM105.521 69.4314L129.158 65.9367L160.698 125.192L137.061 128.687L105.521 69.4314Z" fill="#BFE1FF"/>
            <path d="M145.256 48.2787L152.347 61.6007C152.273 61.7095 152.189 61.811 152.096 61.9038L149.107 64.9088C148.359 65.6634 147.845 66.6173 147.626 67.6563L146.38 73.5351C146.297 73.9289 146.313 74.337 146.425 74.7235C146.537 75.11 146.742 75.463 147.023 75.7515L147.625 76.3791C147.992 76.7538 148.228 77.2361 148.3 77.7551C148.371 78.2741 148.275 78.8024 148.024 79.2624L146.441 82.1715C146.21 82.5997 145.856 82.9492 145.425 83.1754C144.994 83.4016 144.506 83.4942 144.022 83.4414L138.991 82.8984C138.73 82.8681 138.467 82.8844 138.212 82.9466L129.158 65.9368L145.256 48.2787Z" fill="#A5E23B"/>
            <path d="M129.158 65.9368L138.212 82.9465C137.93 82.9989 137.662 83.1053 137.421 83.2599L134.486 85.1083C134.193 85.2928 133.941 85.5375 133.749 85.8263C133.556 86.1151 133.427 86.4415 133.37 86.7838C133.313 87.1261 133.329 87.4767 133.418 87.8123C133.506 88.1479 133.665 88.4609 133.883 88.7308L135.564 90.797C135.788 91.074 135.95 91.3962 136.038 91.7416C136.126 92.0869 136.139 92.4472 136.074 92.7978L135.537 95.6428C135.471 96.005 135.324 96.3477 135.108 96.6455C134.892 96.9432 134.611 97.1884 134.287 97.3626C133.963 97.5369 133.603 97.6359 133.236 97.6521C132.868 97.6683 132.501 97.6014 132.163 97.4564L126.726 95.1523C126.343 94.9886 126.008 94.7306 125.752 94.4023C125.496 94.0739 125.327 93.686 125.262 93.2748L124.817 90.5234C124.653 89.4841 124.195 88.5135 123.497 87.7262C122.799 86.9389 121.89 86.3679 120.878 86.0805L114.632 84.2967C114.236 84.1837 113.818 84.1724 113.416 84.2641L105.52 69.4293L129.158 65.9368Z" fill="#79CE00"/>
            <path d="M105.52 69.4294L113.416 84.2641C112.954 84.3666 112.532 84.6007 112.2 84.9381L109.239 87.9636C108.995 88.2121 108.701 88.4059 108.377 88.5323C108.052 88.6588 107.705 88.7149 107.357 88.6971C107.009 88.6792 106.669 88.5878 106.359 88.4288C106.05 88.2698 105.777 88.0469 105.56 87.7748L105.33 87.4768C104.973 87.0263 104.469 86.7154 103.906 86.598C103.344 86.4807 102.758 86.5644 102.25 86.8346C101.925 87.0077 101.565 87.1055 101.197 87.1209C100.829 87.1363 100.463 87.0688 100.124 86.9235C99.7857 86.7782 99.4843 86.5587 99.242 86.2812C98.9998 86.0038 98.823 85.6755 98.7247 85.3205L96.9517 78.8298L105.52 69.4294Z" fill="#A5E23B"/>
            <path d="M156.902 52.7526L152.54 61.2919C152.486 61.4011 152.421 61.5045 152.347 61.6007L145.256 48.2787L154.445 46.9209L156.738 50.2364C156.992 50.6012 157.141 51.0283 157.17 51.4717C157.199 51.9151 157.106 52.358 156.902 52.7526ZM183.376 90.1469L183.427 91.4528C183.44 91.7729 183.387 92.0923 183.273 92.3915C183.158 92.6908 182.984 92.9637 182.761 93.1938L181.732 94.2517C181.208 94.7971 180.869 95.4946 180.765 96.2442C180.661 96.9938 180.797 97.757 181.153 98.4247L181.591 99.2473C181.699 99.4505 181.85 99.6276 182.033 99.7664C182.217 99.9051 182.429 100.002 182.654 100.05L186.234 100.811C187.096 100.989 187.862 101.48 188.382 102.19L190.78 105.468L176.796 107.534L164.391 84.2293C165.026 84.1801 165.664 84.2101 166.291 84.3187L180.407 86.7533C181.216 86.8923 181.953 87.3054 182.494 87.9234C183.034 88.5413 183.346 89.3264 183.376 90.1469Z" fill="#79CE00"/>
            <path d="M164.391 84.2293L176.796 107.534L166.193 119.163L165.603 110.289C165.585 110.025 165.502 109.77 165.359 109.547C165.217 109.324 165.022 109.141 164.79 109.013L163.826 108.479C163.072 108.067 162.471 107.422 162.113 106.641C161.755 105.859 161.659 104.983 161.84 104.142L162.741 99.8692C162.866 99.2827 162.841 98.6743 162.669 98.0997C162.498 97.5252 162.185 97.0028 161.76 96.5803L160.52 95.3613C160.279 95.122 159.99 94.9374 159.671 94.8199C159.352 94.7025 159.012 94.655 158.673 94.6806L155.63 94.9136C154.973 94.9649 154.316 94.8086 153.752 94.4668C153.188 94.125 152.745 93.6148 152.487 93.0083L151.675 91.0965C151.548 90.799 151.483 90.4787 151.485 90.1552C151.486 89.8318 151.554 89.5122 151.684 89.2159C151.814 88.9197 152.003 88.6532 152.24 88.4328C152.476 88.2124 152.756 88.0428 153.06 87.9345L162.314 84.6638C162.983 84.4233 163.682 84.2771 164.391 84.2293ZM101.708 110.169L108.131 110.71C108.89 110.774 109.614 111.056 110.216 111.522L111.888 112.814C112.261 113.103 112.696 113.299 113.159 113.386C113.622 113.473 114.099 113.448 114.551 113.314L116.144 112.842C116.704 112.676 117.294 112.637 117.872 112.726C118.449 112.816 118.999 113.032 119.483 113.361L120.508 114.057C121.13 114.478 121.569 115.119 121.736 115.851C121.904 116.582 121.789 117.351 121.413 118.001L120.119 120.244C119.894 120.635 119.76 121.072 119.729 121.522C119.698 121.972 119.769 122.423 119.937 122.841L121.442 126.571C121.6 126.963 121.673 127.384 121.655 127.806C121.638 128.229 121.53 128.642 121.34 129.02L120.731 130.228C120.546 130.596 120.511 131.021 120.635 131.413C120.758 131.806 121.03 132.134 121.392 132.33L124.983 134.265C125.436 134.509 125.822 134.859 126.108 135.286C126.395 135.712 126.573 136.203 126.627 136.714L126.95 139.777L120.962 146.343L101.708 110.169Z" fill="#A5E23B"/>
            <path d="M118.397 45.7202C115.324 47.3559 113.027 50.1451 112.011 53.4742C110.995 56.8033 111.343 60.3997 112.978 63.4724C118.812 74.4326 135.966 78.7269 135.966 78.7269C135.966 78.7269 141.983 62.0992 136.149 51.139C134.513 48.0665 131.724 45.7695 128.395 44.7533C125.066 43.7371 121.469 44.0849 118.397 45.7202Z" fill="#FF5715"/>
            <path d="M127.222 62.3006C129.981 60.8322 131.027 57.4056 129.558 54.647C128.09 51.8884 124.663 50.8425 121.905 52.3108C119.146 53.7792 118.1 57.2058 119.569 59.9644C121.037 62.723 124.464 63.7689 127.222 62.3006Z" fill="#E6F2FF"/>
        </g>
    </g>
    <defs>
        <filter id="filter0_f_2001_272" x="12.8826" y="-29.5481" width="250.509" height="248.583" filterUnits="userSpaceOnUse" color-interpolation-filters="sRGB">
            <feFlood flood-opacity="0" result="BackgroundImageFix"/>
            <feBlend mode="normal" in="SourceGraphic" in2="BackgroundImageFix" result="shape"/>
            <feGaussianBlur stdDeviation="30" result="effect1_foregroundBlur_2001_272"/>
        </filter>
        <clipPath id="clip0_2001_272">
            <rect width="173" height="120" fill="white"/>
        </clipPath>
        <clipPath id="clip1_2001_272">
            <rect width="101.085" height="101.085" fill="white" transform="translate(71.1834 64.5885) rotate(-28.0255)"/>
        </clipPath>
    </defs>
</svg>
