<svg width="80" height="80" viewBox="0 0 80 80" fill="none" xmlns="http://www.w3.org/2000/svg">
<path d="M40 15.3958C40.6847 15.3958 41.3644 15.4956 42.0205 15.6922L63.877 22.2492C61.7041 15.2461 56.0325 8.53078 45.4089 6.16562C43.6042 5.76453 42.3438 4.19312 42.3438 2.34312C42.3438 1.04875 41.2944 0 40 0C38.7056 0 37.6563 1.05 37.6563 2.34437C37.6563 4.19297 36.3953 5.76437 34.5931 6.16484C23.9583 8.53328 18.2977 15.2608 16.1261 22.2484L37.9795 15.6925C38.635 15.4958 39.3157 15.3958 40 15.3958Z" fill="white"/>
<path d="M65.7779 27.7134L40.6737 20.1822C40.2343 20.0504 39.766 20.0504 39.3266 20.1822L14.2224 27.7134C13.7396 27.8583 13.3164 28.1549 13.0156 28.5593C12.7147 28.9637 12.5523 29.4543 12.5522 29.9583V50.0416C12.5522 50.9294 13.0538 51.7409 13.8479 52.1378L38.9521 64.6898C39.2775 64.8527 39.6364 64.9374 40.0002 64.9374C40.3641 64.9374 40.7229 64.8527 41.0483 64.6898L66.1526 52.1378C66.5419 51.9432 66.8693 51.644 67.0981 51.2737C67.327 50.9035 67.4482 50.4768 67.4482 50.0416V29.9583C67.4482 29.4542 67.2857 28.9636 66.9848 28.5593C66.6839 28.1549 66.2607 27.8583 65.7779 27.7134ZM27.2813 45.0209C27.2813 46.3153 26.2319 47.3647 24.9376 47.3647C23.6432 47.3647 22.5938 46.3153 22.5938 45.0209V35.7323C22.5938 34.438 23.6432 33.3886 24.9376 33.3886C26.2319 33.3886 27.2813 34.438 27.2813 35.7323V45.0209ZM37.3229 48.7864C37.3229 50.0808 36.2735 51.1302 34.9791 51.1302C33.6847 51.1302 32.6354 50.0808 32.6354 48.7864V32.7197C32.6354 31.4253 33.6847 30.3759 34.9791 30.3759C36.2735 30.3759 37.3229 31.4253 37.3229 32.7197V48.7864ZM47.3647 48.7864C47.3647 50.0808 46.3154 51.1302 45.021 51.1302C43.7266 51.1302 42.6772 50.0808 42.6772 48.7864V32.7197C42.6772 31.4253 43.7266 30.3759 45.021 30.3759C46.3154 30.3759 47.3647 31.4253 47.3647 32.7197V48.7864ZM57.4065 45.0209C57.4065 46.3153 56.3571 47.3647 55.0627 47.3647C53.7683 47.3647 52.719 46.3153 52.719 45.0209V35.7323C52.719 34.438 53.7683 33.3886 55.0627 33.3886C56.3571 33.3886 57.4065 34.438 57.4065 35.7323V45.0209Z" fill="white"/>
<path d="M66.5095 68.2494C66.5095 68.2494 64.6273 66.8391 62.4935 65.2375C60.9809 64.1033 59.7584 62.6495 58.8909 61.0094L43.1443 68.8827C42.1731 69.3683 41.0857 69.625 40 69.625C38.9142 69.625 37.8268 69.3683 36.8556 68.8827L21.1089 61.0094C20.2412 62.6494 19.0189 64.1031 17.5062 65.2378L13.4898 68.2498C13.1428 68.5101 12.8748 68.8615 12.7156 69.2649C12.5565 69.6684 12.5124 70.1082 12.5883 70.5352C12.6642 70.9623 12.8572 71.3599 13.1457 71.6838C13.4341 72.0077 13.8068 72.2452 14.2223 72.3698L39.3265 79.9011C39.7659 80.0329 40.2343 80.0329 40.6737 79.9011L65.7779 72.3698C66.1934 72.2451 66.5661 72.0075 66.8546 71.6836C67.1431 71.3596 67.3359 70.9619 67.4118 70.5347C67.4876 70.1076 67.4434 69.6678 67.2841 69.2643C67.1248 68.8608 66.8567 68.5095 66.5095 68.2494Z" fill="white"/>
</svg>
