<svg width="173" height="120" viewBox="0 0 173 120" fill="none" xmlns="http://www.w3.org/2000/svg">
    <g clip-path="url(#clip0_2001_170)">
        <g filter="url(#filter0_f_2001_170)">
            <path fill-rule="evenodd" clip-rule="evenodd" d="M192.738 57.8234C213.066 83.7961 202.463 120.401 176.46 140.753C148.974 162.265 108.612 167.936 87.125 140.482C63.5597 110.373 70.1239 66.9953 100.269 43.4023C129.068 20.8625 170.225 29.0579 192.738 57.8234Z" fill="#E6646E"/>
        </g>
        <g clip-path="url(#clip1_2001_170)">
            <path d="M117.209 41.4837C118.578 38.3245 120.977 34.289 125.268 32.2261C132.657 28.6741 139.011 34.1653 146.367 32.6024C151.413 31.5302 157.555 27.0057 162.951 12.4012C163.225 11.6605 164.254 11.6181 164.59 12.333C170.757 25.4811 166.036 41.3227 153.951 48.6069C142.086 55.7587 126.12 52.8553 117.209 41.4837Z" fill="#FF8087"/>
            <path d="M164.59 12.3333C164.254 11.6184 163.225 11.6608 162.951 12.4015C162.005 14.9613 161.037 17.2105 160.055 19.1866C163.506 31.3222 158.587 44.64 147.802 51.1411C147.591 51.2679 147.379 51.3907 147.166 51.5113C149.55 50.8596 151.833 49.8824 153.951 48.6072C166.036 41.3229 170.757 25.4813 164.59 12.3333Z" fill="#E6646E"/>
            <path d="M122.519 54.7584C126.652 53.0553 128.644 48.3775 126.968 44.3101C125.292 40.2428 120.583 38.3261 116.45 40.0292C112.317 41.7322 110.325 46.41 112.001 50.4774C113.677 54.5447 118.386 56.4614 122.519 54.7584Z" fill="#918291"/>
            <path d="M116.45 40.0294C115.39 40.465 114.434 41.1183 113.643 41.947C116.718 42.0309 119.587 43.8557 120.818 46.8441C122.05 49.8326 121.299 53.1492 119.176 55.3745C120.321 55.4055 121.46 55.1955 122.519 54.7582C126.652 53.0552 128.644 48.3775 126.968 44.31C125.292 40.2425 120.583 38.3264 116.45 40.0294Z" fill="#7A6D79"/>
            <path d="M120.306 49.3871C103.349 56.3741 95.1774 75.5654 102.053 92.2522L105.133 99.727L166.538 74.4252L163.458 66.9503C156.582 50.2633 137.262 42.4002 120.306 49.3871Z" fill="#685E68"/>
            <path d="M120.306 49.3869C119.268 49.8146 118.264 50.2887 117.293 50.8044C133.431 45.9304 150.853 53.8187 157.308 69.4842L160.388 76.9589L166.538 74.425L163.458 66.9504C156.582 50.2633 137.262 42.4001 120.306 49.3869Z" fill="#595159"/>
            <path d="M132.661 79.372C132.863 79.2888 133.047 79.1667 133.201 79.0126C133.356 78.8585 133.479 78.6754 133.563 78.4738C133.647 78.2723 133.69 78.0561 133.69 77.8378C133.691 77.6194 133.648 77.4031 133.565 77.2012L121.859 48.7913C121.339 48.9765 120.821 49.1745 120.306 49.3869C119.79 49.5994 119.283 49.8235 118.784 50.0582L130.49 78.4679C130.573 78.6698 130.696 78.8534 130.85 79.0081C131.004 79.1628 131.187 79.2857 131.388 79.3696C131.59 79.4536 131.806 79.497 132.025 79.4974C132.243 79.4978 132.459 79.4552 132.661 79.372Z" fill="#595159"/>
            <path d="M177.719 104.546L156.829 133.23C156.449 133.751 155.932 134.156 155.336 134.402C154.74 134.648 154.088 134.724 153.451 134.622L118.418 128.981C117.598 128.849 116.91 128.308 116.597 127.549L108.054 106.815L169.459 81.5136L178.002 102.248C178.315 103.006 178.208 103.875 177.719 104.546Z" fill="#685E68"/>
            <path d="M163.309 84.0474L170.849 102.345C171.161 103.103 171.054 103.972 170.566 104.644L149.676 133.327C149.515 133.548 149.328 133.748 149.12 133.924L153.451 134.622C154.088 134.724 154.74 134.647 155.336 134.402C155.932 134.156 156.449 133.751 156.829 133.23L177.719 104.546C178.208 103.875 178.315 103.006 178.002 102.248L169.459 81.5136L163.309 84.0474Z" fill="#595159"/>
            <path d="M173.528 86.9957L145.25 108.439C144.945 108.671 144.584 108.82 144.204 108.87L109.028 113.573C108.543 113.638 108.05 113.541 107.626 113.296C107.202 113.051 106.871 112.673 106.684 112.22L101.266 99.071C100.883 98.1404 101.174 97.068 101.977 96.4598L130.255 75.0161C130.56 74.7844 130.921 74.636 131.301 74.5852L166.477 69.8823C166.962 69.8174 167.455 69.9149 167.879 70.1596C168.303 70.4043 168.634 70.7825 168.821 71.2352L174.239 84.3845C174.425 84.8371 174.457 85.3387 174.328 85.811C174.2 86.2834 173.918 86.6999 173.528 86.9957Z" fill="#918291"/>
            <path d="M161.352 70.5676L169.408 90.12L173.528 86.9958C173.918 86.7001 174.2 86.2835 174.328 85.8112C174.456 85.3388 174.425 84.8372 174.238 84.3846L168.82 71.2353C168.437 70.3047 167.474 69.7492 166.477 69.8825L161.352 70.5676Z" fill="#7A6D79"/>
            <path d="M142.28 102.716C142.078 102.799 141.862 102.842 141.644 102.841C141.425 102.841 141.209 102.798 141.007 102.714C140.806 102.63 140.623 102.507 140.469 102.352C140.315 102.198 140.192 102.014 140.109 101.812L133.007 84.5761C132.924 84.3742 132.881 84.1579 132.882 83.9395C132.882 83.7212 132.925 83.505 133.009 83.3034C133.093 83.1019 133.216 82.9188 133.371 82.7647C133.526 82.6106 133.709 82.4885 133.911 82.4053C134.113 82.3221 134.329 82.2795 134.548 82.2798C134.766 82.2802 134.982 82.3236 135.184 82.4076C135.385 82.4915 135.568 82.6143 135.722 82.769C135.876 82.9237 135.999 83.1073 136.082 83.3092L143.184 100.545C143.267 100.747 143.31 100.963 143.309 101.182C143.309 101.4 143.266 101.616 143.182 101.818C143.098 102.019 142.975 102.203 142.82 102.357C142.666 102.511 142.482 102.633 142.28 102.716ZM151.035 96.7831C150.834 96.8663 150.617 96.9089 150.399 96.9085C150.181 96.9081 149.964 96.8647 149.763 96.7808C149.561 96.6969 149.378 96.574 149.224 96.4193C149.07 96.2647 148.948 96.0811 148.865 95.8792L143.341 82.4748C143.258 82.2729 143.216 82.0567 143.216 81.8383C143.216 81.6199 143.26 81.4038 143.344 81.2022C143.428 81.0006 143.55 80.8176 143.705 80.6635C143.86 80.5094 144.043 80.3872 144.245 80.3041C144.447 80.2209 144.663 80.1782 144.882 80.1786C145.1 80.179 145.316 80.2224 145.518 80.3063C145.719 80.3903 145.902 80.5131 146.057 80.6678C146.211 80.8225 146.333 81.006 146.416 81.2079L151.939 94.6123C152.107 95.02 152.106 95.4778 151.937 95.8849C151.767 96.292 151.443 96.6151 151.035 96.7831ZM131.887 104.673C131.685 104.757 131.468 104.799 131.25 104.799C131.032 104.798 130.816 104.755 130.614 104.671C130.412 104.587 130.229 104.464 130.075 104.31C129.921 104.155 129.799 103.971 129.716 103.77L124.192 90.3652C124.109 90.1633 124.067 89.947 124.067 89.7286C124.067 89.5103 124.111 89.2941 124.195 89.0925C124.279 88.891 124.402 88.7079 124.556 88.5538C124.711 88.3997 124.894 88.2776 125.096 88.1944C125.298 88.1112 125.515 88.0686 125.733 88.0689C125.951 88.0693 126.167 88.1127 126.369 88.1967C126.571 88.2806 126.754 88.4034 126.908 88.5581C127.062 88.7128 127.184 88.8964 127.267 89.0983L132.79 102.503C132.874 102.705 132.916 102.921 132.916 103.139C132.915 103.358 132.872 103.574 132.788 103.775C132.704 103.977 132.581 104.16 132.427 104.314C132.272 104.468 132.088 104.59 131.887 104.673ZM159.207 89.4323C159.005 89.5155 158.789 89.5582 158.57 89.5578C158.352 89.5574 158.136 89.514 157.934 89.43C157.733 89.3461 157.55 89.2233 157.395 89.0686C157.241 88.9139 157.119 88.7303 157.036 88.5284L153.692 80.4135C153.524 80.0058 153.525 79.548 153.695 79.1409C153.864 78.7338 154.188 78.4108 154.596 78.2428C155.004 78.0748 155.462 78.0756 155.869 78.2451C156.276 78.4146 156.599 78.7389 156.767 79.1466L160.111 87.2615C160.279 87.6693 160.278 88.127 160.108 88.5341C159.939 88.9412 159.615 89.2643 159.207 89.4323ZM120.909 105.213C120.707 105.296 120.491 105.339 120.272 105.338C120.054 105.338 119.838 105.295 119.636 105.211C119.435 105.127 119.252 105.004 119.097 104.849C118.943 104.695 118.821 104.511 118.738 104.309L115.394 96.1942C115.226 95.7865 115.227 95.3288 115.397 94.9217C115.566 94.5146 115.89 94.1915 116.298 94.0235C116.706 93.8555 117.164 93.8563 117.571 94.0258C117.978 94.1953 118.301 94.5196 118.469 94.9273L121.813 103.042C121.981 103.45 121.98 103.908 121.81 104.315C121.641 104.722 121.317 105.045 120.909 105.213Z" fill="#685E68"/>
        </g>
    </g>
    <defs>
        <filter id="filter0_f_2001_170" x="12.8826" y="-29.5481" width="250.509" height="248.583" filterUnits="userSpaceOnUse" color-interpolation-filters="sRGB">
            <feFlood flood-opacity="0" result="BackgroundImageFix"/>
            <feBlend mode="normal" in="SourceGraphic" in2="BackgroundImageFix" result="shape"/>
            <feGaussianBlur stdDeviation="30" result="effect1_foregroundBlur_2001_170"/>
        </filter>
        <clipPath id="clip0_2001_170">
            <rect width="173" height="120" fill="white"/>
        </clipPath>
        <clipPath id="clip1_2001_170">
            <rect width="110.187" height="110.187" fill="white" transform="translate(71 49.9785) rotate(-22.3942)"/>
        </clipPath>
    </defs>
</svg>
