<svg width="80" height="80" viewBox="0 0 80 80" fill="none" xmlns="http://www.w3.org/2000/svg">
<g clip-path="url(#clip0_2001_74)">
<path d="M7.03125 37.6562H30.625C34.5022 37.6562 37.6562 34.5022 37.6562 30.625V7.03125C37.6562 3.15406 34.5022 0 30.625 0H7.03125C3.15406 0 0 3.15406 0 7.03125V30.625C0 34.5022 3.15406 37.6562 7.03125 37.6562ZM11.875 16.5625H16.5625V11.875C16.5625 10.5795 17.6108 9.53125 18.9062 9.53125C20.2017 9.53125 21.25 10.5795 21.25 11.875V16.5625H25.9375C27.233 16.5625 28.2812 17.6108 28.2812 18.9062C28.2812 20.2017 27.233 21.25 25.9375 21.25H21.25V25.9375C21.25 27.233 20.2017 28.2812 18.9062 28.2812C17.6108 28.2812 16.5625 27.233 16.5625 25.9375V21.25H11.875C10.5795 21.25 9.53125 20.2017 9.53125 18.9062C9.53125 17.6108 10.5795 16.5625 11.875 16.5625ZM72.9688 0H49.375C45.4978 0 42.3438 3.15406 42.3438 7.03125V30.625C42.3438 34.5022 45.4978 37.6562 49.375 37.6562H72.9688C76.8459 37.6562 80 34.5022 80 30.625V7.03125C80 3.15406 76.8459 0 72.9688 0ZM68.2812 21.25H54.0625C52.767 21.25 51.7188 20.2017 51.7188 18.9062C51.7188 17.6108 52.767 16.5625 54.0625 16.5625H68.2812C69.5767 16.5625 70.625 17.6108 70.625 18.9062C70.625 20.2017 69.5767 21.25 68.2812 21.25ZM72.9688 42.3438H49.375C45.4978 42.3438 42.3438 45.4978 42.3438 49.375V72.9688C42.3438 76.8459 45.4978 80 49.375 80H72.9688C76.8459 80 80 76.8459 80 72.9688V49.375C80 45.4978 76.8459 42.3438 72.9688 42.3438ZM68.2812 68.125H54.0625C52.767 68.125 51.7188 67.0767 51.7188 65.7812C51.7188 64.4858 52.767 63.4375 54.0625 63.4375H68.2812C69.5767 63.4375 70.625 64.4858 70.625 65.7812C70.625 67.0767 69.5767 68.125 68.2812 68.125ZM68.2812 58.75H54.0625C52.767 58.75 51.7188 57.7017 51.7188 56.4062C51.7188 55.1108 52.767 54.0625 54.0625 54.0625H68.2812C69.5767 54.0625 70.625 55.1108 70.625 56.4062C70.625 57.7017 69.5767 58.75 68.2812 58.75ZM37.6562 72.9688V49.375C37.6562 45.4978 34.5022 42.3438 30.625 42.3438H7.03125C3.15406 42.3438 0 45.4978 0 49.375V72.9688C0 76.8459 3.15406 80 7.03125 80H30.625C34.5022 80 37.6562 76.8459 37.6562 72.9688ZM25.5347 64.408C26.4502 65.3234 26.4502 66.8067 25.5347 67.7222C24.6192 68.6377 23.1359 68.6377 22.2205 67.7222L18.9062 64.408L15.592 67.7222C14.6766 68.6377 13.1933 68.6377 12.2778 67.7222C11.3623 66.8067 11.3623 65.3234 12.2778 64.408L15.592 61.0938L12.2778 57.7795C11.3623 56.8641 11.3623 55.3808 12.2778 54.4653C13.1933 53.5498 14.6766 53.5498 15.592 54.4653L18.9062 57.7795L22.2205 54.4653C23.1359 53.5498 24.6192 53.5498 25.5347 54.4653C26.4502 55.3808 26.4502 56.8641 25.5347 57.7795L22.2205 61.0938L25.5347 64.408Z" fill="white"/>
</g>
<defs>
<clipPath id="clip0_2001_74">
<rect width="80" height="80" fill="white"/>
</clipPath>
</defs>
</svg>
