<svg width="173" height="120" viewBox="0 0 173 120" fill="none" xmlns="http://www.w3.org/2000/svg">
    <g clip-path="url(#clip0_265_1983)">
        <g filter="url(#filter0_f_265_1983)">
            <path fill-rule="evenodd" clip-rule="evenodd" d="M192.738 57.8234C213.066 83.7961 202.463 120.401 176.46 140.753C148.974 162.265 108.612 167.936 87.125 140.482C63.5597 110.373 70.1239 66.9953 100.269 43.4023C129.068 20.8625 170.225 29.0579 192.738 57.8234Z" fill="#265A67"/>
        </g>
        <g clip-path="url(#clip1_265_1983)">
            <path d="M198.854 82.976L203.466 90.2696C204.426 91.7887 204.744 93.6272 204.349 95.3805C203.954 97.1338 202.878 98.6584 201.359 99.6189L115.836 153.692C114.317 154.652 112.479 154.97 110.726 154.575C108.972 154.18 107.448 153.105 106.487 151.586L101.876 144.292L198.854 82.976Z" fill="#F47548"/>
            <path d="M157.832 27.7337L69.5613 83.5442C67.1567 85.0645 66.4399 88.2463 67.9602 90.6509L102.738 145.656C104.258 148.061 107.44 148.777 109.845 147.257L198.115 91.4466C200.52 89.9262 201.237 86.7444 199.716 84.3398L164.939 29.3348C163.418 26.9302 160.237 26.2134 157.832 27.7337Z" fill="#F4A261"/>
            <path d="M89.5834 70.885L135.234 42.0217L138.594 47.3353L92.943 76.1986L89.5834 70.885Z" fill="#F4A261"/>
            <path d="M132.577 43.7015L92.2402 69.2052C91.5356 69.6507 91.0368 70.3579 90.8535 71.1712C90.6703 71.9844 90.8177 72.8372 91.2632 73.5418C91.7087 74.2464 92.4159 74.7452 93.2291 74.9285C94.0424 75.1117 94.8952 74.9643 95.5998 74.5188L135.937 49.0151C136.641 48.5696 137.14 47.8625 137.323 47.0492C137.507 46.2359 137.359 45.3832 136.914 44.6785C136.468 43.9739 135.761 43.4751 134.948 43.2919C134.135 43.1087 133.282 43.256 132.577 43.7015ZM147.138 119.959C147.584 120.663 148.291 121.162 149.104 121.345C149.917 121.529 150.77 121.381 151.475 120.936L168.86 109.944C169.565 109.498 170.064 108.791 170.247 107.978C170.43 107.164 170.283 106.312 169.837 105.607C169.392 104.902 168.685 104.404 167.871 104.22C167.058 104.037 166.205 104.185 165.501 104.63L148.115 115.622C147.411 116.068 146.912 116.775 146.729 117.588C146.545 118.401 146.693 119.254 147.138 119.959Z" fill="#F4D49D"/>
            <path d="M159.828 33.9096L74.2948 87.9891C74.066 88.1337 73.9979 88.4364 74.1425 88.6652L107.189 140.933C107.334 141.161 107.637 141.229 107.865 141.085L193.398 87.0053C193.627 86.8607 193.695 86.558 193.551 86.3293L160.504 34.0619C160.359 33.8332 160.057 33.765 159.828 33.9096Z" fill="#264653"/>
            <path d="M93.9247 85.9144L90.9927 98.9673C90.8954 99.4046 90.6703 99.8032 90.3459 100.112C90.0216 100.421 89.6126 100.627 89.1711 100.703C88.7296 100.779 88.2755 100.722 87.8664 100.539C87.4574 100.357 87.1119 100.056 86.8739 99.6767L82.256 92.373C81.8222 91.6809 81.6795 90.8454 81.859 90.0485C82.0385 89.2516 82.5257 88.558 83.2145 88.1188L90.5182 83.501C90.8963 83.2627 91.3367 83.1419 91.7835 83.154C92.2303 83.1661 92.6635 83.3105 93.0283 83.5689C93.393 83.8273 93.6729 84.1881 93.8324 84.6056C93.992 85.0231 94.0241 85.4786 93.9247 85.9144ZM160.364 42.988L161.597 44.9377C163.526 47.9963 164.166 51.6941 163.377 55.2232L152.791 102.174C151.997 105.699 149.836 108.764 146.782 110.696L111.567 132.961C110.876 133.398 110.039 133.543 109.241 133.363C108.443 133.183 107.75 132.694 107.313 132.003L95.5029 113.324C93.6561 110.388 93.0447 106.841 93.802 103.455L98.3972 83.0583C99.1648 79.6754 101.238 76.7329 104.166 74.872L156.11 42.0296C156.802 41.5957 157.638 41.453 158.434 41.6325C159.231 41.8121 159.925 42.2993 160.364 42.988ZM162.218 94.3612L168.533 66.3299C168.672 65.7009 168.996 65.1275 169.461 64.6825C169.927 64.2375 170.515 63.941 171.15 63.8306C171.784 63.7201 172.438 63.8008 173.026 64.0624C173.615 64.3239 174.113 64.7545 174.457 65.2994L185.411 82.6242C185.844 83.3154 185.986 84.1501 185.805 84.9455C185.624 85.741 185.135 86.4324 184.446 86.8683L167.101 97.8349C166.557 98.1716 165.925 98.3402 165.286 98.3196C164.646 98.299 164.027 98.0902 163.506 97.7194C162.985 97.3485 162.584 96.832 162.355 96.2347C162.126 95.6373 162.078 94.9856 162.218 94.3612Z" fill="#265A67"/>
            <path d="M150.388 48.2773L136.68 56.9446C136.412 57.114 136.222 57.3829 136.153 57.6921C136.083 58.0013 136.139 58.3256 136.308 58.5935C136.478 58.8614 136.747 59.0511 137.056 59.1207C137.365 59.1904 137.689 59.1344 137.957 58.965L151.666 50.2977C151.934 50.1283 152.123 49.8594 152.193 49.5502C152.263 49.2409 152.206 48.9167 152.037 48.6488C151.868 48.3809 151.599 48.1912 151.29 48.1215C150.98 48.0519 150.656 48.1079 150.388 48.2773ZM130.306 60.9748L127.841 62.5333C127.573 62.7027 127.383 62.9716 127.313 63.2808C127.244 63.59 127.3 63.9143 127.469 64.1822C127.639 64.4501 127.908 64.6398 128.217 64.7094C128.526 64.7791 128.85 64.7231 129.118 64.5537L131.583 62.9952C131.851 62.8258 132.041 62.5569 132.11 62.2477C132.18 61.9385 132.124 61.6142 131.954 61.3463C131.785 61.0784 131.516 60.8887 131.207 60.8191C130.898 60.7494 130.573 60.8054 130.306 60.9748Z" fill="#26828A"/>
            <path d="M139.577 61.2357C139.407 60.9678 139.139 60.7782 138.829 60.7085C138.52 60.6388 138.196 60.6949 137.928 60.8642L117.724 73.6384C117.5 73.7603 117.32 73.9508 117.212 74.1821C117.104 74.4134 117.072 74.6733 117.123 74.9237L119.962 90.5069L114.926 87.5965C114.733 87.4808 114.512 87.4219 114.287 87.4264C114.062 87.431 113.843 87.4988 113.655 87.6221L108.604 90.8156C108.337 90.985 108.147 91.2539 108.077 91.5632C108.008 91.8724 108.064 92.1966 108.233 92.4645C108.402 92.7325 108.671 92.9221 108.98 92.9918C109.29 93.0615 109.614 93.0054 109.882 92.836L114.286 90.0513L120.996 93.9538C121.196 94.0823 121.429 94.1484 121.667 94.1435C121.904 94.1387 122.135 94.0631 122.329 93.9266C122.524 93.79 122.673 93.5986 122.758 93.3768C122.843 93.155 122.86 92.9129 122.807 92.6813L119.651 75.2766L139.198 62.9176C139.336 62.8343 139.455 62.7241 139.549 62.5934C139.644 62.4628 139.71 62.3145 139.746 62.1574C139.781 62.0003 139.784 61.8377 139.755 61.6793C139.726 61.5209 139.666 61.3701 139.577 61.2357ZM100.157 96.1287C100.001 96.0905 99.8384 96.0841 99.6798 96.11C99.5212 96.1359 99.3695 96.1935 99.2338 96.2794C99.098 96.3652 98.9809 96.4776 98.8895 96.6097C98.7981 96.7419 98.7343 96.8911 98.7019 97.0484L98.0417 99.9404L95.1561 99.2903C95.0002 99.2552 94.8389 99.2511 94.6814 99.2783C94.5239 99.3055 94.3734 99.3635 94.2383 99.4489C94.1032 99.5343 93.9863 99.6455 93.8942 99.7761C93.802 99.9066 93.7366 100.054 93.7014 100.21C93.6663 100.366 93.6622 100.527 93.6894 100.685C93.7167 100.842 93.7746 100.993 93.86 101.128C93.9454 101.263 94.0566 101.38 94.1872 101.472C94.3178 101.564 94.4653 101.63 94.6212 101.665L97.5067 102.315L96.863 105.21C96.8279 105.366 96.8238 105.528 96.8511 105.685C96.8783 105.843 96.9362 105.993 97.0216 106.128C97.107 106.263 97.2182 106.38 97.3488 106.472C97.4794 106.565 97.6269 106.63 97.7828 106.665C97.9387 106.7 98.1 106.704 98.2575 106.677C98.4149 106.65 98.5655 106.592 98.7006 106.507C98.8357 106.421 98.9526 106.31 99.0447 106.179C99.1368 106.049 99.2023 105.901 99.2375 105.745L99.8876 102.86L102.783 103.504C102.939 103.539 103.1 103.543 103.258 103.516C103.415 103.488 103.566 103.43 103.701 103.345C103.836 103.26 103.953 103.148 104.045 103.018C104.137 102.887 104.203 102.74 104.238 102.584C104.273 102.428 104.277 102.267 104.25 102.109C104.223 101.952 104.165 101.801 104.079 101.666C103.994 101.531 103.883 101.414 103.752 101.322C103.622 101.23 103.474 101.164 103.318 101.129L100.426 100.469L101.076 97.5833C101.114 97.4273 101.121 97.2651 101.095 97.1066C101.069 96.948 101.011 96.7963 100.926 96.6605C100.84 96.5248 100.727 96.4077 100.595 96.3163C100.463 96.2249 100.314 96.1611 100.157 96.1287ZM143.827 77.5528L144.477 74.6672L147.353 75.3237C147.509 75.3588 147.67 75.3629 147.828 75.3357C147.985 75.3085 148.136 75.2505 148.271 75.1651C148.406 75.0797 148.523 74.9685 148.615 74.8379C148.707 74.7073 148.772 74.5598 148.808 74.4039C148.843 74.248 148.847 74.0867 148.82 73.9293C148.792 73.7718 148.734 73.6212 148.649 73.4861C148.564 73.351 148.452 73.2341 148.322 73.142C148.191 73.0499 148.044 72.9844 147.888 72.9493L145.006 72.2827L145.656 69.3971C145.726 69.0809 145.668 68.7498 145.494 68.4766C145.32 68.2035 145.044 68.0107 144.728 67.9406C144.412 67.8705 144.081 67.9289 143.808 68.1029C143.534 68.2769 143.342 68.5523 143.272 68.8686L142.621 71.7541L139.736 71.104C139.579 71.0644 139.415 71.0571 139.255 71.0826C139.095 71.1082 138.942 71.166 138.805 71.2527C138.668 71.3393 138.55 71.4529 138.458 71.5866C138.366 71.7202 138.303 71.8712 138.271 72.0302C138.233 72.1862 138.227 72.3484 138.252 72.5069C138.278 72.6655 138.336 72.8172 138.422 72.953C138.508 73.0888 138.62 73.2058 138.752 73.2972C138.884 73.3886 139.033 73.4524 139.191 73.4848L142.076 74.1349L141.433 77.0306C141.395 77.1867 141.388 77.3488 141.414 77.5074C141.44 77.6659 141.498 77.8176 141.583 77.9534C141.669 78.0892 141.782 78.2063 141.914 78.2977C142.046 78.3891 142.195 78.4529 142.352 78.4853C142.511 78.5265 142.676 78.5347 142.837 78.5095C142.999 78.4843 143.154 78.4262 143.292 78.3388C143.43 78.2514 143.549 78.1365 143.641 78.0013C143.733 77.8661 143.797 77.7135 143.827 77.5528Z" fill="#E6E7E8"/>
            <path d="M131.948 73.6809L130.833 78.6276L125.689 77.4686C125.374 77.3976 125.044 77.4547 124.771 77.6271C124.498 77.7996 124.305 78.0734 124.234 78.3883C124.163 78.7032 124.22 79.0333 124.393 79.3061C124.565 79.5789 124.839 79.772 125.154 79.843L130.298 81.002L128.87 87.2641C128.793 87.5775 128.843 87.9088 129.01 88.1852C129.177 88.4616 129.446 88.6604 129.76 88.7379C130.073 88.8154 130.404 88.7653 130.681 88.5985C130.957 88.4317 131.156 88.1619 131.234 87.8485L134.298 74.2451C134.338 74.0879 134.345 73.9243 134.32 73.7642C134.294 73.6041 134.236 73.4509 134.15 73.3139C134.063 73.1769 133.949 73.0589 133.816 72.9672C133.682 72.8754 133.531 72.8119 133.372 72.7803C133.064 72.7118 132.741 72.7681 132.474 72.9368C132.207 73.1056 132.018 73.3731 131.948 73.6809ZM109.79 88.0159C110.789 87.3802 111.496 86.3747 111.757 85.2191C112.017 84.0636 111.809 82.8519 111.179 81.849L110.815 81.2732C110.501 80.7771 110.093 80.3476 109.613 80.0092C109.134 79.6709 108.592 79.4303 108.019 79.3013C107.447 79.1723 106.854 79.1574 106.276 79.2573C105.697 79.3573 105.144 79.5702 104.648 79.8839C104.152 80.1976 103.722 80.6059 103.384 81.0856C103.046 81.5653 102.805 82.1069 102.676 82.6796C102.547 83.2522 102.532 83.8447 102.632 84.4231C102.732 85.0015 102.945 85.5546 103.259 86.0508L103.623 86.6266C104.258 87.6261 105.264 88.3333 106.42 88.5936C107.575 88.854 108.787 88.6463 109.79 88.0159ZM105.319 84.7478C105.177 84.5223 105.08 84.2709 105.035 84.0079C104.989 83.745 104.996 83.4757 105.055 83.2154C105.113 82.9551 105.223 82.7089 105.376 82.4909C105.53 82.2729 105.725 82.0873 105.951 81.9447C106.177 81.8021 106.428 81.7053 106.691 81.6599C106.954 81.6144 107.223 81.6212 107.483 81.6799C107.744 81.7385 107.99 81.8479 108.208 82.0016C108.426 82.1554 108.612 82.3507 108.754 82.5762L109.118 83.152C109.261 83.3775 109.358 83.6289 109.403 83.8918C109.448 84.1548 109.442 84.4241 109.383 84.6844C109.324 84.9446 109.215 85.1908 109.061 85.4089C108.907 85.6269 108.712 85.8125 108.487 85.9551C108.261 86.0977 108.01 86.1945 107.747 86.2399C107.484 86.2854 107.215 86.2786 106.954 86.2199C106.694 86.1613 106.448 86.0519 106.23 85.8981C106.012 85.7444 105.826 85.5491 105.684 85.3236L105.319 84.7478ZM121.776 109.524C122.468 109.087 123.014 108.454 123.346 107.707C123.678 106.959 123.781 106.13 123.641 105.324C123.502 104.518 123.127 103.772 122.563 103.179C122 102.586 121.273 102.174 120.475 101.994C119.677 101.814 118.844 101.875 118.081 102.169C117.317 102.463 116.658 102.977 116.187 103.645C115.716 104.313 115.453 105.106 115.432 105.924C115.412 106.742 115.634 107.547 116.071 108.238C116.657 109.165 117.588 109.822 118.657 110.063C119.727 110.304 120.849 110.11 121.776 109.524ZM118.666 104.604C118.95 104.424 119.281 104.333 119.617 104.342C119.953 104.351 120.279 104.459 120.553 104.653C120.828 104.848 121.038 105.119 121.158 105.433C121.278 105.747 121.302 106.09 121.227 106.417C121.152 106.745 120.981 107.043 120.737 107.274C120.492 107.504 120.184 107.657 119.853 107.712C119.521 107.768 119.181 107.724 118.874 107.585C118.568 107.447 118.31 107.221 118.132 106.935C117.895 106.555 117.818 106.096 117.918 105.66C118.018 105.223 118.287 104.843 118.666 104.604ZM130.175 105.43C129.481 105.865 128.933 106.497 128.599 107.245C128.265 107.992 128.16 108.822 128.299 109.63C128.437 110.437 128.812 111.185 129.376 111.779C129.939 112.372 130.667 112.786 131.466 112.966C132.265 113.145 133.099 113.084 133.863 112.789C134.627 112.495 135.286 111.98 135.757 111.31C136.228 110.64 136.49 109.845 136.509 109.027C136.528 108.208 136.303 107.402 135.863 106.711C135.277 105.789 134.349 105.137 133.283 104.897C132.218 104.657 131.1 104.848 130.175 105.43ZM133.285 110.349C133.002 110.531 132.672 110.625 132.336 110.618C132 110.612 131.673 110.506 131.397 110.313C131.122 110.121 130.909 109.851 130.787 109.538C130.665 109.225 130.639 108.882 130.711 108.554C130.784 108.226 130.953 107.927 131.196 107.694C131.439 107.462 131.745 107.307 132.076 107.249C132.407 107.192 132.748 107.233 133.056 107.37C133.363 107.506 133.623 107.73 133.803 108.014C134.042 108.393 134.122 108.851 134.025 109.288C133.928 109.726 133.662 110.107 133.285 110.349ZM128.571 95.9376C128.415 95.8994 128.253 95.8931 128.094 95.919C127.936 95.9449 127.784 96.0025 127.648 96.0883C127.512 96.1742 127.395 96.2865 127.304 96.4186C127.212 96.5508 127.149 96.7 127.116 96.8573L122.404 117.583C122.333 117.822 122.339 118.077 122.421 118.313C122.502 118.548 122.655 118.752 122.859 118.896C123.062 119.041 123.305 119.117 123.555 119.117C123.804 119.116 124.046 119.037 124.249 118.891C124.384 118.806 124.502 118.695 124.594 118.564C124.686 118.433 124.751 118.285 124.784 118.128L129.465 97.3519C129.531 97.046 129.474 96.7266 129.307 96.4621C129.14 96.1977 128.875 96.0094 128.571 95.9376ZM144.607 93.0099L140.082 95.8713C139.814 96.0407 139.624 96.3096 139.554 96.6188C139.485 96.9281 139.541 97.2523 139.71 97.5202C139.879 97.7881 140.148 97.9778 140.458 98.0474C140.767 98.1171 141.091 98.0611 141.359 97.8917L145.885 95.0303C146.153 94.8609 146.342 94.592 146.412 94.2828C146.482 93.9735 146.425 93.6493 146.256 93.3814C146.087 93.1134 145.818 92.9238 145.509 92.8541C145.199 92.7845 144.875 92.8405 144.607 93.0099ZM147.475 97.5457L142.949 100.407C142.681 100.576 142.492 100.845 142.422 101.155C142.352 101.464 142.408 101.788 142.578 102.056C142.747 102.324 143.016 102.514 143.325 102.583C143.635 102.653 143.959 102.597 144.227 102.427L148.752 99.566C149.02 99.3966 149.21 99.1278 149.28 98.8185C149.349 98.5093 149.293 98.1851 149.124 97.9171C148.955 97.6492 148.686 97.4596 148.376 97.3899C148.067 97.3202 147.743 97.3763 147.475 97.5457ZM158.959 70.3755C158.155 70.8837 157.586 71.6904 157.377 72.618C157.168 73.5457 157.336 74.5185 157.844 75.3222L158.483 76.3324C158.652 76.6003 158.921 76.79 159.23 76.8596C159.54 76.9293 159.864 76.8733 160.132 76.7039C160.4 76.5345 160.589 76.2656 160.659 75.9564C160.729 75.6471 160.673 75.3229 160.503 75.055L159.865 74.0448C159.769 73.9239 159.7 73.7842 159.662 73.6349C159.624 73.4857 159.618 73.33 159.644 73.1782C159.67 73.0263 159.727 72.8817 159.813 72.7535C159.898 72.6253 160.01 72.5166 160.14 72.4342C160.27 72.3519 160.416 72.2979 160.569 72.2756C160.721 72.2533 160.877 72.2634 161.025 72.305C161.173 72.3466 161.311 72.419 161.43 72.5173C161.548 72.6157 161.645 72.7379 161.713 72.876L161.835 73.0679C161.989 73.3149 162.04 73.6126 161.977 73.897L160.703 79.5527C160.632 79.7917 160.638 80.0469 160.72 80.2824C160.801 80.5179 160.954 80.722 161.158 80.8661C161.361 81.0103 161.604 81.0872 161.854 81.0862C162.103 81.0853 162.346 81.0064 162.548 80.8607L166.589 78.3058C166.857 78.1364 167.046 77.8675 167.116 77.5583C167.185 77.2491 167.129 76.9248 166.96 76.6569C166.791 76.389 166.522 76.1994 166.213 76.1297C165.903 76.06 165.579 76.1161 165.311 76.2854L163.836 77.218L164.468 74.4148C164.65 73.7031 164.615 72.953 164.367 72.2613C164.12 71.5696 163.671 70.9678 163.078 70.5334C162.486 70.0989 161.777 69.8517 161.043 69.8236C160.308 69.7955 159.583 69.9877 158.959 70.3755ZM152.922 80.0607L150.204 81.7788C146.547 84.091 148.416 89.6404 150.507 88.3182C150.775 88.1489 150.964 87.88 151.034 87.5707C151.104 87.2615 151.048 86.9373 150.878 86.6693C150.591 86.2156 150.496 85.6668 150.612 85.1428C150.729 84.6188 151.048 84.1621 151.5 83.8726L154.217 82.1545C154.443 82.0119 154.694 81.9151 154.957 81.8697C155.22 81.8242 155.489 81.831 155.749 81.8897C156.01 81.9483 156.256 82.0577 156.474 82.2115C156.692 82.3652 156.878 82.5605 157.02 82.786L157.346 83.3012C157.635 83.7597 157.731 84.3138 157.614 84.8429L156.561 89.5524C156.491 89.7914 156.497 90.0465 156.578 90.282C156.66 90.5175 156.813 90.7216 157.016 90.8658C157.22 91.0099 157.463 91.0869 157.712 91.0859C157.962 91.0849 158.204 91.006 158.406 90.8603C158.768 90.6311 159.173 90.4776 159.595 90.4091C160.018 90.3407 160.45 90.3586 160.866 90.462C161.282 90.5653 161.672 90.7519 162.014 91.0104C162.355 91.2689 162.64 91.594 162.853 91.966C163.141 92.4214 163.236 92.9726 163.117 93.4983C162.999 94.024 162.677 94.4811 162.221 94.7691L159.504 96.4872C159.048 96.7714 158.499 96.8639 157.976 96.7443C157.452 96.6248 156.998 96.303 156.711 95.8493C156.541 95.5814 156.272 95.3917 155.963 95.3221C155.654 95.2524 155.33 95.3084 155.062 95.4778C152.951 96.8127 157.203 100.855 160.84 98.5555L163.557 96.8373C164.559 96.2038 165.268 95.1981 165.529 94.0416C165.79 92.8851 165.58 91.6725 164.946 90.6704C164.39 89.7379 163.575 88.987 162.6 88.5089C161.625 88.0309 160.532 87.8464 159.454 87.9777L160.045 85.356C160.296 84.1975 160.083 82.9869 159.454 81.9828L159.109 81.4373C158.794 80.9394 158.384 80.5087 157.902 80.1698C157.42 79.831 156.876 79.5907 156.301 79.4627C155.726 79.3348 155.132 79.3218 154.552 79.4244C153.972 79.527 153.418 79.7433 152.922 80.0607Z" fill="#E6E7E8"/>
        </g>
    </g>
    <defs>
        <filter id="filter0_f_265_1983" x="12.8826" y="-29.5481" width="250.509" height="248.583" filterUnits="userSpaceOnUse" color-interpolation-filters="sRGB">
            <feFlood flood-opacity="0" result="BackgroundImageFix"/>
            <feBlend mode="normal" in="SourceGraphic" in2="BackgroundImageFix" result="shape"/>
            <feGaussianBlur stdDeviation="30" result="effect1_foregroundBlur_265_1983"/>
        </filter>
        <clipPath id="clip0_265_1983">
            <rect width="173" height="120" fill="white"/>
        </clipPath>
        <clipPath id="clip1_265_1983">
            <rect width="114.737" height="114.737" fill="white" transform="translate(57 73.316) rotate(-32.3037)"/>
        </clipPath>
    </defs>
</svg>
