<svg width="173" height="120" viewBox="0 0 173 120" fill="none" xmlns="http://www.w3.org/2000/svg">
    <g clip-path="url(#clip0_265_1959)">
        <g filter="url(#filter0_f_265_1959)">
            <path fill-rule="evenodd" clip-rule="evenodd" d="M192.738 57.8234C213.066 83.7961 202.463 120.401 176.46 140.753C148.974 162.265 108.612 167.936 87.125 140.482C63.5597 110.373 70.1239 66.9953 100.269 43.4023C129.068 20.8625 170.225 29.0579 192.738 57.8234Z" fill="#671C80"/>
        </g>
        <g clip-path="url(#clip1_265_1959)">
            <path d="M165.531 128.516C187.715 113.504 193.528 83.3505 178.516 61.1669C163.504 38.9834 133.351 33.1699 111.167 48.1821C88.9833 63.1944 83.1698 93.3476 98.1821 115.531C113.194 137.715 143.348 143.528 165.531 128.516Z" fill="#471A52"/>
            <path d="M178.516 61.1669C193.54 83.3686 187.73 113.494 165.531 128.516L111.167 48.1821C133.369 33.1576 163.494 38.9684 178.516 61.1669Z" fill="#26072D"/>
            <path d="M98.1821 115.531C103.033 122.7 109.558 128.317 117.147 131.989L138.349 88.349L98.1821 115.531Z" fill="#671C80"/>
            <path d="M138.349 88.3491L178.516 61.167C173.665 53.9983 167.14 48.3813 159.551 44.7096L138.349 88.3491Z" fill="#471A52"/>
            <path d="M148.901 103.942C157.512 98.1139 159.769 86.4087 153.941 77.7972C148.114 69.1857 136.409 66.929 127.797 72.7566C119.186 78.5842 116.929 90.2895 122.757 98.9009C128.584 107.512 140.289 109.769 148.901 103.942Z" fill="#F23866"/>
            <path d="M153.942 77.7968C159.761 86.3951 157.499 98.1233 148.901 103.942L127.797 72.7561C136.395 66.9374 148.123 69.1986 153.942 77.7968Z" fill="#D9215E"/>
            <path d="M145.715 99.2344C151.727 95.166 153.303 86.9944 149.234 80.9825C145.166 74.9707 136.994 73.3952 130.983 77.4636C124.971 81.532 123.395 89.7036 127.464 95.7155C131.532 101.727 139.704 103.303 145.715 99.2344Z" fill="#FF698E"/>
            <path d="M149.235 80.9823C153.296 86.9838 151.717 95.1736 145.716 99.235L130.982 77.4633C136.984 73.4019 145.174 74.9808 149.235 80.9823Z" fill="#F23866"/>
            <path d="M170.217 97.523C168.752 96.9597 167.108 97.6905 166.544 99.1555C164.64 104.103 161.473 108.466 157.36 111.811C156.142 112.8 155.957 114.59 156.947 115.808C157.936 117.025 159.723 117.211 160.941 116.224C161.48 115.653 168.124 110.885 171.849 101.195C172.413 99.7302 171.682 98.0862 170.217 97.523Z" fill="#471A52"/>
            <path d="M119.752 60.8915C118.763 59.6745 116.976 59.4889 115.758 60.4759C115.219 61.0469 108.577 65.8127 104.852 75.5052C104.289 76.9703 105.02 78.6143 106.486 79.1773C107.469 79.5551 108.533 79.3499 109.297 78.731C109.683 78.4178 109.98 78.0084 110.158 77.544C112.061 72.5966 115.227 68.2338 119.339 64.8891C120.557 63.8995 120.742 62.1096 119.752 60.8915Z" fill="#671C80"/>
            <path d="M139.947 90.7104C141.247 89.8308 141.588 88.064 140.708 86.7642C139.828 85.4644 138.061 85.1237 136.762 86.0034C135.462 86.883 135.121 88.6498 136.001 89.9496C136.88 91.2494 138.647 91.5901 139.947 90.7104Z" fill="#E7F4FD"/>
            <path d="M140.708 86.7642C141.587 88.0634 141.246 89.8313 139.947 90.7105L136.762 86.0034C138.061 85.1242 139.829 85.4651 140.708 86.7642Z" fill="#D0E9FB"/>
        </g>
    </g>
    <defs>
        <filter id="filter0_f_265_1959" x="12.8826" y="-29.5481" width="250.509" height="248.583" filterUnits="userSpaceOnUse" color-interpolation-filters="sRGB">
            <feFlood flood-opacity="0" result="BackgroundImageFix"/>
            <feBlend mode="normal" in="SourceGraphic" in2="BackgroundImageFix" result="shape"/>
            <feGaussianBlur stdDeviation="30" result="effect1_foregroundBlur_265_1959"/>
        </filter>
        <clipPath id="clip0_265_1959">
            <rect width="173" height="120" fill="white"/>
        </clipPath>
        <clipPath id="clip1_265_1959">
            <rect width="97" height="97" fill="white" transform="translate(71 75.3643) rotate(-34.0873)"/>
        </clipPath>
    </defs>
</svg>
