<svg width="80" height="80" viewBox="0 0 80 80" fill="none" xmlns="http://www.w3.org/2000/svg">
<g clip-path="url(#clip0_2001_71)">
<path d="M40 0C17.9444 0 0 17.9444 0 40C0 62.0556 17.9444 80 40 80C62.0556 80 80 62.0556 80 40C80 17.9444 62.0556 0 40 0ZM55.3206 52.9639C55.9717 53.615 55.9717 54.6697 55.3206 55.3206C51.2288 59.4125 45.7878 61.6667 40 61.6667C39.7811 61.6669 39.5643 61.6239 39.362 61.5401C39.1597 61.4564 38.9759 61.3337 38.8211 61.1789C38.6663 61.0241 38.5436 60.8403 38.4599 60.638C38.3761 60.4357 38.3331 60.2189 38.3333 60C38.3331 59.7811 38.3761 59.5643 38.4599 59.362C38.5436 59.1597 38.6663 58.9759 38.8211 58.8211C38.9759 58.6663 39.1597 58.5436 39.362 58.4599C39.5643 58.3761 39.7811 58.3331 40 58.3333C44.8975 58.3333 49.5003 56.4258 52.9639 52.9637C53.6148 52.3128 54.6695 52.3128 55.3206 52.9639ZM18.9437 20.2978C18.5125 20.2978 18.0828 20.1317 17.7572 19.8014C17.1111 19.1455 17.1175 18.0892 17.7734 17.4447C23.737 11.5691 31.6309 8.33328 40 8.33328C40.9212 8.33328 41.6667 9.07875 41.6667 10C41.6667 10.9212 40.9212 11.6667 40 11.6667C32.5114 11.6667 25.4492 14.5622 20.1139 19.8178C19.8024 20.1259 19.3818 20.2984 18.9437 20.2978ZM24.6794 27.0361C24.0283 26.385 24.0283 25.3303 24.6794 24.6794C28.7712 20.5875 34.2122 18.3333 40 18.3333C40.9212 18.3333 41.6667 19.0788 41.6667 20C41.6667 20.9212 40.9212 21.6667 40 21.6667C35.1025 21.6667 30.4997 23.5742 27.0361 27.0362C26.8815 27.1913 26.6979 27.3142 26.4956 27.398C26.2934 27.4818 26.0766 27.5248 25.8577 27.5245C25.6388 27.5248 25.422 27.4818 25.2198 27.3979C25.0175 27.3141 24.8339 27.1911 24.6794 27.0361ZM26.6667 40C26.6667 32.6481 32.6481 26.6667 40 26.6667C47.3519 26.6667 53.3333 32.6481 53.3333 40C53.3333 47.3519 47.3519 53.3333 40 53.3333C32.6481 53.3333 26.6667 47.3519 26.6667 40ZM62.3909 62.3909C56.4111 68.3723 48.4586 71.6667 40 71.6667C39.7811 71.6669 39.5643 71.6239 39.362 71.5401C39.1597 71.4564 38.9759 71.3337 38.8211 71.1789C38.6663 71.0241 38.5436 70.8403 38.4599 70.638C38.3761 70.4357 38.3331 70.2189 38.3333 70C38.3331 69.7811 38.3761 69.5643 38.4599 69.362C38.5436 69.1597 38.6663 68.9759 38.8211 68.8211C38.9759 68.6663 39.1597 68.5436 39.362 68.4599C39.5643 68.3761 39.7811 68.3331 40 68.3333C47.5684 68.3333 54.6842 65.3856 60.0342 60.0341C60.6853 59.383 61.74 59.383 62.3909 60.0341C63.0419 60.6852 63.042 61.7398 62.3909 62.3909Z" fill="white"/>
<path d="M40 43.3333C41.8409 43.3333 43.3333 41.8409 43.3333 40C43.3333 38.1591 41.8409 36.6667 40 36.6667C38.1591 36.6667 36.6667 38.1591 36.6667 40C36.6667 41.8409 38.1591 43.3333 40 43.3333Z" fill="white"/>
</g>
<defs>
<clipPath id="clip0_2001_71">
<rect width="80" height="80" fill="white"/>
</clipPath>
</defs>
</svg>
