<svg width="80" height="80" viewBox="0 0 80 80" fill="none" xmlns="http://www.w3.org/2000/svg">
<g clip-path="url(#clip0_2001_54)">
<path d="M40 0C17.9088 0 0 17.9088 0 40C0 62.0912 17.9088 80 40 80C62.0912 80 80 62.0912 80 40C79.9753 17.9193 62.0807 0.0246667 40 0ZM41.4277 11.5318L55.3333 5.97333C56.9115 6.68752 58.4382 7.51045 59.9023 8.43617L59.9388 8.459C61.3777 9.37047 62.7529 10.3789 64.0547 11.4773L64.1667 11.5748C64.7501 12.072 65.3183 12.5868 65.8705 13.1185C65.9402 13.1868 66.013 13.2518 66.0827 13.3217C66.6612 13.8865 67.222 14.4693 67.7643 15.069C67.8093 15.1198 67.8522 15.1732 67.8972 15.224C68.373 15.7572 68.8307 16.3092 69.2747 16.8705C69.3815 17.0038 69.4883 17.1373 69.5918 17.2708C70.0735 17.8945 70.5397 18.5292 70.9798 19.1842L68.2077 30.9682L54.569 35.5148L41.431 25.0027L41.4277 11.5318ZM10.4068 17.2785C10.5105 17.1452 10.6158 17.0119 10.7227 16.8788C11.161 16.3229 11.6149 15.7795 12.084 15.2493C12.1348 15.1933 12.1817 15.136 12.2318 15.08C12.7706 14.4793 13.3292 13.8968 13.9067 13.3333C13.9732 13.2683 14.0395 13.2 14.1092 13.14C14.6569 12.6118 15.2203 12.1 15.7987 11.6055L15.932 11.4935C17.2222 10.4032 18.5843 9.40095 20.009 8.4935L20.061 8.46017C21.5166 7.5367 23.0341 6.71469 24.6028 6L38.5723 11.5318V24.9987L25.4337 35.5092L11.795 30.9708L9.02283 19.1868C9.46483 18.5369 9.92638 17.9005 10.4068 17.2785ZM8.80017 60.4602C8.40789 59.8622 8.03296 59.2531 7.67583 58.6335L7.58917 58.4837C7.23371 57.8667 6.89717 57.239 6.58 56.6015L6.569 56.5815C5.90093 55.2403 5.31458 53.8599 4.81317 52.4478V52.4348C4.57575 51.7626 4.35799 51.0835 4.16017 50.3985L4.08783 50.1452C3.9042 49.4975 3.73836 48.8449 3.5905 48.1882C3.5775 48.1237 3.56117 48.0625 3.54817 47.9987C3.2209 46.5092 2.98562 45.0009 2.84367 43.4825L10.9837 33.7148L24.528 38.2292L28.459 53.9518L22 62.5455L8.80017 60.4602ZM48.8788 76.2572C48.2122 76.4225 47.528 76.5652 46.8438 76.6933C46.748 76.7122 46.6505 76.7278 46.5547 76.7455C45.9697 76.8501 45.3821 76.9388 44.7923 77.0117C44.6348 77.0318 44.4785 77.0533 44.3217 77.0723C43.7733 77.136 43.22 77.1842 42.6653 77.224C42.4908 77.2357 42.3183 77.2533 42.1438 77.2643C41.4348 77.308 40.72 77.3333 40 77.3333C39.3406 77.3333 38.685 77.3159 38.0333 77.2812C37.9545 77.2812 37.8788 77.2682 37.8 77.2623C37.22 77.2292 36.6425 77.1857 36.0663 77.1295L36 77.1172C34.7375 76.9802 33.4826 76.7801 32.2402 76.5175L24.3535 64.1692L30.711 55.692H49.289L55.7507 64.2253L48.8788 76.2572ZM76.4617 48C76.448 48.0638 76.4323 48.1257 76.4187 48.1895C76.27 48.8461 76.1041 49.4986 75.9212 50.1465L75.8495 50.3998C75.6511 51.0847 75.4331 51.7637 75.196 52.4362V52.4492C74.695 53.8613 74.1086 55.2417 73.4402 56.5827L73.429 56.6028C73.1108 57.2398 72.7744 57.8675 72.42 58.485L72.3333 58.6348C71.9791 59.2549 71.6048 59.8632 71.211 60.459L58.056 62.5332L51.5522 53.9465L55.4812 38.2278L69.0253 33.7135L77.1653 43.4812C77.0242 45.0005 76.7892 46.5097 76.4617 48Z" fill="white"/>
</g>
<defs>
<clipPath id="clip0_2001_54">
<rect width="80" height="80" fill="white"/>
</clipPath>
</defs>
</svg>
