<svg width="173" height="120" viewBox="0 0 173 120" fill="none" xmlns="http://www.w3.org/2000/svg">
    <g clip-path="url(#clip0_2001_106)">
        <g filter="url(#filter0_f_2001_106)">
            <path fill-rule="evenodd" clip-rule="evenodd" d="M192.738 57.8234C213.066 83.7961 202.464 120.401 176.46 140.753C148.974 162.265 108.612 167.936 87.1251 140.482C63.5597 110.373 70.124 66.9953 100.269 43.4023C129.068 20.8625 170.225 29.0579 192.738 57.8234Z" fill="#F9972D"/>
        </g>
        <g clip-path="url(#clip1_2001_106)">
            <path d="M90.9683 130.501L90.4865 130.03C89.9078 129.445 89.3602 128.848 88.8323 128.234C88.4965 127.843 88.1723 127.455 87.8595 127.054C82.4127 120.159 79.6647 111.515 80.1298 102.74C80.5948 93.9655 84.241 85.6608 90.3861 79.3798C91.2087 78.5384 92.061 77.7468 92.943 77.0048C93.9525 76.1485 95.0091 75.3495 96.108 74.6114C103.007 69.9877 111.287 67.8801 119.557 68.6427C127.827 69.4053 135.582 72.9917 141.519 78.7991C142.654 79.908 143.715 81.0896 144.697 82.3362C147.772 86.2479 150.005 90.7537 151.254 95.5702C152.503 100.387 152.743 105.41 151.956 110.323C151.899 110.681 151.837 111.035 151.769 111.392C151.576 112.423 151.338 113.44 151.055 114.457C149.415 120.284 146.334 125.605 142.095 129.927C140.904 131.148 139.627 132.281 138.273 133.319C137.111 134.218 135.893 135.043 134.628 135.79C128.074 139.656 120.467 141.357 112.891 140.65C111.46 140.52 110.04 140.303 108.636 139.999C101.965 138.573 95.8376 135.279 90.9683 130.501Z" fill="#E86B18"/>
            <path d="M90.9683 130.501L90.2664 129.815C90.1264 129.678 89.988 129.543 89.8626 129.391C89.5022 129.012 89.1615 128.627 88.8258 128.24C88.6342 127.769 88.4474 127.293 88.2871 126.82C85.8614 119.916 85.8085 112.4 88.1369 105.462C90.4653 98.5248 95.0419 92.5624 101.142 88.5197C107.119 84.5672 114.229 82.6853 121.379 83.1626C122.716 83.2458 124.046 83.4137 125.362 83.6651C131.284 84.7796 136.782 87.5136 141.244 91.5636C141.564 91.8502 141.874 92.1434 142.184 92.4466C142.936 93.1818 143.65 93.9486 144.309 94.726C148.327 99.4671 150.907 105.257 151.746 111.415C150.09 120.132 145.287 127.935 138.252 133.341C138.108 133.454 137.956 133.567 137.811 133.675C137.665 133.784 137.515 133.898 137.366 134.007L137 134.268C136.669 134.499 136.342 134.724 136.006 134.95C135.867 135.046 135.722 135.135 135.574 135.232L135.083 135.538L134.633 135.808C134.629 135.814 134.624 135.819 134.618 135.823C128.064 139.69 120.458 141.39 112.881 140.683C112.563 140.655 112.251 140.618 111.932 140.583C111.483 140.532 111.035 140.466 110.588 140.4C110.289 140.353 109.983 140.302 109.684 140.244L109.603 140.23C109.276 140.168 108.954 140.107 108.627 140.035C101.957 138.593 95.8333 135.287 90.9683 130.501Z" fill="#F9972D"/>
            <path d="M80.2693 101.049C80.4102 99.6353 80.6338 98.2306 80.9391 96.8426C87.5789 101.343 94.7676 104.974 102.33 107.648C103.557 108.081 104.796 108.482 106.043 108.853C110.734 110.26 115.536 111.262 120.398 111.847C121.7 112.005 123.011 112.133 124.331 112.23C128.101 112.513 131.885 112.564 135.662 112.381C136.997 112.323 138.339 112.235 139.69 112.116C143.813 111.755 147.913 111.163 151.97 110.343C151.914 110.699 151.851 111.055 151.784 111.41C151.589 112.442 151.352 113.459 151.07 114.475C147.067 115.219 143.026 115.744 138.966 116.049C137.635 116.145 136.308 116.217 134.985 116.265C131.152 116.403 127.314 116.314 123.492 115.997C122.162 115.89 120.848 115.753 119.537 115.59C117.612 115.353 115.708 115.054 113.825 114.691C110.803 114.115 107.813 113.381 104.867 112.494C103.623 112.125 102.384 111.722 101.152 111.291C93.8092 108.719 86.7987 105.281 80.2693 101.049Z" fill="#492300"/>
            <path d="M92.9496 77.0047C93.9586 76.1493 95.0141 75.3503 96.1113 74.6114C98.5065 76.8717 100.597 79.4343 102.331 82.2345C103.18 83.6109 103.932 85.0454 104.58 86.5273C103.4 87.1161 102.256 87.7765 101.156 88.5048C98.815 82.9352 95.1817 79.0306 92.9496 77.0047Z" fill="#35110E"/>
            <path d="M90.4864 130.03L90.2664 129.815C90.1264 129.678 89.988 129.543 89.8626 129.391C89.5022 129.012 89.1599 128.629 88.8258 128.24C88.4916 127.852 88.1641 127.463 87.8513 127.062L88.2871 126.82C94.1995 123.441 98.5183 118.237 101.141 111.296C101.365 110.706 101.581 110.095 101.772 109.486C101.963 108.878 102.152 108.257 102.31 107.655C104.341 100.009 103.274 93.5722 101.138 88.5098C102.238 87.7806 103.381 87.1202 104.562 86.5323C107.007 92.1254 108.502 99.6945 106.017 108.853C105.854 109.457 105.674 110.067 105.475 110.681C105.276 111.295 105.062 111.908 104.844 112.494C101.432 121.66 95.6967 126.972 90.4864 130.03Z" fill="#492300"/>
            <path d="M121.4 83.1376C120.823 78.2198 119.884 73.3511 118.592 68.5711C119.996 68.6594 121.394 68.8286 122.779 69.0779C123.99 73.8629 124.862 78.7274 125.388 83.6351C124.07 83.3893 122.738 83.2231 121.4 83.1376Z" fill="#35110E"/>
            <path d="M108.639 139.995C113.68 132.561 117.369 124.295 119.535 115.578C119.852 114.316 120.132 113.069 120.376 111.836C121.726 105.059 122.276 98.1475 122.016 91.2426C121.92 88.5336 121.713 85.8298 121.397 83.1376C122.733 83.2191 124.062 83.387 125.376 83.6402C125.63 85.9951 125.823 88.4924 125.914 91.0948C126.191 98.1693 125.653 105.252 124.311 112.204C124.065 113.473 123.791 114.737 123.487 115.979C123.161 117.313 122.805 118.632 122.418 119.936C120.253 127.26 117.043 134.232 112.886 140.638C112.567 140.611 112.253 140.575 111.936 140.539C111.486 140.486 111.037 140.422 110.592 140.356C110.292 140.31 109.988 140.257 109.687 140.201L109.606 140.187C109.287 140.133 108.965 140.069 108.639 139.995Z" fill="#492300"/>
            <path d="M142.207 92.4233C141.897 92.1202 141.592 91.8219 141.267 91.5403C142.568 87.7286 143.787 84.5706 144.7 82.3329C145.671 83.569 146.561 84.8677 147.362 86.2204C146.471 88.5222 145.417 91.4111 144.333 94.7011C143.666 93.9155 142.959 93.1585 142.207 92.4233Z" fill="#35110E"/>
            <path d="M134.631 135.79C133.975 131.165 133.7 124.599 134.98 116.24C135.093 115.457 135.224 114.656 135.368 113.842C135.458 113.343 135.553 112.849 135.648 112.355C137.046 105.294 138.922 98.3366 141.264 91.5304C141.585 91.8153 141.895 92.1086 142.205 92.4118C142.959 93.1485 143.67 93.9154 144.33 94.6945C142.445 100.403 140.895 106.216 139.688 112.105C139.526 112.916 139.37 113.73 139.219 114.549C139.128 115.049 139.048 115.545 138.966 116.029C137.8 123.201 137.849 129.011 138.285 133.324L137.843 133.658L137.397 133.988L137.032 134.251C136.702 134.483 136.373 134.706 136.039 134.934L135.607 135.215C135.442 135.315 135.278 135.419 135.114 135.519L134.664 135.79L134.631 135.79Z" fill="#492300"/>
            <path d="M183.034 97.3106C182.25 99.882 181.26 102.386 180.073 104.798C175.878 113.412 169.046 120.465 160.569 124.933C151.212 122.867 142.758 117.873 136.432 110.676C134.648 108.665 133.031 106.513 131.597 104.239C122.589 90.0061 120.339 71.1499 125.643 54.863C126.472 52.286 127.502 49.7778 128.722 47.3611C132.786 39.3057 138.977 32.2798 147.424 27.3357C156.874 29.8673 164.706 35.0074 170.761 41.6975C172.576 43.7072 174.232 45.8543 175.715 48.1197C185.133 62.4206 187.954 81.1995 183.034 97.3106Z" fill="#7A4A3D"/>
            <path d="M152.662 44.1403L128.724 47.3627C132.789 39.3023 138.981 32.2831 147.428 27.339C149.373 32.9195 151.118 38.52 152.662 44.1403Z" fill="#562821"/>
            <path d="M137.232 41.7156L132.294 48.1502C133.771 45.8806 135.422 43.7292 137.232 41.7156ZM131.593 104.236C122.587 90.0045 120.334 71.145 125.639 54.8664L154.431 50.9858C158.399 67.1307 160.65 83.6497 161.145 100.268L131.593 104.236ZM136.429 110.673L161.26 107.331C161.254 113.18 161.024 119.047 160.569 124.933C151.21 122.869 142.753 117.874 136.429 110.673Z" fill="#562821"/>
            <path d="M125.639 54.8663L128.717 47.3595L152.66 44.1419C153.288 46.4233 153.881 48.7073 154.439 50.9939L125.639 54.8663Z" fill="#D3BFB2"/>
            <path d="M154.432 50.9841C153.877 48.7019 153.284 46.4179 152.654 44.1321L170.754 41.6975C172.568 43.7078 174.225 45.8543 175.71 48.1181L154.432 50.9841Z" fill="#F6ECE2"/>
            <path d="M136.429 110.672C134.644 108.663 133.027 106.51 131.593 104.236L161.157 100.256C161.23 102.614 161.263 104.971 161.256 107.328L136.429 110.672Z" fill="#D3BFB2"/>
            <path d="M161.256 107.328C161.259 104.968 161.226 102.611 161.157 100.256L183.034 97.3106C182.25 99.8821 181.26 102.386 180.073 104.798L161.256 107.328ZM154.68 55.2534C154.851 55.0784 155.066 54.953 155.302 54.8903C155.538 54.8277 155.787 54.8301 156.022 54.8975C156.257 54.9648 156.47 55.0945 156.637 55.2728C156.804 55.4511 156.92 55.6713 156.973 55.9101C159.654 67.6917 161.427 80.4529 162.242 93.8432C162.257 94.0228 162.235 94.2034 162.179 94.3746C162.123 94.5457 162.033 94.7039 161.915 94.84C161.797 94.976 161.653 95.0871 161.491 95.1668C161.329 95.2464 161.154 95.2931 160.974 95.304C160.794 95.3149 160.614 95.2898 160.444 95.2303C160.274 95.1707 160.117 95.0778 159.984 94.9571C159.85 94.8363 159.742 94.6901 159.665 94.527C159.589 94.3639 159.546 94.1872 159.538 94.0072C158.735 80.7652 156.982 68.1505 154.335 56.5103C154.281 56.2887 154.284 56.057 154.344 55.8371C154.405 55.6171 154.52 55.4162 154.68 55.2534Z" fill="#F6ECE2"/>
            <path d="M150.003 60.6875C151.075 60.3507 152.158 60.1011 153.245 59.8728C153.794 59.7578 154.335 59.6545 154.882 59.5659C155.428 59.4773 155.973 59.3772 156.521 59.2968C157.619 59.1344 158.717 59.0083 159.814 58.93C160.93 58.8476 162.05 58.8443 163.166 58.9203C163.402 58.94 163.624 59.0396 163.795 59.2026C163.967 59.3655 164.078 59.5821 164.11 59.8165C164.142 60.0509 164.092 60.2892 163.971 60.492C163.849 60.6948 163.661 60.85 163.439 60.932C162.382 61.2974 161.301 61.5878 160.203 61.801C159.115 62.0194 158.023 62.1867 156.919 62.3211C156.37 62.3899 155.818 62.4489 155.266 62.498C154.716 62.5569 154.161 62.5978 153.609 62.6353C152.5 62.7022 151.391 62.7494 150.271 62.7141C150.029 62.7042 149.798 62.6092 149.619 62.446C149.44 62.2828 149.324 62.0617 149.292 61.8215C149.26 61.5814 149.313 61.3376 149.443 61.1329C149.573 60.9283 149.77 60.7758 150.001 60.7024L150.003 60.6875ZM151.342 67.6121C152.409 67.2855 153.491 67.013 154.586 66.7957C155.135 66.6807 155.675 66.579 156.221 66.4871C156.767 66.3952 157.312 66.3017 157.86 66.2214C158.957 66.0573 160.056 65.9295 161.154 65.8545C162.272 65.7687 163.396 65.7621 164.515 65.8348C164.752 65.8541 164.974 65.9536 165.146 66.1168C165.318 66.2801 165.43 66.4972 165.461 66.7322C165.493 66.9672 165.443 67.206 165.321 67.409C165.198 67.612 165.01 67.7669 164.787 67.8482C163.729 68.2122 162.648 68.5026 161.55 68.7173C160.466 68.9372 159.371 69.1106 158.267 69.2373C157.717 69.3062 157.166 69.3651 156.613 69.4142C156.063 69.4732 155.51 69.5124 154.955 69.5499C153.849 69.6168 152.737 69.664 151.618 69.6271C151.375 69.6195 151.143 69.5259 150.962 69.3629C150.781 69.2 150.664 68.9782 150.632 68.737C150.599 68.4959 150.653 68.251 150.784 68.0459C150.915 67.8408 151.114 67.6889 151.347 67.617L151.342 67.6121ZM152.661 74.5402C153.736 74.2016 154.816 73.9537 155.905 73.7238C156.455 73.6088 156.994 73.5071 157.542 73.4168C158.09 73.3266 158.633 73.2314 159.18 73.1494C160.278 72.987 161.378 72.8592 162.473 72.7826C163.589 72.698 164.709 72.6915 165.825 72.763C166.061 72.7823 166.284 72.8818 166.456 73.045C166.628 73.2082 166.739 73.4254 166.771 73.6604C166.803 73.8954 166.753 74.1342 166.63 74.3372C166.508 74.5402 166.319 74.6951 166.097 74.7764C165.039 75.1418 163.958 75.4322 162.86 75.6455C161.773 75.8638 160.68 76.0311 159.578 76.1671C159.028 76.236 158.477 76.2933 157.923 76.3424C157.37 76.3915 156.82 76.4406 156.266 76.4798C155.159 76.545 154.048 76.5938 152.93 76.5569C152.687 76.5476 152.456 76.4531 152.277 76.2902C152.097 76.1272 151.981 75.9061 151.948 75.6658C151.916 75.4255 151.969 75.1815 152.098 74.9765C152.228 74.7715 152.425 74.6188 152.657 74.5452L152.661 74.5402ZM153.219 81.5708C154.293 81.2323 155.374 80.9843 156.464 80.7561C157.012 80.6394 157.552 80.5377 158.1 80.4475C158.648 80.3572 159.191 80.2621 159.739 80.1817C160.835 80.0177 161.935 79.8899 163.032 79.8149C164.15 79.7273 165.272 79.7196 166.39 79.7919C166.626 79.8123 166.848 79.9123 167.019 80.0755C167.19 80.2387 167.3 80.4553 167.331 80.6896C167.363 80.9239 167.314 81.162 167.192 81.3645C167.07 81.567 166.882 81.7219 166.66 81.8037C165.604 82.1696 164.523 82.4605 163.425 82.6744C162.336 82.8911 161.244 83.0583 160.142 83.1944C159.594 83.2616 159.042 83.3189 158.487 83.3697C157.932 83.4204 157.383 83.4678 156.832 83.5054C155.721 83.5874 154.607 83.6137 153.494 83.5842C153.251 83.5749 153.02 83.4804 152.841 83.3174C152.661 83.1544 152.545 82.9334 152.512 82.6931C152.479 82.4528 152.533 82.2087 152.662 82.0038C152.792 81.7988 152.989 81.6461 153.22 81.5725L153.219 81.5708ZM153.763 88.6016C154.836 88.2746 155.911 88.0218 157.007 87.7885C157.554 87.6719 158.096 87.5685 158.644 87.4783C159.192 87.388 159.735 87.2929 160.281 87.2109C161.379 87.0485 162.479 86.9207 163.575 86.844C164.69 86.7595 165.81 86.7529 166.926 86.8244C167.163 86.8437 167.385 86.9432 167.557 87.1065C167.729 87.2697 167.841 87.4868 167.872 87.7218C167.904 87.9569 167.854 88.1957 167.732 88.3986C167.609 88.6016 167.421 88.7566 167.198 88.8378C166.145 89.2043 165.066 89.4947 163.971 89.7068C162.884 89.9251 161.788 90.0957 160.689 90.2285C160.14 90.2973 159.588 90.3546 159.034 90.4037C158.481 90.4528 157.929 90.5035 157.377 90.5411C156.27 90.6063 155.159 90.6551 154.039 90.6199C153.796 90.6113 153.564 90.5171 153.384 90.3538C153.204 90.1905 153.087 89.9688 153.054 89.7278C153.022 89.4867 153.076 89.242 153.206 89.0368C153.337 88.8316 153.536 88.6792 153.768 88.6065L153.763 88.6016Z" fill="#F6ECE2"/>
            <path d="M96.2248 75.3158C93.7195 72.8687 92.0367 69.7035 91.4095 66.258C90.7823 62.8126 91.2417 59.2574 92.7239 56.0844C92.982 55.5267 93.2732 54.985 93.596 54.4621C94.2663 53.3686 95.0592 52.3551 95.9593 51.4414C96.106 51.2913 96.251 51.143 96.4029 51.0077C99.5119 48.0337 103.642 46.364 107.945 46.342C112.247 46.3199 116.394 47.9472 119.534 50.8891L119.829 51.1776C120.707 52.0339 121.488 52.9838 122.159 54.0103C122.431 54.4293 122.69 54.8551 122.922 55.291C123.133 55.686 123.325 56.0894 123.503 56.4947C123.589 56.6866 123.665 56.8787 123.743 57.0756C124.77 59.6962 125.127 62.5317 124.78 65.3249C124.434 68.1181 123.396 70.7807 121.76 73.0712C121.397 73.58 121.005 74.0672 120.585 74.5304C120.43 74.7052 120.27 74.8752 120.107 75.0419L119.824 75.332C117.082 77.9975 113.518 79.6548 109.712 80.0334C105.907 80.4119 102.086 79.4893 98.8733 77.4161C98.7039 77.3092 98.5394 77.2006 98.3765 77.0837C97.8631 76.7259 97.371 76.3383 96.9027 75.9231C96.6696 75.7279 96.4415 75.5277 96.2248 75.3158Z" fill="#D3BFB2"/>
            <path d="M100.802 73.8363C100.613 73.6521 100.423 73.4663 100.251 73.272C98.4811 71.3495 97.2492 68.9944 96.6795 66.444C96.1097 63.8936 96.2224 61.238 97.006 58.7451C97.189 58.1567 97.4099 57.5809 97.6676 57.0213C98.1137 56.0436 98.665 55.1175 99.3116 54.2592C99.6977 53.7508 100.115 53.2665 100.56 52.8091C100.687 52.679 100.814 52.549 100.948 52.4321C101.082 52.3152 101.172 52.2235 101.289 52.1133C101.812 51.6442 102.367 51.2131 102.951 50.8234C105.409 49.1877 108.297 48.3193 111.249 48.3287C114.201 48.338 117.083 49.2246 119.53 50.8758L119.825 51.1643C120.702 52.0225 121.482 52.974 122.151 54.0021C122.424 54.4194 122.681 54.8469 122.914 55.2828C122.959 55.3664 123.005 55.4467 123.043 55.527C123.158 55.7434 123.256 55.95 123.355 56.1583C123.404 56.2616 123.455 56.3698 123.498 56.4765C123.584 56.6718 123.66 56.8638 123.74 57.0591C124.766 59.6799 125.122 62.5152 124.776 65.3082C124.429 68.1013 123.392 70.7638 121.757 73.0547C121.666 73.181 121.575 73.3073 121.476 73.4321C121.408 73.5285 121.333 73.6184 121.261 73.7115L121.175 73.8196C120.982 74.0609 120.78 74.294 120.568 74.5305C120.405 74.6972 120.255 74.8769 120.092 75.0437L119.807 75.3354C119.129 75.8155 118.412 76.2378 117.663 76.5978L117.575 76.6383C116.69 77.0596 115.765 77.3898 114.814 77.624C112.041 78.3184 109.126 78.2001 106.418 77.2833C106.114 77.1779 105.811 77.0676 105.509 76.9423C105.315 76.8604 105.122 76.7818 104.926 76.6983C104.788 76.6355 104.651 76.5662 104.517 76.4968C104.034 76.2553 103.565 75.9881 103.111 75.6965C102.714 75.4355 102.328 75.1629 101.962 74.8702C101.849 74.7825 101.736 74.6881 101.628 74.5953C101.343 74.3496 101.068 74.0971 100.802 73.8363Z" fill="#F6ECE2"/>
            <path d="M92.7239 56.0844C92.9819 55.5267 93.2732 54.985 93.596 54.4621C94.91 55.3861 96.2706 56.2419 97.6726 57.0262C97.4132 57.5848 97.1916 58.1601 97.0094 58.7484C95.5347 57.9368 94.1042 57.0476 92.7239 56.0844Z" fill="#AD2B32"/>
            <path d="M97.0044 58.7435C97.1873 58.1551 97.4083 57.5793 97.6659 57.0196C103.418 60.2112 108.771 61.3364 113.656 60.3828C117.959 59.5397 121.052 57.1801 122.917 55.2861C122.961 55.368 123.003 55.4516 123.043 55.5336C123.158 55.75 123.258 55.9549 123.356 56.1649C123.405 56.2682 123.457 56.3748 123.498 56.4831C123.586 56.6767 123.662 56.8688 123.74 57.0657C121.058 59.6565 117.691 61.4276 114.037 62.1707C108.784 63.2142 103.076 62.0584 97.0044 58.7435Z" fill="#CE4942"/>
            <path d="M100.249 73.2705C100.425 73.4647 100.61 73.6489 100.8 73.8347C101.072 74.1004 101.35 74.3495 101.631 74.5887C100.455 75.2986 99.3586 76.1335 98.3616 77.0789C97.8506 76.7243 97.3612 76.3394 96.8961 75.9264C97.9171 74.9254 99.0412 74.0351 100.249 73.2705Z" fill="#AD2B32"/>
            <path d="M100.802 73.8363C100.613 73.6521 100.423 73.4663 100.251 73.272C102.241 72.0029 104.45 71.1174 106.766 70.6612C111.43 69.7398 116.456 70.5456 121.768 73.0595C121.679 73.1841 121.588 73.3138 121.489 73.4385C121.421 73.5316 121.346 73.6248 121.275 73.7146C121.24 73.7496 121.219 73.7878 121.187 73.8244C120.993 74.0657 120.793 74.3004 120.581 74.5369C115.793 72.3436 111.291 71.649 107.145 72.4607C105.196 72.8467 103.329 73.5702 101.628 74.5986C101.343 74.3496 101.068 74.0971 100.802 73.8363Z" fill="#CE4942"/>
        </g>
    </g>
    <defs>
        <filter id="filter0_f_2001_106" x="12.8827" y="-29.5481" width="250.509" height="248.583" filterUnits="userSpaceOnUse" color-interpolation-filters="sRGB">
            <feFlood flood-opacity="0" result="BackgroundImageFix"/>
            <feBlend mode="normal" in="SourceGraphic" in2="BackgroundImageFix" result="shape"/>
            <feGaussianBlur stdDeviation="30" result="effect1_foregroundBlur_2001_106"/>
        </filter>
        <clipPath id="clip0_2001_106">
            <rect width="173" height="120" fill="white"/>
        </clipPath>
        <clipPath id="clip1_2001_106">
            <rect width="119.376" height="119.376" fill="white" transform="translate(222.812 92.4556) rotate(134.355)"/>
        </clipPath>
    </defs>
</svg>
