<svg width="358" height="82" viewBox="0 0 358 82" fill="none" xmlns="http://www.w3.org/2000/svg">
    <mask id="path-1-inside-1_2002_44" fill="white">
        <path fill-rule="evenodd" clip-rule="evenodd" d="M154.196 82H12C5.37259 82 0 76.6274 0 70V22C0 15.3726 5.37258 10 12 10H135.588C137.106 10 138.463 9.11721 139.319 7.86304C142.56 3.11603 148.014 0 154.196 0H203.804C209.986 0 215.44 3.11603 218.681 7.86305C219.537 9.11722 220.894 10 222.412 10H346C352.627 10 358 15.3726 358 22V70C358 76.6274 352.627 82 346 82H203.804H154.196Z"/>
    </mask>
    <path fill-rule="evenodd" clip-rule="evenodd" d="M154.196 82H12C5.37259 82 0 76.6274 0 70V22C0 15.3726 5.37258 10 12 10H135.588C137.106 10 138.463 9.11721 139.319 7.86304C142.56 3.11603 148.014 0 154.196 0H203.804C209.986 0 215.44 3.11603 218.681 7.86305C219.537 9.11722 220.894 10 222.412 10H346C352.627 10 358 15.3726 358 22V70C358 76.6274 352.627 82 346 82H203.804H154.196Z" fill="#0A0B1B"/>
    <path d="M218.681 7.86305L217.855 8.4269L218.681 7.86305ZM139.319 7.86304L138.493 7.29919L139.319 7.86304ZM154.196 81H12V83H154.196V81ZM12 81C5.92487 81 1 76.0751 1 70H-1C-1 77.1797 4.8203 83 12 83V81ZM1 70V22H-1V70H1ZM1 22C1 15.9249 5.92487 11 12 11V9C4.8203 9 -1 14.8203 -1 22H1ZM12 11H135.588V9H12V11ZM140.145 8.42689C143.208 3.94112 148.358 1 154.196 1V-1C147.67 -1 141.913 2.29094 138.493 7.29919L140.145 8.42689ZM154.196 1H203.804V-1H154.196V1ZM203.804 1C209.642 1 214.792 3.94112 217.855 8.4269L219.507 7.29919C216.087 2.29094 210.33 -1 203.804 -1V1ZM222.412 11H346V9H222.412V11ZM346 11C352.075 11 357 15.9249 357 22H359C359 14.8203 353.18 9 346 9V11ZM357 22V70H359V22H357ZM357 70C357 76.0751 352.075 81 346 81V83C353.18 83 359 77.1797 359 70H357ZM346 81H203.804V83H346V81ZM203.804 81H154.196V83H203.804V81ZM217.855 8.4269C218.853 9.88915 220.492 11 222.412 11V9C221.295 9 220.221 8.34529 219.507 7.29919L217.855 8.4269ZM135.588 11C137.508 11 139.147 9.88914 140.145 8.42689L138.493 7.29919C137.779 8.34528 136.705 9 135.588 9V11Z" fill="url(#paint0_linear_2002_44)" mask="url(#path-1-inside-1_2002_44)"/>
    <defs>
        <linearGradient id="paint0_linear_2002_44" x1="179" y1="-4.91263e-07" x2="177.112" y2="81.9565" gradientUnits="userSpaceOnUse">
            <stop stop-color="#65BFFF"/>
            <stop offset="1" stop-color="white" stop-opacity="0"/>
        </linearGradient>
    </defs>
</svg>
