<svg width="20" height="20" viewBox="0 0 20 20" fill="none" xmlns="http://www.w3.org/2000/svg">
    <mask id="mask0_122_1279" style="mask-type:luminance" maskUnits="userSpaceOnUse" x="0" y="0" width="20" height="20">
        <path d="M0 0H20V20H0V0Z" fill="white"/>
    </mask>
    <g mask="url(#mask0_122_1279)">
        <path fill-rule="evenodd" clip-rule="evenodd" d="M0 1.96198C0 0.883264 0.874453 0.0088501 1.95312 0.0088501H7.12973C8.2084 0.0088501 9.08285 0.883264 9.08285 1.96198V7.15229C9.08285 8.231 8.2084 9.10541 7.12973 9.10541H1.95312C0.874453 9.10541 0 8.231 0 7.15229V1.96198ZM0 12.8565C0 11.7778 0.874453 10.9034 1.95312 10.9034H7.12973C8.2084 10.9034 9.08285 11.7778 9.08285 12.8565V18.0469C9.08285 19.1255 8.2084 20 7.12973 20H1.95312C0.874453 20 0 19.1255 0 18.0469V12.8565ZM12.8702 0.0088501C11.7915 0.0088501 10.9171 0.883264 10.9171 1.96198V7.15229C10.9171 8.231 11.7915 9.10541 12.8702 9.10541H18.0468C19.1255 9.10541 19.9999 8.231 19.9999 7.15229V1.96198C19.9999 0.883264 19.1255 0.0088501 18.0468 0.0088501H12.8702ZM10.9171 12.8565C10.9171 11.7778 11.7915 10.9034 12.8702 10.9034H18.0468C19.1255 10.9034 19.9999 11.7778 19.9999 12.8565V18.0469C19.9999 19.1255 19.1255 20 18.0468 20H12.8702C11.7915 20 10.9171 19.1255 10.9171 18.0469V12.8565Z" fill="currentColor"/>
    </g>
</svg>
