<svg width="16" height="16" viewBox="0 0 16 16" fill="none" xmlns="http://www.w3.org/2000/svg">
    <g clip-path="url(#clip0_2001_143)">
        <path d="M8 16C12.4183 16 16 12.4183 16 8C16 3.58172 12.4183 0 8 0C3.58172 0 0 3.58172 0 8C0 12.4183 3.58172 16 8 16Z" fill="#00BA00"/>
        <path fill-rule="evenodd" clip-rule="evenodd" d="M5.49921 11.9055L2.58268 8.76223C2.38919 8.55491 2.28584 8.27932 2.29529 7.9959C2.30474 7.71249 2.42621 7.44439 2.63307 7.25042C2.8412 7.05773 3.11727 6.95548 3.4007 6.96611C3.68413 6.97674 3.95177 7.09938 4.14488 7.30711L6.4 9.71971L9.97165 6.38113L10.0724 6.29924L11.748 4.73073C11.9553 4.53725 12.2309 4.4339 12.5144 4.44334C12.7978 4.45279 13.0659 4.57427 13.2598 4.78113C13.4533 4.98844 13.5567 5.26403 13.5472 5.54745C13.5378 5.83087 13.4163 6.09897 13.2094 6.29294L8.07559 11.0803L6.29291 12.737L5.50551 11.8929L5.49921 11.9055Z" fill="white"/>
    </g>
    <defs>
        <clipPath id="clip0_2001_143">
            <rect width="16" height="16" fill="white"/>
        </clipPath>
    </defs>
</svg>
