<svg width="20" height="20" viewBox="0 0 20 20" fill="none" xmlns="http://www.w3.org/2000/svg">
    <path
            d="M19.4607 8.69902L19.4594 8.69766L11.301 0.53957C10.9532 0.191602 10.4909 0 9.99911 0C9.50735 0 9.04496 0.191484 8.69707 0.539414L0.542894 8.69336L0.534691 8.70176C-0.179449 9.41996 -0.1782 10.5853 0.538207 11.3017C0.865472 11.6291 1.29778 11.8188 1.75996 11.8386C1.77871 11.8405 1.79763 11.8414 1.81672 11.8414H2.14188V17.8453C2.14188 19.0334 3.10852 20 4.29688 20H7.48868C7.81219 20 8.07461 19.7377 8.07461 19.4141V14.707C8.07461 14.1649 8.51563 13.7239 9.05778 13.7239H10.9404C11.4826 13.7239 11.9235 14.1649 11.9235 14.707V19.4141C11.9235 19.7377 12.1858 20 12.5095 20H15.7013C16.8897 20 17.8563 19.0334 17.8563 17.8453V11.8414H18.1578C18.6495 11.8414 19.1118 11.6499 19.4598 11.302C20.177 10.5844 20.1773 9.41711 19.4607 8.69902Z" fill="currentColor"/>
</svg>
