<svg width="20" height="20" viewBox="0 0 20 20" fill="none" xmlns="http://www.w3.org/2000/svg">
    <g opacity="0.4" clip-path="url(#clip0_265_2153)">
        <path d="M14.5082 3.27398C14.4704 3.1579 14.401 3.05468 14.3076 2.97599C14.2143 2.8973 14.1008 2.84628 13.98 2.82867L11.6369 2.48813L10.5887 0.364609C10.5347 0.255131 10.4512 0.162951 10.3475 0.0985105C10.2439 0.03407 10.1242 -5.53423e-05 10.0022 8.63249e-08C9.88012 -6.26394e-05 9.76048 0.0340593 9.65682 0.0985002C9.55316 0.162941 9.46961 0.255125 9.41565 0.364609L8.36741 2.48816L6.0239 2.82871C5.9031 2.84631 5.78963 2.89734 5.6963 2.97603C5.60297 3.05472 5.5335 3.15794 5.49573 3.27402C5.45799 3.39014 5.4535 3.5145 5.48279 3.63302C5.51207 3.75155 5.57396 3.85951 5.66144 3.94469L7.35757 5.59758L6.95679 7.93133C6.93614 8.05167 6.94957 8.17538 6.99556 8.28848C7.04156 8.40158 7.11828 8.49956 7.21706 8.57133C7.41897 8.71828 7.68604 8.73637 7.90624 8.62117L10.0023 7.51926L12.098 8.62117C12.2061 8.678 12.3279 8.70345 12.4497 8.69464C12.5715 8.68584 12.6884 8.64312 12.7872 8.57133C12.8859 8.49961 12.9627 8.40168 13.0087 8.28861C13.0547 8.17555 13.0681 8.05187 13.0475 7.93156L12.6471 5.59758L14.3428 3.94469C14.4301 3.8594 14.4918 3.75142 14.5211 3.63291C14.5503 3.51441 14.5458 3.39009 14.5082 3.27398ZM12.617 9.96816H7.38304C7.02171 9.96816 6.72878 10.2611 6.72878 10.6224V20H13.2713V10.6224C13.2713 10.2611 12.9783 9.96816 12.617 9.96816ZM0.840537 12.5852C0.479209 12.5852 0.186279 12.8781 0.186279 13.2394V19.4827C0.186279 19.7684 0.417881 20 0.703545 20H5.4203V12.5852H0.840537ZM19.1595 15.2021H14.5798V20H19.2966C19.5823 20 19.8138 19.7684 19.8138 19.4827V15.8564C19.8138 15.4951 19.5208 15.2021 19.1595 15.2021Z" fill="url(#paint0_linear_265_2153)"/>
    </g>
    <defs>
        <linearGradient id="paint0_linear_265_2153" x1="-9.62749" y1="10" x2="10.369" y2="29.6241" gradientUnits="userSpaceOnUse">
            <stop stop-color="#66FF00"/>
            <stop offset="0.518766" stop-color="#16B862"/>
            <stop offset="1" stop-color="#00858F"/>
        </linearGradient>
        <clipPath id="clip0_265_2153">
            <rect width="20" height="20" fill="white"/>
        </clipPath>
    </defs>
</svg>
