<svg width="20" height="20" viewBox="0 0 20 20" fill="none" xmlns="http://www.w3.org/2000/svg">
    <g clip-path="url(#clip0_122_1290)">
        <path d="M14.5082 3.27398C14.4704 3.1579 14.4009 3.05468 14.3076 2.97599C14.2143 2.8973 14.1008 2.84628 13.98 2.82867L11.6369 2.48813L10.5886 0.364609C10.5347 0.255131 10.4511 0.162951 10.3475 0.0985105C10.2438 0.03407 10.1242 -5.53423e-05 10.0021 8.63249e-08C9.88009 -6.26394e-05 9.76045 0.0340593 9.65679 0.0985002C9.55313 0.162941 9.46958 0.255125 9.41562 0.364609L8.36738 2.48816L6.02387 2.82871C5.90307 2.84631 5.7896 2.89734 5.69627 2.97603C5.60294 3.05472 5.53347 3.15794 5.4957 3.27402C5.45796 3.39014 5.45347 3.5145 5.48276 3.63302C5.51204 3.75155 5.57393 3.85951 5.66141 3.94469L7.35754 5.59758L6.95676 7.93133C6.9361 8.05167 6.94954 8.17538 6.99553 8.28848C7.04153 8.40158 7.11825 8.49956 7.21703 8.57133C7.41894 8.71828 7.68601 8.73637 7.90621 8.62117L10.0023 7.51926L12.098 8.62117C12.206 8.678 12.3279 8.70345 12.4497 8.69464C12.5715 8.68584 12.6884 8.64312 12.7871 8.57133C12.8859 8.49961 12.9626 8.40168 13.0086 8.28861C13.0546 8.17555 13.0681 8.05187 13.0474 7.93156L12.647 5.59758L14.3427 3.94469C14.4301 3.8594 14.4918 3.75142 14.521 3.63291C14.5503 3.51441 14.5458 3.39009 14.5082 3.27398ZM12.617 9.96816H7.38301C7.02168 9.96816 6.72875 10.2611 6.72875 10.6224V20H13.2712V10.6224C13.2712 10.2611 12.9783 9.96816 12.617 9.96816ZM0.840507 12.5852C0.479178 12.5852 0.186249 12.8781 0.186249 13.2394V19.4827C0.186249 19.7684 0.41785 20 0.703514 20H5.42027V12.5852H0.840507ZM19.1595 15.2021H14.5798V20H19.2965C19.5822 20 19.8138 19.7684 19.8138 19.4827V15.8564C19.8137 15.4951 19.5208 15.2021 19.1595 15.2021Z" fill="currentColor"/>
    </g>
    <defs>
        <clipPath id="clip0_122_1290">
            <rect width="20" height="20" fill="white"/>
        </clipPath>
    </defs>
</svg>
