<svg width="12" height="12" viewBox="0 0 12 12" fill="none" xmlns="http://www.w3.org/2000/svg">
    <g clip-path="url(#clip0_172_231)">
        <path d="M6 11.9999C2.6916 11.9999 -1.90735e-06 9.30831 -1.90735e-06 5.99991C-1.90735e-06 2.69151 2.6916 0.000106812 6 0.000106812C9.3084 0.000106812 12 2.69151 12 5.99991C12 9.30831 9.3082 11.9999 6 11.9999Z" fill="white"/>
        <path d="M9.0403 1.77369C9.29643 1.77369 9.54957 1.78685 9.79932 1.81079C8.79433 0.898565 7.461 0.341812 6 0.341812C2.88011 0.341812 0.341711 2.88001 0.341711 6.0001C0.341711 7.11361 0.666467 8.15231 1.22422 9.02863C1.52384 4.97217 4.90724 1.77369 9.0403 1.77369Z" fill="#E0E0E0"/>
        <path d="M5.9998 11.6582C9.11969 11.6582 11.6581 9.12 11.6581 5.99991C11.6581 4.34102 10.9404 2.84671 9.79932 1.8106C9.54957 1.78666 9.29643 1.7735 9.0403 1.7735C4.90744 1.7735 1.52384 4.97218 1.22422 9.02844C2.229 10.6077 3.99362 11.6582 5.9998 11.6582Z" fill="#B5B5B5"/>
        <path d="M6 10.4753C8.47157 10.4753 10.4752 8.47168 10.4752 6.00011C10.4752 3.52855 8.47157 1.52495 6 1.52495C3.52844 1.52495 1.52484 3.52855 1.52484 6.00011C1.52484 8.47168 3.52844 10.4753 6 10.4753Z" fill="#9E9E9E"/>
        <path d="M8.6922 5.39567L6.83184 5.12538L6 3.43956L5.16796 5.12538L3.3078 5.39567L4.6539 6.70766L4.33613 8.56045L6 7.68572L7.66387 8.56045L7.3461 6.70766L8.6922 5.39567Z" fill="#F6F6F6"/>
        <path d="M9.21005 2.23031C9.3084 2.32866 9.62797 2.48046 9.77698 2.54829C9.8069 2.56185 9.8069 2.60414 9.77698 2.61771C9.62797 2.68553 9.3086 2.83713 9.21005 2.93568C9.11171 3.03402 8.9599 3.35359 8.89208 3.5026C8.87852 3.53253 8.83623 3.53253 8.82266 3.5026C8.75484 3.35359 8.60323 3.03422 8.50469 2.93568C8.40634 2.83733 8.08678 2.68553 7.93776 2.61771C7.90784 2.60414 7.90784 2.56185 7.93776 2.54829C8.08678 2.48046 8.40614 2.32886 8.50469 2.23031C8.60303 2.13197 8.75484 1.8124 8.82266 1.66339C8.83623 1.63346 8.87852 1.63346 8.89208 1.66339C8.95971 1.8124 9.11151 2.13177 9.21005 2.23031Z" fill="white"/>
        <path d="M8.6922 5.39567L6.83184 5.12518L6 3.43956V7.68572L7.66387 8.56045L7.3461 6.70766L8.6922 5.39567Z" fill="#E0E0E0"/>
    </g>
    <defs>
        <clipPath id="clip0_172_231">
            <rect width="12" height="11.9998" fill="white"/>
        </clipPath>
    </defs>
</svg>
