<svg width="20" height="20" viewBox="0 0 20 20" fill="none" xmlns="http://www.w3.org/2000/svg">
    <path d="M17.1373 1.33333H16.3333V0.666667C16.3333 0.489856 16.2631 0.320286 16.1381 0.195262C16.013 0.0702379 15.8435 0 15.6667 0C15.4899 0 15.3203 0.0702379 15.1953 0.195262C15.0702 0.320286 15 0.489856 15 0.666667V1.33333H11V0.666667C11 0.489856 10.9298 0.320286 10.8047 0.195262C10.6797 0.0702379 10.5101 0 10.3333 0C10.1565 0 9.98695 0.0702379 9.86193 0.195262C9.7369 0.320286 9.66667 0.489856 9.66667 0.666667V1.33333H5.66667V0.666667C5.66667 0.489856 5.59643 0.320286 5.4714 0.195262C5.34638 0.0702379 5.17681 0 5 0C4.82319 0 4.65362 0.0702379 4.5286 0.195262C4.40357 0.320286 4.33333 0.489856 4.33333 0.666667V1.33333H3.52933C2.85884 1.33439 2.21611 1.60121 1.74199 2.07533C1.26788 2.54944 1.00106 3.19217 1 3.86267V17.4707C1.00106 18.1412 1.26788 18.7839 1.74199 19.258C2.21611 19.7321 2.85884 19.9989 3.52933 20H17.1373C17.8078 19.9989 18.4506 19.7321 18.9247 19.258C19.3988 18.7839 19.6656 18.1412 19.6667 17.4707V3.86267C19.6656 3.19217 19.3988 2.54944 18.9247 2.07533C18.4506 1.60121 17.8078 1.33439 17.1373 1.33333ZM8.804 13.138L6.804 15.138C6.67898 15.263 6.50944 15.3332 6.33267 15.3332C6.15589 15.3332 5.98635 15.263 5.86133 15.138L4.528 13.8047C4.46433 13.7432 4.41354 13.6696 4.3786 13.5883C4.34366 13.5069 4.32527 13.4195 4.3245 13.3309C4.32373 13.2424 4.3406 13.1546 4.37412 13.0727C4.40764 12.9908 4.45714 12.9163 4.51974 12.8537C4.58233 12.7911 4.65677 12.7416 4.7387 12.7081C4.82063 12.6746 4.90841 12.6577 4.99693 12.6585C5.08545 12.6593 5.17293 12.6777 5.25427 12.7126C5.33561 12.7475 5.40917 12.7983 5.47067 12.862L6.33333 13.724L7.862 12.1953C7.98773 12.0739 8.15614 12.0067 8.33093 12.0082C8.50573 12.0097 8.67294 12.0798 8.79655 12.2035C8.92015 12.3271 8.99026 12.4943 8.99178 12.6691C8.9933 12.8439 8.92544 13.0123 8.804 13.138ZM8.804 7.138L6.804 9.138C6.67898 9.26298 6.50944 9.33319 6.33267 9.33319C6.15589 9.33319 5.98635 9.26298 5.86133 9.138L4.528 7.80467C4.46433 7.74317 4.41354 7.66961 4.3786 7.58827C4.34366 7.50693 4.32527 7.41945 4.3245 7.33093C4.32373 7.24241 4.3406 7.15463 4.37412 7.0727C4.40764 6.99077 4.45714 6.91633 4.51974 6.85374C4.58233 6.79114 4.65677 6.74164 4.7387 6.70812C4.82063 6.6746 4.90841 6.65773 4.99693 6.6585C5.08545 6.65927 5.17293 6.67766 5.25427 6.7126C5.33561 6.74754 5.40917 6.79833 5.47067 6.862L6.33333 7.724L7.862 6.19533C7.98773 6.07389 8.15614 6.0067 8.33093 6.00822C8.50573 6.00974 8.67294 6.07985 8.79655 6.20345C8.92015 6.32706 8.99026 6.49427 8.99178 6.66907C8.9933 6.84386 8.92544 7.01227 8.804 7.138ZM15.6667 14.6667H11C10.8232 14.6667 10.6536 14.5964 10.5286 14.4714C10.4036 14.3464 10.3333 14.1768 10.3333 14C10.3333 13.8232 10.4036 13.6536 10.5286 13.5286C10.6536 13.4036 10.8232 13.3333 11 13.3333H15.6667C15.8435 13.3333 16.013 13.4036 16.1381 13.5286C16.2631 13.6536 16.3333 13.8232 16.3333 14C16.3333 14.1768 16.2631 14.3464 16.1381 14.4714C16.013 14.5964 15.8435 14.6667 15.6667 14.6667ZM15.6667 8.66667H11C10.8232 8.66667 10.6536 8.59643 10.5286 8.47141C10.4036 8.34638 10.3333 8.17681 10.3333 8C10.3333 7.82319 10.4036 7.65362 10.5286 7.5286C10.6536 7.40357 10.8232 7.33333 11 7.33333H15.6667C15.8435 7.33333 16.013 7.40357 16.1381 7.5286C16.2631 7.65362 16.3333 7.82319 16.3333 8C16.3333 8.17681 16.2631 8.34638 16.1381 8.47141C16.013 8.59643 15.8435 8.66667 15.6667 8.66667Z" fill="currentColor"/>
</svg>
