<svg width="24" height="24" viewBox="0 0 24 24" fill="none" xmlns="http://www.w3.org/2000/svg">
    <path d="M16.6875 16.6406H15.507C15.3858 18.4702 13.8597 19.9219 12 19.9219C10.1403 19.9219 8.61417 18.4702 8.49305 16.6406H7.3125C4.08164 16.6406 1.45312 19.2691 1.45312 22.5V23.2969C1.45312 23.6852 1.76794 24 2.15625 24H21.8438C22.2321 24 22.5469 23.6852 22.5469 23.2969V22.5C22.5469 19.2691 19.9184 16.6406 16.6875 16.6406ZM5.90625 10.5469V7.73438C5.12958 7.73438 4.5 8.36395 4.5 9.14062C4.5 9.9173 5.12958 10.5469 5.90625 10.5469ZM13.8466 4.65909C14.0999 4.40573 14.5033 4.38342 14.783 4.6072L16.9342 6.32812H18.0938V6.09375C18.0938 2.72827 15.3655 0 12 0C8.63452 0 5.90625 2.72827 5.90625 6.09375V6.32812H9.81727C10.5656 6.32813 11.3066 6.18074 11.9979 5.89437C12.6893 5.60799 13.3175 5.18825 13.8466 4.65909Z" fill="white" fill-opacity="0.6"/>
    <path d="M9.89062 16.0297V16.4063C9.89062 17.5712 10.835 18.5156 12 18.5156C13.165 18.5156 14.1094 17.5712 14.1094 16.4063V16.0297C13.4518 16.273 12.7412 16.4063 12 16.4063C11.2588 16.4063 10.5482 16.2731 9.89062 16.0297ZM11.7656 12.8906C11.7656 12.5023 12.0804 12.1875 12.4688 12.1875H16.2971C16.548 11.6133 16.6875 10.9793 16.6875 10.3125V7.93168L14.3743 6.0811C13.0983 7.1514 11.5024 7.73438 9.81708 7.73438H7.3125V10.3125C7.3125 12.9013 9.41114 15 12 15C13.3111 15 14.4964 14.4615 15.3471 13.5938H12.4688C12.0804 13.5938 11.7656 13.2789 11.7656 12.8906Z" fill="white" fill-opacity="0.6"/>
    <path d="M18.0937 10.5469H18.7969V11.0156C18.7969 11.6618 18.2712 12.1875 17.625 12.1875H16.2971C16.0684 12.71 15.7465 13.1866 15.3471 13.5938H17.625C19.0466 13.5938 20.2031 12.4372 20.2031 11.0156V9.14062C20.2031 8.36395 19.5735 7.73438 18.7969 7.73438H18.0937V10.5469Z" fill="white" fill-opacity="0.6"/>
</svg>
