<svg width="24" height="24" viewBox="0 0 24 24" fill="none" xmlns="http://www.w3.org/2000/svg">
    <path d="M21.9075 8.88001C21.4699 8.81644 21.0522 8.65496 20.6856 8.4076C20.319 8.16024 20.013 7.83337 19.7902 7.45132C19.5675 7.06928 19.4338 6.64192 19.3992 6.20105C19.3645 5.76018 19.4297 5.31717 19.59 4.90501C19.6919 4.63555 19.7069 4.34097 19.6329 4.06255C19.5589 3.78414 19.3997 3.53585 19.1775 3.35251C18.1961 2.52938 17.0796 1.88233 15.8775 1.44001C15.6037 1.33829 15.3048 1.32559 15.0233 1.40369C14.7418 1.4818 14.4922 1.64674 14.31 1.87501C14.0357 2.22575 13.6851 2.50942 13.2849 2.70452C12.8847 2.89961 12.4452 3.001 12 3.001C11.5547 3.001 11.1153 2.89961 10.7151 2.70452C10.3148 2.50942 9.96428 2.22575 9.68999 1.87501C9.50775 1.64674 9.25813 1.4818 8.97667 1.40369C8.69522 1.32559 8.3963 1.33829 8.12249 1.44001C7.01213 1.8475 5.97404 2.42985 5.04749 3.16501C4.8139 3.34993 4.64564 3.60478 4.56737 3.89224C4.48909 4.17971 4.5049 4.48468 4.61249 4.76251C4.78555 5.18557 4.85706 5.64331 4.82127 6.09901C4.78548 6.5547 4.64338 6.99566 4.40639 7.38652C4.16939 7.77738 3.84409 8.10725 3.45658 8.34968C3.06907 8.59212 2.63014 8.74035 2.17499 8.78251C1.87949 8.8141 1.60195 8.93973 1.38322 9.14091C1.16449 9.34209 1.01613 9.60818 0.959988 9.90001C0.819638 10.5912 0.749283 11.2947 0.749988 12C0.748893 12.5904 0.796555 13.1799 0.892488 13.7625C0.940199 14.0637 1.0858 14.3408 1.30677 14.5509C1.52775 14.761 1.81179 14.8925 2.11499 14.925C2.58013 14.9687 3.02806 15.1231 3.42127 15.3754C3.81448 15.6277 4.14153 15.9705 4.37506 16.3751C4.60859 16.7798 4.7418 17.2344 4.76353 17.7011C4.78527 18.1678 4.6949 18.6329 4.49999 19.0575C4.37243 19.3337 4.34079 19.6446 4.41009 19.9408C4.47939 20.237 4.64565 20.5016 4.88249 20.6925C5.85791 21.5008 6.96367 22.1374 8.15249 22.575C8.30454 22.6277 8.46408 22.6555 8.62499 22.6575C8.84562 22.657 9.06291 22.6037 9.25866 22.5019C9.4544 22.4001 9.62289 22.2528 9.74999 22.0725C10.0173 21.683 10.3756 21.3647 10.7939 21.1451C11.2121 20.9256 11.6776 20.8114 12.15 20.8125C12.6077 20.8131 13.0589 20.9205 13.4678 21.1262C13.8766 21.332 14.2318 21.6303 14.505 21.9975C14.6867 22.2418 14.9441 22.4191 15.2372 22.5019C15.5302 22.5846 15.8423 22.5681 16.125 22.455C17.2123 22.0174 18.2245 21.4126 19.125 20.6625C19.3512 20.4755 19.5123 20.2215 19.585 19.9372C19.6578 19.6528 19.6385 19.3527 19.53 19.08C19.3536 18.6624 19.2767 18.2095 19.3053 17.7571C19.334 17.3046 19.4674 16.865 19.695 16.473C19.9227 16.081 20.2384 15.7472 20.6171 15.4981C20.9959 15.249 21.4273 15.0913 21.8775 15.0375C22.1694 14.9971 22.4408 14.8649 22.6525 14.6599C22.8642 14.455 23.0052 14.1879 23.055 13.8975C23.1754 13.2719 23.2407 12.637 23.25 12C23.2499 11.3281 23.1871 10.6577 23.0625 9.99751C23.0118 9.71348 22.873 9.45264 22.6657 9.25203C22.4583 9.05142 22.193 8.92125 21.9075 8.88001ZM15.75 12C15.75 12.7417 15.5301 13.4667 15.118 14.0834C14.7059 14.7001 14.1203 15.1807 13.4351 15.4646C12.7498 15.7484 11.9958 15.8226 11.2684 15.678C10.541 15.5333 9.87278 15.1761 9.34834 14.6517C8.82389 14.1272 8.46674 13.459 8.32204 12.7316C8.17735 12.0042 8.25161 11.2502 8.53544 10.5649C8.81927 9.87972 9.29992 9.29405 9.9166 8.882C10.5333 8.46994 11.2583 8.25001 12 8.25001C12.9945 8.25001 13.9484 8.64509 14.6516 9.34836C15.3549 10.0516 15.75 11.0054 15.75 12Z" fill="white" fill-opacity="0.6"/>
</svg>
